<?xml version="1.0" standalone="no"?>
<!DOCTYPE svg PUBLIC "-//W3C//DTD SVG 1.1//EN" "http://www.w3.org/Graphics/SVG/1.1/DTD/svg11.dtd" >
<svg xmlns="http://www.w3.org/2000/svg" xmlns:xlink="http://www.w3.org/1999/xlink" version="1.1">
<metadata>
Created by FontForge 20170731 at Wed Nov  5 20:32:15 2014
 By ,,,
Copyright (c) 2007-2014 by Javier Quintana Godoy &#38; the PampaType foundry.
</metadata>
<defs>
<font id="Berenjena-GrisItalica" horiz-adv-x="582" >
  <font-face 
    font-family="Berenjena Gris"
    font-weight="500"
    font-style="italic"
    font-stretch="normal"
    units-per-em="1000"
    panose-1="2 3 0 2 7 4 8 0 0 2"
    ascent="800"
    descent="-200"
    x-height="432"
    cap-height="680"
    bbox="-260 -336 1494 1046"
    underline-thickness="55"
    underline-position="-308"
    unicode-range="U+000D-FB04"
  />
<missing-glyph horiz-adv-x="550" 
d="M490 730v-730h-430v730h430zM275 410l142 285h-284zM100 671v-612l153 306zM450 59v612l-153 -306zM133 35h284l-142 285z" />
    <glyph glyph-name="Yacute" unicode="&#xb4;Y" horiz-adv-x="605" 
d="M493 906q-9 -40 -47.5 -86t-102.5 -76l7 -27q109 26 156.5 60.5t47.5 80.5q0 48 -61 48zM134 633l117 -350q-10 -77 -26.5 -137.5t-27.5 -81.5l-11 -22q-31 -13 -115 -13q0 -33 37 -33q10 0 68 2t81 2q14 0 75 -2t71 -2q23 0 31.5 8t8.5 25q-39 0 -69 3.5t-40 7.5l-10 3
q0 18 24 107.5t39 135.5l246 347q27 14 105 14q0 33 -27 33q-13 0 -47 -2t-54 -2t-62 2t-61 2q-33 0 -33 -33q36 0 66 -3t43 -6.5t13 -4.5q0 -5 -54 -83.5t-108 -153.5l-53 -76q-89 291 -89 312q0 4 13.5 7t40 5.5t59.5 2.5q0 33 -26 33q-18 0 -74 -2t-81 -2q-21 0 -75.5 2
t-68.5 2q-31 0 -31 -33q32 0 58.5 -3.5t36.5 -7.5z" />
    <glyph glyph-name="yacute" unicode="&#xb4;y" horiz-adv-x="506" 
d="M285 510l9 -32q95 27 158 77.5t63 102.5q0 61 -75 61q0 -17 -11 -47.5t-49 -79t-95 -82.5zM526 423q-20 10 -52 10q-74 0 -95 -65q-4 -10 -15.5 -43t-17.5 -49l-18 -48t-20.5 -49.5t-21 -43.5t-23.5 -40.5t-24 -29.5t-27 -21.5t-28 -6.5q-31 0 -31 29q0 40 55.5 155
t55.5 150q0 61 -81 61q-99 0 -141 -100q-13 -31 -13 -50q0 -22 24 -22q42 119 82 119q18 0 18 -18q0 -21 -53 -138.5t-53 -164.5q0 -77 85 -77q41 0 72 14.5t56 48.5t41 65t40 88l8 -7q-29 -73 -45 -127q-37 -139 -83.5 -199t-109.5 -60q-60 0 -60 53q0 27 15.5 41.5
t40.5 14.5q0 7 -4.5 16t-20 18t-39.5 9q-40 0 -64.5 -25t-24.5 -68q0 -98 138 -98q135 0 209 79t121 246q32 111 58 194t36 111z" />
    <glyph glyph-name="Itilde" unicode="&#x7e;I" horiz-adv-x="407" 
d="M483 881q17 -15 17 -37q0 -31 -36 -31q-23 0 -71.5 14t-69.5 14q-27 0 -45.5 -15.5t-18.5 -47.5q0 -27 12.5 -42.5t30.5 -15.5l12 4q-12 11 -12 31q0 23 21 23q13 0 66 -24t88 -24q39 0 61 21.5t22 60.5q0 35 -17.5 54.5t-41.5 19.5q-6 0 -10.5 -1t-6.5 -3zM289 633
q-44 -151 -107 -323t-106 -268q-25 -13 -96 -13q0 -17 7 -25t27 -8q14 0 58 2t67 2q20 0 75 -2t78 -2q38 0 38 33q-39 0 -68 3.5t-38 6.5l-10 3q36 124 101.5 316.5t110.5 274.5q22 14 102 14q0 33 -29 33q-13 0 -62 -2t-71 -2q-28 0 -85 2t-75 2q-33 0 -33 -33
q39 0 68 -3.5t39 -7.5z" />
    <glyph glyph-name="itilde" unicode="&#x7e;i" horiz-adv-x="329" 
d="M310 684q16 -15 16 -36q0 -32 -36 -32q-22 0 -70.5 14t-70.5 14q-27 0 -45.5 -15.5t-18.5 -47.5q0 -27 13 -42t30 -15l12 3q-11 12 -11 31q0 23 20 23q14 0 67 -23.5t87 -23.5q39 0 61.5 21t22.5 61q0 34 -18 54t-41 20q-6 0 -10.5 -1.5t-5.5 -2.5zM60 260q41 119 77 119
q19 0 19 -18q0 -23 -49 -137t-49 -166q0 -77 85 -77q51 0 84.5 24.5t57.5 78.5q13 32 13 53q0 23 -26 23q-34 -123 -83 -123q-26 0 -26 29q0 35 53.5 152.5t53.5 151.5q0 28 -21 45t-62 17q-44 0 -74 -17.5t-52 -57.5q-30 -55 -30 -77q0 -20 29 -20z" />
    <glyph glyph-name="Utilde" unicode="&#x7e;U" horiz-adv-x="734" 
d="M632 881q16 -15 16 -37q0 -31 -36 -31q-22 0 -70.5 14t-69.5 14q-27 0 -46 -15.5t-19 -47.5q0 -27 13 -42.5t30 -15.5l12 4q-11 11 -11 31q0 23 21 23q14 0 66.5 -24t86.5 -24q39 0 61.5 21.5t22.5 60.5q0 35 -17.5 54.5t-41.5 19.5q-6 0 -10.5 -1t-5.5 -3zM695 633
q-106 -297 -147 -401q-45 -116 -95.5 -157.5t-134.5 -41.5q-63 0 -94.5 28t-31.5 91q0 64 49 203t114 278q23 14 115 14q0 33 -27 33q-21 0 -76.5 -2t-87.5 -2q-15 0 -70.5 2t-80.5 2q-33 0 -33 -33q41 0 71.5 -3.5t40.5 -7.5l10 -3q-12 -32 -40 -103t-44 -113.5t-35.5 -99
t-28.5 -100.5t-9 -78q0 -78 53 -118t177 -40q131 0 195.5 53.5t116.5 195.5l153 403q23 14 109 14q0 33 -28 33q-14 0 -54 -2t-51 -2q-19 0 -59 2t-65 2q-33 0 -33 -33q40 0 70.5 -3.5t40.5 -7.5z" />
    <glyph glyph-name="utilde" unicode="&#x7e;u" 
d="M440 684q16 -15 16 -36q0 -32 -36 -32q-22 0 -70.5 14t-70.5 14q-27 0 -45.5 -15.5t-18.5 -47.5q0 -27 13 -42t30 -15l12 3q-11 12 -11 31q0 23 20 23q14 0 67 -23.5t87 -23.5q39 0 61.5 21t22.5 61q0 34 -18 54t-41 20q-6 0 -10.5 -1.5t-5.5 -2.5zM534 423
q-22 10 -58 10q-68 0 -89 -63q-27 -77 -47.5 -129.5t-46 -103t-51.5 -75.5t-53 -25q-30 0 -30 32q0 36 52 152t52 150q0 61 -77 61q-99 0 -143 -102q-12 -29 -12 -48q0 -22 26 -22q39 119 81 119q17 0 17 -18t-50.5 -135.5t-50.5 -160.5q0 -84 88 -84q38 0 68 14.5
t53.5 46.5t38 58.5t36.5 74.5q2 5 3.5 8t3.5 7.5t4 8.5l8 -6q-31 -79 -31 -143q0 -69 78 -69q99 0 139 105q12 33 12 51q0 23 -27 23q-16 -57 -38.5 -90t-46.5 -33q-27 0 -27 32q0 49 29.5 137.5t58.5 152.5z" />
    <glyph glyph-name="Etilde" unicode="&#x7e;E" horiz-adv-x="689" 
d="M597 881q16 -15 16 -37q0 -31 -36 -31q-22 0 -70.5 14t-69.5 14q-27 0 -46 -15.5t-19 -47.5q0 -27 13 -42.5t30 -15.5l12 4q-11 11 -11 31q0 23 21 23q14 0 66.5 -24t86.5 -24q39 0 61.5 21.5t22.5 60.5q0 35 -17.5 54.5t-41.5 19.5q-6 0 -10.5 -1t-6.5 -3zM299 633
q-44 -152 -107 -323.5t-107 -267.5q-24 -13 -105 -13q0 -17 7 -25t27 -8q8 0 88 2t136 2q93 0 178.5 -4.5t124.5 -9.5l39 -5q4 26 24.5 99.5t20.5 96.5q0 13 -10.5 22t-29.5 9q-15 -87 -38 -121t-69 -35l-254 -5q19 75 86 268q22 4 112 4q34 0 48 -7.5t14 -26.5
q0 -12 -4 -31t-8 -32l-4 -14q7 -3 14 -3q25 0 31 27q9 42 34.5 122t25.5 95q0 21 -32 21q-16 -71 -37.5 -93t-71.5 -22l-106 3q7 25 46 127.5t59 142.5q115 2 173 2q33 0 45 -10.5t12 -40.5q0 -18 -4 -41.5t-8 -37.5l-4 -15q11 -6 23 -6q31 0 38 46q5 35 13.5 76t14.5 65
l5 23q-189 -13 -305 -13q-52 0 -129.5 2t-88.5 2q-34 0 -34 -33q40 0 69 -3.5t39 -7.5z" />
    <glyph glyph-name="etilde" unicode="&#x7e;e" horiz-adv-x="443" 
d="M406 684q16 -15 16 -36q0 -32 -36 -32q-22 0 -70.5 14t-70.5 14q-27 0 -45.5 -15.5t-18.5 -47.5q0 -27 13 -42t30 -15l12 3q-11 12 -11 31q0 23 20 23q14 0 67 -23.5t87 -23.5q39 0 61.5 21t22.5 61q0 34 -18 54t-41 20q-6 0 -10.5 -1.5t-5.5 -2.5zM209 228h-28
q0 -27 54 -27q85 0 136 40t51 106q0 85 -111 85q-117 0 -198.5 -95.5t-81.5 -218.5q0 -73 34 -105t99 -32q101 0 154 96q18 33 18 54q0 23 -28 23q-16 -53 -46 -90t-68 -37q-46 0 -46 78q0 114 50.5 202.5t99.5 88.5q34 0 34 -46q0 -54 -34 -88t-89 -34z" />
    <glyph glyph-name="Ytilde" unicode="&#x7e;Y" horiz-adv-x="605" 
d="M519 881q17 -15 17 -37q0 -31 -37 -31q-22 0 -70.5 14t-69.5 14q-27 0 -45.5 -15.5t-18.5 -47.5q0 -27 12.5 -42.5t29.5 -15.5l13 4q-12 11 -12 31q0 23 21 23q13 0 66 -24t88 -24q38 0 60.5 21.5t22.5 60.5q0 35 -17.5 54.5t-41.5 19.5q-6 0 -10.5 -1t-6.5 -3zM134 633
l117 -350q-10 -77 -26.5 -137.5t-27.5 -81.5l-11 -22q-31 -13 -115 -13q0 -33 37 -33q10 0 68 2t81 2q14 0 75 -2t71 -2q23 0 31.5 8t8.5 25q-39 0 -69 3.5t-40 7.5l-10 3q0 18 24 107.5t39 135.5l246 347q27 14 105 14q0 33 -27 33q-13 0 -47 -2t-54 -2t-62 2t-61 2
q-33 0 -33 -33q36 0 66 -3t43 -6.5t13 -4.5q0 -5 -54 -83.5t-108 -153.5l-53 -76q-89 291 -89 312q0 4 13.5 7t40 5.5t59.5 2.5q0 33 -26 33q-18 0 -74 -2t-81 -2q-21 0 -75.5 2t-68.5 2q-31 0 -31 -33q32 0 58.5 -3.5t36.5 -7.5z" />
    <glyph glyph-name="ytilde" unicode="&#x7e;y" horiz-adv-x="506" 
d="M430 684q16 -15 16 -36q0 -32 -36 -32q-22 0 -70.5 14t-70.5 14q-27 0 -45.5 -15.5t-18.5 -47.5q0 -27 13 -42t30 -15l12 3q-11 12 -11 31q0 23 20 23q14 0 67 -23.5t87 -23.5q39 0 61.5 21t22.5 61q0 34 -18 54t-41 20q-6 0 -10.5 -1.5t-5.5 -2.5zM526 423
q-20 10 -52 10q-74 0 -95 -65q-4 -10 -15.5 -43t-17.5 -49l-18 -48t-20.5 -49.5t-21 -43.5t-23.5 -40.5t-24 -29.5t-27 -21.5t-28 -6.5q-31 0 -31 29q0 40 55.5 155t55.5 150q0 61 -81 61q-99 0 -141 -100q-13 -31 -13 -50q0 -22 24 -22q42 119 82 119q18 0 18 -18
q0 -21 -53 -138.5t-53 -164.5q0 -77 85 -77q41 0 72 14.5t56 48.5t41 65t40 88l8 -7q-29 -73 -45 -127q-37 -139 -83.5 -199t-109.5 -60q-60 0 -60 53q0 27 15.5 41.5t40.5 14.5q0 7 -4.5 16t-20 18t-39.5 9q-40 0 -64.5 -25t-24.5 -68q0 -98 138 -98q135 0 209 79t121 246
q32 111 58 194t36 111z" />
    <glyph glyph-name="ff" unicode="ff" horiz-adv-x="650" 
d="M711 730q66 0 97.5 -26.5t31.5 -70.5q0 -45 -24.5 -68.5t-65.5 -23.5q-17 0 -30.5 5t-17.5 10l-5 5q5 3 12.5 8t19.5 26.5t12 47.5q0 49 -36 49q-83 0 -139 -262q67 -10 149 -10q0 -39 -58 -39q-24 0 -49.5 -1.5t-39.5 -3.5l-14 -2q-82 -341 -157.5 -470t-204.5 -129
q-98 0 -98 73q0 27 17.5 45t45.5 18q17 0 29 -6.5t16 -13.5l3 -7q-3 -1 -8 -3.5t-13.5 -14t-8.5 -27.5q0 -35 36 -35q60 0 96 98.5t125 462.5l3 12q-62 4 -96 4q-20 0 -40 -1.5t-30 -3.5l-10 -2q-79 -326 -170 -467.5t-212 -141.5q-49 0 -77.5 20t-28.5 61q0 34 20 54.5
t54 20.5q20 0 33.5 -7.5t17.5 -14.5l4 -7q-4 -2 -9.5 -5.5t-15 -17.5t-9.5 -31q0 -39 37 -39q40 0 72.5 51.5t70 171t94.5 355.5q-61 4 -108 4q0 39 42 39q24 0 43.5 3t26.5 7l8 3q15 70 40 122t52.5 81t63 46.5t65.5 22.5t66 5q76 0 129 -28q55 48 143 48zM367 420
q26 0 46 3t27 7l7 3q30 126 75 195q-29 44 -88 44q-40 0 -67.5 -18t-52.5 -72.5t-43 -151.5q41 -10 96 -10z" />
    <glyph glyph-name="fi" unicode="fi" horiz-adv-x="586" 
d="M435 561q5 3 12.5 8t20.5 25t13 44q0 26 -14.5 40t-40.5 14q-105 0 -155 -264q76 4 172 4q38 0 58.5 -17t20.5 -45q0 -34 -53.5 -150t-53.5 -154q0 -29 26 -29q49 0 83 123q26 0 26 -23q0 -21 -13 -53q-24 -54 -57 -78.5t-83 -24.5q-87 0 -87 77q0 50 49 165t49 137
q0 21 -22 21l-126 -6q-82 -337 -167.5 -473.5t-213.5 -136.5q-49 0 -78.5 20t-29.5 61q0 32 19.5 53.5t54.5 21.5q20 0 33.5 -7.5t17.5 -14.5l4 -7q-4 -2 -9.5 -5.5t-15 -17.5t-9.5 -30q0 -40 38 -40q58 0 106.5 121.5t129.5 456.5q-61 4 -108 4q0 39 42 39q25 0 44.5 3
t26.5 7l7 3q21 88 49 147t65 91.5t77 45.5t93 13q73 0 111 -28.5t38 -77.5q0 -41 -24 -64.5t-67 -23.5q-20 0 -35 6t-19 12z" />
    <glyph glyph-name="fl" unicode="fl" horiz-adv-x="624" 
d="M152 433q-23 -13 -78 -13q-42 0 -42 -39l108 -4q-57 -236 -94.5 -355.5t-70 -171t-72.5 -51.5q-37 0 -37 39q0 17 8.5 30.5t17.5 18.5l8 5q-1 3 -4 8t-17 13t-34 8q-34 0 -54 -20.5t-20 -54.5q0 -81 110 -81q128 0 212.5 137.5t165.5 471.5q35 7 100 7q48 0 48 39
q-40 0 -74 2.5t-48 5.5l-14 2q30 149 65 205.5t96 56.5q41 0 67 -24t34 -55q-192 -439 -192 -544q0 -49 22 -68.5t67 -19.5q95 0 140 101q16 32 16 55t-26 23q-14 -51 -38.5 -87t-49.5 -36q-26 0 -26 31q0 56 59 210t118.5 287t59.5 138q0 19 -22 19q-5 0 -18.5 -3.5
t-34.5 -8.5t-41 -8q-50 28 -133 28q-51 0 -91 -13t-77 -45.5t-65.5 -92t-48.5 -146.5z" />
    <glyph glyph-name="ffi" unicode="ffi" horiz-adv-x="875" 
d="M730 561q5 3 12.5 8t20.5 25t13 44q0 26 -14.5 40t-40.5 14q-105 0 -155 -264q76 4 172 4q38 0 58.5 -17t20.5 -45q0 -34 -53.5 -150t-53.5 -154q0 -29 26 -29q49 0 83 123q26 0 26 -23q0 -22 -14 -53q-23 -54 -56.5 -78.5t-82.5 -24.5q-87 0 -87 77q0 50 49 165t49 137
q0 21 -23 21l-125 -6q-83 -343 -159 -471.5t-204 -128.5q-98 0 -98 72q0 29 18 46.5t45 17.5q17 0 29 -6.5t16 -13.5l3 -7q-3 -1 -8 -3.5t-13.5 -13.5t-8.5 -26q0 -37 39 -37q58 0 96 106t125 467q-61 4 -96 4q-20 0 -40 -1.5t-30 -3.5l-10 -2q-79 -326 -170 -467.5
t-212 -141.5q-49 0 -77.5 20t-28.5 61q0 34 20 54.5t54 20.5q20 0 33.5 -7.5t17.5 -14.5l4 -7q-4 -2 -9.5 -5.5t-15 -17.5t-9.5 -31q0 -39 37 -39q40 0 72.5 51.5t70 171t94.5 355.5q-61 4 -108 4q0 39 42 39q24 0 43.5 3t26.5 7l8 3q15 70 40 122t52.5 81t63 46.5
t65.5 22.5t66 5q78 0 131 -29q58 49 155 49q77 0 116 -28.5t39 -77.5q0 -41 -24 -64.5t-67 -23.5q-20 0 -35 6t-20 12zM355 420q31 0 54 3t31 7l7 3q28 124 76 195q-31 44 -89 44q-40 0 -67.5 -18t-52.5 -72.5t-43 -151.5q42 -10 84 -10z" />
    <glyph glyph-name="ffl" unicode="ffl" horiz-adv-x="919" 
d="M855 160q26 0 26 -23q0 -19 -16 -55q-45 -101 -140 -101q-45 0 -67 19.5t-22 68.5q0 105 192 544q-8 31 -34 55t-67 24q-61 0 -96 -56.5t-65 -205.5q47 -10 136 -10q0 -39 -48 -39q-29 0 -54 -1.5t-36 -3.5l-10 -2q-82 -341 -157.5 -470t-204.5 -129q-98 0 -98 73
q0 27 17.5 45t45.5 18q17 0 29 -6.5t16 -13.5l3 -7q-3 -1 -8 -3.5t-13.5 -13.5t-8.5 -26q0 -37 37 -37q58 0 97 104.5t126 468.5q-60 4 -96 4q-20 0 -40 -1.5t-30 -3.5l-10 -2q-79 -326 -170 -467.5t-212 -141.5q-49 0 -77.5 20t-28.5 61q0 34 20 54.5t54 20.5
q20 0 33.5 -7.5t17.5 -14.5l4 -7q-4 -2 -9.5 -5.5t-15 -17.5t-9.5 -31q0 -39 37 -39q40 0 72.5 51.5t70 171t94.5 355.5q-61 4 -108 4q0 39 42 39q24 0 43.5 3t26.5 7l8 3q15 70 40 122t52.5 81t63 46.5t65.5 22.5t66 5q74 0 132 -29q60 49 158 49q83 0 133 -28q19 3 40.5 8
t35 8.5t18.5 3.5q22 0 22 -19q0 -5 -59 -138t-118.5 -287t-59.5 -210q0 -31 26 -31q25 0 49.5 36t38.5 87zM368 420q25 0 44.5 3t27.5 7l7 3q29 126 76 194q-30 45 -89 45q-40 0 -67.5 -18t-52.5 -72.5t-43 -151.5q43 -10 97 -10z" />
    <glyph glyph-name="Gtilde" unicode="&#x7e;G" horiz-adv-x="729" 
d="M571 881q16 -15 16 -37q0 -31 -36 -31q-22 0 -70.5 14t-70.5 14q-27 0 -45.5 -15.5t-18.5 -47.5q0 -27 13 -42.5t30 -15.5l12 4q-11 11 -11 31q0 23 20 23q14 0 67 -24t87 -24q39 0 61 21.5t22 60.5q0 35 -17.5 54.5t-41.5 19.5q-6 0 -10 -1t-6 -3zM519 248
q-9 -57 -26 -117q-13 -47 -60 -77t-115 -30t-101.5 43t-33.5 142q0 119 35 220t99.5 161.5t144.5 60.5q45 0 74 -15.5t43 -48t18.5 -67t4.5 -88.5q41 0 51 43l33 152l-6.5 6.5t-22 15t-39.5 18.5t-60 14.5t-82 6.5q-183 0 -304.5 -129.5t-121.5 -336.5q0 -70 19 -119
t54.5 -74.5t76.5 -36.5t95 -11q56 0 105 15t75 30t28 15q20 0 20 -96q42 0 45 50q3 59 16.5 122t25.5 97l12 34q37 15 92 15q0 33 -30 33q-14 0 -51.5 -2t-65.5 -2q-26 0 -72.5 2t-55.5 2q-35 0 -35 -33q31 0 59.5 -4t42.5 -7z" />
    <glyph glyph-name="gtilde" unicode="&#x7e;g" horiz-adv-x="504" 
d="M435 684q16 -15 16 -36q0 -32 -36 -32q-22 0 -70.5 14t-70.5 14q-27 0 -45.5 -15.5t-18.5 -47.5q0 -27 13 -42t30 -15l12 3q-11 12 -11 31q0 23 20 23q14 0 67 -23.5t87 -23.5q39 0 61.5 21t22.5 61q0 34 -18 54t-41 20q-6 0 -10.5 -1.5t-6.5 -2.5zM534 451l-9 17
q-55 -39 -114 -48q-34 12 -71 12q-130 0 -218.5 -90.5t-88.5 -241.5q0 -119 97 -119q63 0 109 48.5t95 165.5l9 -6q-46 -115 -54 -146q-34 -134 -81 -186.5t-105 -52.5q-56 0 -56 50q0 28 15.5 43.5t37.5 15.5q0 7 -4 14.5t-19 15.5t-38 8q-38 0 -63 -25t-25 -66
q0 -95 131 -95q140 0 221 94.5t131 306.5q19 83 44 154.5t40 101.5zM376 381q-21 -67 -39.5 -117t-45 -107.5t-55 -88.5t-57.5 -31q-33 0 -33 60q0 116 56 205t137 89q11 0 20 -2.5t13 -4.5z" />
    <glyph glyph-name="f_b" unicode="fb" horiz-adv-x="791" 
d="M666 432q41 0 67 -27.5t26 -81.5q0 -135 -79.5 -238.5t-206.5 -103.5q-129 0 -129 101q0 149 196 534q-8 30 -35 53t-73 23q-61 0 -96 -56.5t-65 -205.5q47 -10 128 -10q0 -39 -48 -39q-25 0 -48 -1.5t-33 -3.5l-11 -2q-81 -334 -165.5 -471.5t-212.5 -137.5
q-110 0 -110 81q0 34 20 54.5t54 20.5q20 0 33.5 -7.5t17.5 -14.5l4 -7q-4 -2 -9.5 -5.5t-15 -17.5t-9.5 -31q0 -39 37 -39q40 0 72.5 51.5t70 171t94.5 355.5q-61 4 -108 4q0 39 42 39q24 0 43.5 3t26.5 7l8 3q20 87 48.5 146.5t65.5 92t77 45.5t91 13q83 0 140 -24
q21 3 42.5 7t35.5 6.5t20 2.5q19 0 19 -19q0 -9 -20.5 -46t-73.5 -142.5t-112 -241.5l7 -12q44 94 83 132.5t91 38.5zM487 19q32 0 68.5 44.5t62 117.5t25.5 145q0 61 -27 61q-24 0 -63 -57.5t-68.5 -135.5t-29.5 -129q0 -46 32 -46z" />
    <glyph glyph-name="f_h" unicode="fh" horiz-adv-x="844" 
d="M787 160q26 0 26 -23q0 -22 -13 -52q-46 -104 -143 -104q-85 0 -85 78q0 51 44 159.5t44 127.5q0 22 -20 22q-41 0 -101 -115t-100 -262q-59 0 -81 14t-22 48q0 56 43.5 186t80 218t70.5 165q-11 28 -35.5 49t-62.5 21q-61 0 -96 -56.5t-65 -205.5q47 -10 128 -10
q0 -39 -48 -39q-25 0 -48 -1.5t-33 -3.5l-11 -2q-81 -334 -165.5 -471.5t-212.5 -137.5q-110 0 -110 81q0 34 20 54.5t54 20.5q20 0 33.5 -7.5t17.5 -14.5l4 -7q-4 -2 -9.5 -5.5t-15 -17.5t-9.5 -31q0 -39 37 -39q40 0 72.5 51.5t70 171t94.5 355.5q-61 4 -108 4q0 39 42 39
q24 0 43.5 3t26.5 7l8 3q20 87 48.5 146.5t65.5 92t77 45.5t91 13q79 0 127 -25q20 3 41.5 7.5t34.5 7t19 2.5q23 0 23 -19q0 -1 -43 -87.5t-100 -223t-85 -245.5l8 -5q4 12 11 31.5t31 69.5t50 88t67 69.5t84 31.5q36 0 56.5 -19t20.5 -49q0 -36 -52 -149t-52 -148
q0 -30 26 -30q27 0 49.5 35.5t36.5 87.5z" />
    <glyph glyph-name="f_hbar" unicode="f&#x127;" horiz-adv-x="844" 
d="M787 160q26 0 26 -23q0 -22 -13 -52q-46 -104 -143 -104q-85 0 -85 78q0 51 44 159.5t44 127.5q0 22 -20 22q-41 0 -101 -115t-100 -262q-59 0 -81 14t-22 48q0 107 149 465h-71l12 38h75l29 66q-11 28 -35.5 49t-62.5 21q-61 0 -96 -56.5t-65 -205.5q47 -10 128 -10
q0 -39 -48 -39q-25 0 -48 -1.5t-33 -3.5l-11 -2q-81 -334 -165.5 -471.5t-212.5 -137.5q-110 0 -110 81q0 34 20 54.5t54 20.5q20 0 33.5 -7.5t17.5 -14.5l4 -7q-4 -2 -9.5 -5.5t-15 -17.5t-9.5 -31q0 -39 37 -39q40 0 72.5 51.5t70 171t94.5 355.5q-61 4 -108 4q0 39 42 39
q24 0 43.5 3t26.5 7l8 3q20 87 48.5 146.5t65.5 92t77 45.5t91 13q79 0 127 -25q20 3 41.5 7.5t34.5 7t19 2.5q23 0 23 -19q0 -2 -8.5 -19t-27 -55t-35.5 -73h153l-12 -38h-158q-101 -218 -140 -371l8 -5q4 12 11 31.5t31 69.5t50 88t67 69.5t84 31.5q36 0 56.5 -19
t20.5 -49q0 -36 -52 -149t-52 -148q0 -30 26 -30q27 0 49.5 35.5t36.5 87.5z" />
    <glyph glyph-name="f_dotlessi" unicode="f&#x131;" horiz-adv-x="591" 
d="M534 160q-34 -123 -85 -123q-24 0 -24 29q0 38 53.5 154t53.5 150q0 28 -20.5 45t-58.5 17l-182 -4q30 146 56 204.5t55 58.5t29 -37q0 -31 -21 -59q12 -12 36 -12q33 0 52.5 18.5t19.5 51.5q0 77 -101 77q-82 0 -143.5 -65t-101.5 -232q-22 -13 -78 -13q-42 0 -42 -39
l108 -4q-79 -328 -128 -453t-108 -125q-38 0 -38 40q0 16 8.5 29.5t17.5 18.5l8 5q-1 3 -4 8t-17 13t-34 8q-35 0 -54.5 -21.5t-19.5 -53.5q0 -41 29.5 -61t78.5 -20q126 0 214.5 137t166.5 473q73 6 136 6q22 0 22 -21q0 -22 -49 -137t-49 -165q0 -77 87 -77q95 0 136 95
q17 39 17 64q0 20 -26 20z" />
    <glyph glyph-name="f_iacute" unicode="f&#xed;" horiz-adv-x="591" 
d="M534 160q-34 -123 -85 -123q-24 0 -24 29q0 38 53.5 154t53.5 150q0 28 -20.5 45t-58.5 17l-182 -4q30 146 56 204.5t55 58.5t29 -37q0 -31 -21 -59q12 -12 36 -12q33 0 52.5 18.5t19.5 51.5q0 77 -101 77q-82 0 -143.5 -65t-101.5 -232q-22 -13 -78 -13q-42 0 -42 -39
l108 -4q-79 -328 -128 -453t-108 -125q-38 0 -38 40q0 16 8.5 29.5t17.5 18.5l8 5q-1 3 -4 8t-17 13t-34 8q-35 0 -54.5 -21.5t-19.5 -53.5q0 -41 29.5 -61t78.5 -20q126 0 214.5 137t166.5 473q73 6 136 6q22 0 22 -21q0 -22 -49 -137t-49 -165q0 -77 87 -77q95 0 136 95
q17 39 17 64q0 20 -26 20zM466 510l9 -32q95 27 158 77.5t63 102.5q0 61 -75 61q0 -17 -11 -47.5t-49 -79t-95 -82.5z" />
    <glyph glyph-name="f_idieresis" unicode="f&#xef;" horiz-adv-x="611" 
d="M534 160q-34 -123 -85 -123q-24 0 -24 29q0 38 53.5 154t53.5 150q0 62 -79 62l-182 -4q26 151 52 207.5t68 56.5q33 0 37 -25q-61 -11 -61 -76q0 -55 57 -55q32 0 55 23t23 67q-1 47 -30.5 72.5t-81.5 25.5q-41 0 -74 -13t-64 -44.5t-56 -90t-44 -143.5q-22 -13 -78 -13
q-42 0 -42 -39l108 -4q-79 -328 -128 -453t-108 -125q-38 0 -38 40q0 16 8.5 29.5t17.5 18.5l8 5q-1 3 -4 8t-17 13t-34 8q-35 0 -54.5 -21.5t-19.5 -53.5q0 -41 29.5 -61t78.5 -20q126 0 214.5 137t166.5 473q73 6 136 6q22 0 22 -21q0 -22 -49 -137t-49 -165q0 -77 87 -77
q95 0 136 95q17 39 17 64q0 20 -26 20zM636 676q-37 0 -59 -24t-22 -61q0 -55 57 -55q32 0 54.5 23t22.5 62q0 55 -53 55z" />
    <glyph glyph-name="f_igrave" unicode="f&#xec;" horiz-adv-x="614" 
d="M387 633q0 41 32 58q-10 5 -23 5q-40 0 -66.5 -57t-58.5 -211q86 4 182 4q38 0 58.5 -17t20.5 -45q0 -34 -53.5 -150t-53.5 -154q0 -29 24 -29q51 0 85 123q26 0 26 -20q0 -25 -17 -64q-41 -95 -136 -95q-87 0 -87 77q0 50 49 165t49 137q0 21 -22 21l-136 -6
q-78 -336 -166.5 -473t-214.5 -137q-49 0 -78.5 20t-29.5 61q0 32 19.5 53.5t54.5 21.5q20 0 33.5 -7.5t17.5 -14.5l4 -7q-4 -2 -9.5 -5.5t-15 -17.5t-9.5 -30q0 -40 38 -40q59 0 108 125t128 453q-61 4 -108 4q0 39 42 39q25 0 44.5 3t26.5 7l7 3q40 167 101.5 232
t143.5 65q49 0 75 -19.5t26 -53.5q0 -27 -18 -45q33 -70 113 -118l-9 -32q-90 25 -143.5 74t-53.5 97z" />
    <glyph glyph-name="f_imacron" unicode="f&#x12b;" horiz-adv-x="595" 
d="M629 545l22 77h-148l-27 -29l-4 4q30 30 30 64q0 69 -92 69t-155 -64.5t-103 -232.5q-22 -13 -78 -13q-42 0 -42 -39l108 -4q-79 -328 -128 -453t-108 -125q-38 0 -38 40q0 16 8.5 29.5t17.5 18.5l8 5q-1 3 -4 8t-17 13t-34 8q-35 0 -54.5 -21.5t-19.5 -53.5
q0 -41 29.5 -61t78.5 -20q126 0 214.5 137t166.5 473q73 6 136 6q22 0 22 -21q0 -22 -49 -137t-49 -165q0 -77 87 -77q95 0 136 95q17 39 17 64q0 20 -26 20q-34 -123 -85 -123q-24 0 -24 29q0 38 53.5 154t53.5 150q0 28 -20.5 45t-58.5 17l-182 -4q30 148 57 205.5
t60 57.5q28 0 28 -35q0 -44 -45 -111h258z" />
    <glyph glyph-name="f_ij" unicode="f&#x133;" horiz-adv-x="869" 
d="M537 84q-24 -54 -57 -78.5t-83 -24.5q-87 0 -87 77q0 50 49 165t49 137q0 21 -22 21l-126 -6q-82 -337 -167.5 -473.5t-213.5 -136.5q-49 0 -78.5 20t-29.5 61q0 32 19.5 53.5t54.5 21.5q20 0 33.5 -7.5t17.5 -14.5l4 -7q-4 -2 -9.5 -5.5t-15 -17.5t-9.5 -30
q0 -40 38 -40q58 0 106.5 121.5t129.5 456.5q-61 4 -108 4q0 39 42 39q25 0 44.5 3t26.5 7l7 3q21 88 49 147t65 91.5t77 45.5t93 13q73 0 111 -28.5t38 -77.5q0 -41 -24 -64.5t-67 -23.5q-20 0 -35 6t-19 12l-5 7q5 3 12.5 8t20.5 25t13 44q0 26 -14.5 40t-40.5 14
q-105 0 -155 -264q76 4 172 4q38 0 58.5 -17t20.5 -45q0 -34 -53.5 -150t-53.5 -154q0 -29 26 -29q49 0 83 123q26 0 26 -23q0 -21 -13 -53zM852 676q30 0 44 -17t14 -40q0 -38 -23.5 -60.5t-61.5 -22.5q-59 0 -59 54q0 38 23.5 62t62.5 24zM774 432q42 0 63 -17.5t21 -44.5
q0 -19 -21 -81t-57 -159t-56 -162q-33 -100 -88 -151.5t-141 -51.5q-53 0 -84.5 22t-31.5 64q0 36 20 57t56 21q20 0 34 -8.5t19 -16.5l4 -8q-36 -21 -36 -58q0 -38 33 -38q32 0 54 34t54 135q16 51 53 161.5t53 162.5t16 66q0 20 -18 20q-47 0 -86 -122q-26 0 -26 22
q0 23 15 53q21 48 55 74t95 26z" />
    <glyph glyph-name="f_j" unicode="fj" horiz-adv-x="552" 
d="M152 433q-22 -13 -78 -13q-42 0 -42 -39l108 -4q-81 -335 -129.5 -456.5t-106.5 -121.5q-38 0 -38 40q0 16 8.5 29.5t17.5 18.5l8 5q-1 3 -4 8t-17 13t-34 8q-35 0 -54.5 -21.5t-19.5 -53.5q0 -41 29.5 -61t78.5 -20q132 0 215 135t166 475q69 6 136 6q21 0 21 -23
q0 -38 -113 -389q-30 -96 -51.5 -128t-47.5 -32q-28 0 -28 26q0 38 39 38q0 16 -13 29.5t-41 13.5q-31 0 -50 -18t-19 -50q0 -68 101 -68q82 0 134 45.5t83 142.5q17 53 53 159t54 164.5t18 78.5q0 27 -20.5 44.5t-62.5 17.5l-182 -4q50 264 155 264q56 0 56 -54
q0 -24 -12 -43t-24 -27l-11 -7q14 -25 60 -25q43 0 67 23.5t24 64.5q0 49 -39 77.5t-117 28.5q-51 0 -90 -13t-75.5 -45.5t-64 -91.5t-48.5 -147z" />
    <glyph glyph-name="f_k" unicode="fk" horiz-adv-x="814" 
d="M798 357q0 -115 -199 -141q2 -86 19 -132t42 -46q27 0 47 32.5t29 88.5q30 0 30 -29q0 -45 -35.5 -97t-99.5 -52q-61 0 -89 55t-28 170l-8 -1q-48 -127 -66 -214q-59 0 -81 14.5t-22 50.5q0 58 43 186.5t80 216t71 162.5q-10 29 -35.5 50t-63.5 21q-61 0 -96 -56.5
t-65 -205.5q47 -10 128 -10q0 -39 -48 -39q-25 0 -48 -1.5t-33 -3.5l-11 -2q-81 -334 -165.5 -471.5t-212.5 -137.5q-110 0 -110 81q0 34 20 54.5t54 20.5q20 0 33.5 -7.5t17.5 -14.5l4 -7q-4 -2 -9.5 -5.5t-15 -17.5t-9.5 -31q0 -39 37 -39q40 0 72.5 51.5t70 171
t94.5 355.5q-61 4 -108 4q0 39 42 39q24 0 43.5 3t26.5 7l8 3q20 87 48.5 146.5t65.5 92t77 45.5t91 13q80 0 126 -24q26 3 58 9.5t39 6.5q23 0 23 -18q0 -2 -41.5 -82.5t-99 -217t-88.5 -257.5l9 -5q2 6 5 16.5t14 40.5t24 57.5t35 61t46 57.5t57.5 40.5t69.5 16.5
q43 0 65 -20t22 -55zM515 228q167 10 167 106q0 16 -9 25.5t-26 9.5q-61 0 -132 -141z" />
    <glyph glyph-name="f_lcaron" unicode="f&#x13e;" horiz-adv-x="731" 
d="M152 433q-23 -13 -78 -13q-42 0 -42 -39l108 -4q-57 -236 -94.5 -355.5t-70 -171t-72.5 -51.5q-37 0 -37 39q0 17 8.5 30.5t17.5 18.5l8 5q-1 3 -4 8t-17 13t-34 8q-34 0 -54 -20.5t-20 -54.5q0 -81 110 -81q128 0 212.5 137.5t165.5 471.5q35 7 100 7q48 0 48 39
q-40 0 -74 2.5t-48 5.5l-14 2q30 149 65 205.5t96 56.5q41 0 67 -24t34 -55q-192 -439 -192 -544q0 -49 22 -68.5t67 -19.5q95 0 140 101q16 32 16 55t-26 23q-14 -51 -38.5 -87t-49.5 -36q-26 0 -26 31q0 56 59 210t118.5 287t59.5 138q0 19 -22 19q-5 0 -18.5 -3.5
t-34.5 -8.5t-41 -8q-50 28 -133 28q-51 0 -91 -13t-77 -45.5t-65.5 -92t-48.5 -146.5zM642 471l38 -25q11 14 28.5 38t53 92t49.5 128q-46 -14 -109 -14q-9 -47 -24 -102t-26 -86z" />
    <glyph glyph-name="f_t" unicode="ft" horiz-adv-x="653" 
d="M32 381l108 -4q-79 -328 -128 -453t-108 -125q-38 0 -38 40q0 16 8.5 29.5t17.5 18.5l8 5q-1 3 -4 8t-17 13t-34 8q-35 0 -54.5 -21.5t-19.5 -53.5q0 -41 29.5 -61t78.5 -20q126 0 214.5 137t166.5 473q36 7 75 7q29 0 52 -1.5t31 -2.5l9 -2q-4 -11 -19 -52t-21 -58.5
t-17.5 -53t-17 -56t-10 -45.5t-4.5 -43q0 -48 25.5 -67.5t76.5 -19.5q91 0 134 62q33 46 33 83q0 27 -29 27q-38 -120 -101 -120q-31 0 -31 36q0 33 23.5 110t47.5 137l24 61q69 5 105 5q56 0 56 39q-44 0 -79 2.5t-49 4.5l-13 2q12 30 26 61.5t22 48.5l8 16q-12 16 -50 16
q-35 0 -52.5 -13t-27.5 -36l-28 -70q-9 -20 -24.5 -26.5t-60.5 -6.5q-28 0 -54 2t-38 4l-11 2q30 146 56 204.5t55 58.5t29 -37q0 -31 -21 -59q12 -12 36 -12q33 0 52.5 18.5t19.5 51.5q0 77 -101 77q-82 0 -143.5 -65t-101.5 -232q-22 -13 -78 -13q-42 0 -42 -39z" />
    <glyph glyph-name="f_f_b" unicode="ffb" horiz-adv-x="1086" 
d="M960 432q42 0 68 -27.5t26 -81.5q0 -135 -79.5 -238.5t-206.5 -103.5q-129 0 -129 101q0 149 196 534q-8 30 -35 53t-73 23q-61 0 -96 -56.5t-65 -205.5q47 -10 136 -10q0 -39 -48 -39q-29 0 -54 -1.5t-36 -3.5l-10 -2q-82 -341 -157.5 -470t-204.5 -129q-98 0 -98 73
q0 27 17.5 45t45.5 18q17 0 29 -6.5t16 -13.5l3 -7q-3 -1 -8 -3.5t-13.5 -13.5t-8.5 -26q0 -37 37 -37q58 0 97 104.5t126 468.5q-60 4 -96 4q-20 0 -40 -1.5t-30 -3.5l-10 -2q-79 -326 -170 -467.5t-212 -141.5q-49 0 -77.5 20t-28.5 61q0 34 20 54.5t54 20.5
q20 0 33.5 -7.5t17.5 -14.5l4 -7q-4 -2 -9.5 -5.5t-15 -17.5t-9.5 -31q0 -39 37 -39q40 0 72.5 51.5t70 171t94.5 355.5q-61 4 -108 4q0 39 42 39q24 0 43.5 3t26.5 7l8 3q15 70 40 122t52.5 81t63 46.5t65.5 22.5t66 5q74 0 132 -29q60 49 158 49q81 0 140 -24q21 3 42.5 7
t35.5 6.5t20 2.5q18 0 18 -19q0 -9 -20.5 -46t-73 -142.5t-111.5 -241.5l7 -12q44 95 82.5 133t90.5 38zM368 420q25 0 44.5 3t27.5 7l7 3q29 126 76 194q-30 45 -89 45q-40 0 -67.5 -18t-52.5 -72.5t-43 -151.5q43 -10 97 -10zM782 19q32 0 68.5 44.5t62 117.5t25.5 145
q0 61 -27 61q-24 0 -63 -57.5t-68.5 -135.5t-29.5 -129q0 -46 32 -46z" />
    <glyph glyph-name="f_f_h" unicode="ffh" horiz-adv-x="1139" 
d="M1082 160q26 0 26 -23q0 -22 -13 -52q-10 -21 -19.5 -36t-26 -32.5t-41.5 -26.5t-56 -9q-85 0 -85 78q0 51 43.5 159.5t43.5 127.5q0 22 -19 22q-41 0 -101 -115t-100 -262q-59 0 -81 14t-22 48q0 56 43.5 186t80 218t70.5 165q-11 28 -35.5 49t-62.5 21q-61 0 -96 -56.5
t-65 -205.5q47 -10 136 -10q0 -39 -48 -39q-29 0 -54 -1.5t-36 -3.5l-10 -2q-82 -341 -157.5 -470t-204.5 -129q-98 0 -98 73q0 27 17.5 45t45.5 18q17 0 29 -6.5t16 -13.5l3 -7q-3 -1 -8 -3.5t-13.5 -13.5t-8.5 -26q0 -37 37 -37q58 0 97 104.5t126 468.5q-60 4 -96 4
q-20 0 -40 -1.5t-30 -3.5l-10 -2q-79 -326 -170 -467.5t-212 -141.5q-49 0 -77.5 20t-28.5 61q0 34 20 54.5t54 20.5q20 0 33.5 -7.5t17.5 -14.5l4 -7q-4 -2 -9.5 -5.5t-15 -17.5t-9.5 -31q0 -39 37 -39q40 0 72.5 51.5t70 171t94.5 355.5q-61 4 -108 4q0 39 42 39
q24 0 43.5 3t26.5 7l8 3q15 70 40 122t52.5 81t63 46.5t65.5 22.5t66 5q74 0 132 -29q60 49 158 49q79 0 127 -25q20 3 41.5 7.5t34.5 7t19 2.5q23 0 23 -19q0 -1 -43 -87.5t-100.5 -223t-85.5 -245.5l9 -5q4 12 11 31.5t31 69.5t50 88t67 69.5t84 31.5q36 0 56.5 -19
t20.5 -49q0 -36 -52 -149t-52 -148q0 -30 26 -30t49 35.5t37 87.5zM368 420q25 0 44.5 3t27.5 7l7 3q29 126 76 194q-30 45 -89 45q-40 0 -67.5 -18t-52.5 -72.5t-43 -151.5q43 -10 97 -10z" />
    <glyph glyph-name="f_f_dotlessi" unicode="ff&#x131;" horiz-adv-x="886" 
d="M829 160q-34 -123 -85 -123q-24 0 -24 29q0 38 53.5 154t53.5 150q0 28 -20.5 45t-58.5 17l-182 -4q30 146 56 204.5t54 58.5q29 0 29 -36q0 -35 -21 -60q14 -12 37 -12q32 0 52 19t20 51q0 77 -100 77q-75 0 -127 -47q-59 27 -127 27q-36 0 -66 -5t-65.5 -22.5
t-63 -46.5t-52.5 -81t-40 -122q-23 -13 -78 -13q-42 0 -42 -39l108 -4q-57 -236 -94.5 -355.5t-70 -171t-72.5 -51.5q-37 0 -37 39q0 17 8.5 30.5t17.5 18.5l8 5q-1 3 -4 8t-17 13t-34 8q-34 0 -54 -20.5t-20 -54.5q0 -41 28.5 -61t77.5 -20q121 0 212 141.5t170 467.5
q34 7 80 7l96 -4q-85 -352 -113 -435q-40 -117 -87 -134q-10 -4 -22 -4q-38 0 -38 37q0 15 7.5 25.5t15.5 13.5l7 4q-10 27 -48 27q-28 0 -45.5 -18.5t-17.5 -44.5q0 -73 99 -73q85 0 144.5 55.5t111 183.5t106.5 361q72 6 135 6q23 0 23 -21q0 -22 -49 -137t-49 -165
q0 -77 87 -77q93 0 136 95q17 39 17 64q0 20 -26 20zM447 433q-23 -13 -92 -13q-19 0 -40 2.5t-33 5.5l-11 2q18 97 43 151.5t52.5 72.5t67.5 18q58 0 88 -43q-45 -70 -75 -196z" />
    <glyph glyph-name="f_f_ij" unicode="ff&#x133;" horiz-adv-x="1158" 
d="M831 84q-23 -54 -56.5 -78.5t-82.5 -24.5q-87 0 -87 77q0 50 49 165t49 137q0 21 -23 21l-125 -6q-83 -343 -159 -471.5t-204 -128.5q-98 0 -98 72q0 29 18 46.5t45 17.5q17 0 29 -6.5t16 -13.5l3 -7q-3 -1 -8 -3.5t-13.5 -13.5t-8.5 -26q0 -37 39 -37q58 0 96 106
t125 467q-61 4 -96 4q-20 0 -40 -1.5t-30 -3.5l-10 -2q-79 -326 -170 -467.5t-212 -141.5q-49 0 -77.5 20t-28.5 61q0 34 20 54.5t54 20.5q20 0 33.5 -7.5t17.5 -14.5l4 -7q-4 -2 -9.5 -5.5t-15 -17.5t-9.5 -31q0 -39 37 -39q40 0 72.5 51.5t70 171t94.5 355.5q-61 4 -108 4
q0 39 42 39q24 0 43.5 3t26.5 7l8 3q15 70 40 122t52.5 81t63 46.5t65.5 22.5t66 5q78 0 131 -29q58 49 155 49q77 0 116 -28.5t39 -77.5q0 -41 -24 -64.5t-67 -23.5q-20 0 -35 6t-20 12l-4 7q5 3 12.5 8t20.5 25t13 44q0 26 -14.5 40t-40.5 14q-105 0 -155 -264q76 4 172 4
q38 0 58.5 -17t20.5 -45q0 -34 -53.5 -150t-53.5 -154q0 -29 26 -29q49 0 83 123q26 0 26 -23q0 -22 -14 -53zM1141 676q30 0 44 -17t14 -40q0 -38 -23.5 -60.5t-61.5 -22.5q-59 0 -59 54q0 38 23.5 62t62.5 24zM355 420q31 0 54 3t31 7l7 3q28 124 76 195q-31 44 -89 44
q-40 0 -67.5 -18t-52.5 -72.5t-43 -151.5q42 -10 84 -10zM1063 432q42 0 63 -17.5t21 -44.5q0 -19 -21 -81t-57 -159t-56 -162q-33 -100 -88 -151.5t-141 -51.5q-53 0 -84.5 22t-31.5 64q0 36 20 57t56 21q20 0 34 -8.5t18 -16.5l5 -8q-36 -21 -36 -58q0 -38 33 -38
q32 0 54 34t54 135q16 51 53 161.5t53 162.5t16 66q0 20 -18 20q-47 0 -86 -122q-26 0 -26 22q0 23 15 53q21 48 55 74t95 26z" />
    <glyph glyph-name="f_f_j" unicode="ffj" horiz-adv-x="821" 
d="M722 561q5 3 12.5 8t20.5 25t13 44q0 54 -56 54q-106 0 -155 -264q82 4 182 4q42 0 63 -17.5t21 -44.5q0 -20 -18 -79t-54 -163.5t-54 -159.5q-31 -97 -83 -142.5t-134 -45.5q-101 0 -101 68q0 32 19 50t50 18q28 0 41 -13.5t13 -29.5q-38 0 -38 -38q0 -26 27 -26
t47.5 31.5t51.5 128.5q113 351 113 389q0 23 -21 23l-135 -6q-83 -341 -159.5 -470.5t-202.5 -129.5q-99 0 -99 75q0 26 17 43.5t43 17.5q18 0 30.5 -6.5t15.5 -13.5l4 -7q-29 -12 -29 -41q0 -39 37 -39q20 0 36 10t33 38.5t31.5 66.5t34.5 108.5t39.5 148.5t48.5 201
q-62 4 -97 4q-16 0 -34 -1.5t-28 -3.5l-9 -2q-79 -326 -170 -467.5t-212 -141.5q-49 0 -77.5 20t-28.5 61q0 34 20 54.5t54 20.5q20 0 33.5 -7.5t17.5 -14.5l4 -7q-4 -2 -9.5 -5.5t-15 -17.5t-9.5 -31q0 -39 37 -39q40 0 72.5 51.5t70 171t94.5 355.5q-61 4 -108 4
q0 39 42 39q24 0 43.5 3t26.5 7l8 3q15 70 40 122t52.5 81t63 46.5t65.5 22.5t66 5q74 0 126 -26q58 46 151 46q78 0 117 -28.5t39 -77.5q0 -41 -24 -64.5t-67 -23.5q-20 0 -35 6t-20 12zM346 420q31 0 54 3t30 7l8 3q30 131 80 201q-31 38 -84 38q-40 0 -67.5 -18
t-52.5 -72.5t-43 -151.5q34 -10 75 -10z" />
    <glyph glyph-name="f_f_k" unicode="ffk" horiz-adv-x="1109" 
d="M1093 357q0 -114 -199 -141q2 -86 19 -132t42 -46q26 0 46 32.5t30 88.5q30 0 30 -29q0 -45 -35.5 -97t-99.5 -52q-61 0 -89 55t-28 170l-8 -1q-48 -127 -66 -214q-59 0 -81 14.5t-22 50.5q0 58 43 186.5t80 216t71 162.5q-10 29 -35.5 50t-63.5 21q-61 0 -96 -56.5
t-65 -205.5q47 -10 136 -10q0 -39 -48 -39q-29 0 -54 -1.5t-36 -3.5l-10 -2q-82 -341 -157.5 -470t-204.5 -129q-98 0 -98 73q0 27 17.5 45t45.5 18q17 0 29 -6.5t16 -13.5l3 -7q-3 -1 -8 -3.5t-13.5 -13.5t-8.5 -26q0 -37 37 -37q58 0 97 104.5t126 468.5q-60 4 -96 4
q-20 0 -40 -1.5t-30 -3.5l-10 -2q-79 -326 -170 -467.5t-212 -141.5q-49 0 -77.5 20t-28.5 61q0 34 20 54.5t54 20.5q20 0 33.5 -7.5t17.5 -14.5l4 -7q-4 -2 -9.5 -5.5t-15 -17.5t-9.5 -31q0 -39 37 -39q40 0 72.5 51.5t70 171t94.5 355.5q-61 4 -108 4q0 39 42 39
q24 0 43.5 3t26.5 7l8 3q15 70 40 122t52.5 81t63 46.5t65.5 22.5t66 5q74 0 132 -29q60 49 158 49q80 0 126 -24q25 3 57 9.5t40 6.5q23 0 23 -18q0 -2 -41.5 -82.5t-99 -217t-88.5 -257.5l9 -5q2 6 5 16.5t14 40.5t24 57.5t35 61t46 57.5t57.5 40.5t69.5 16.5
q42 0 64.5 -20t22.5 -55zM368 420q25 0 44.5 3t27.5 7l7 3q29 126 76 194q-30 45 -89 45q-40 0 -67.5 -18t-52.5 -72.5t-43 -151.5q43 -10 97 -10zM810 228q167 10 167 106q0 35 -36 35q-61 0 -131 -141z" />
    <glyph glyph-name="T_h" unicode="Th" horiz-adv-x="1032" 
d="M224 629l156 -1q-43 -147 -106 -319t-106 -267q-30 -13 -128 -13q0 -33 34 -33q22 0 76 2t80 2t89 -2t85 -2q40 0 40 33q-45 0 -79.5 3.5t-46.5 6.5l-12 3q120 385 209 586q3 0 88 1t117 1q-196 -463 -196 -576q0 -35 22 -49t81 -14q39 148 99.5 262.5t102.5 114.5
q18 0 18 -22q0 -19 -43.5 -127.5t-43.5 -159.5q0 -78 84 -78q41 0 72 18t44.5 37.5t27.5 48.5q13 30 13 52q0 23 -26 23q-14 -52 -37 -87.5t-49 -35.5t-26 30q0 35 52 148t52 149q0 30 -20.5 49t-53.5 19q-44 0 -85 -30t-69 -72.5t-50 -85t-32 -72.5l-10 -30l-10 5
q29 109 86.5 245.5t100.5 223t43 87.5q0 19 -21 19q-6 0 -36.5 -11.5t-99 -23t-166.5 -11.5h-103q-88 0 -164.5 3t-109.5 7l-33 3q-5 -35 -26 -100t-21 -88q0 -8 6.5 -14.5t16.5 -6.5l22 4q17 74 38 109.5t54 35.5z" />
    <glyph glyph-name="Tcaron_h" unicode="&#x164;h" horiz-adv-x="1032" 
d="M454 726h35q27 40 68.5 71t85.5 31q5 10 5 27t-11.5 27t-31.5 10q-24 0 -44.5 -12.5t-37 -36.5t-25 -39t-19.5 -40q0 21 -3 40.5t-10.5 41t-23 34t-38.5 12.5t-38 -17t-15 -47q43 0 69.5 -29.5t33.5 -72.5zM224 629l156 -1q-43 -147 -106 -319t-106 -267
q-30 -13 -128 -13q0 -33 34 -33q22 0 76 2t80 2t89 -2t85 -2q40 0 40 33q-45 0 -79.5 3.5t-46.5 6.5l-12 3q120 385 209 586q3 0 88 1t117 1q-196 -463 -196 -576q0 -35 22 -49t81 -14q39 148 99.5 262.5t102.5 114.5q18 0 18 -22q0 -19 -43.5 -127.5t-43.5 -159.5
q0 -78 84 -78q41 0 72 18t44.5 37.5t27.5 48.5q13 30 13 52q0 23 -26 23q-14 -52 -37 -87.5t-49 -35.5t-26 30q0 35 52 148t52 149q0 30 -20.5 49t-53.5 19q-44 0 -85 -30t-69 -72.5t-50 -85t-32 -72.5l-10 -30l-10 5q29 109 86.5 245.5t100.5 223t43 87.5q0 19 -21 19
q-6 0 -36.5 -11.5t-99 -23t-166.5 -11.5h-103q-88 0 -164.5 3t-109.5 7l-33 3q-5 -35 -26 -100t-21 -88q0 -8 6.5 -14.5t16.5 -6.5l22 4q17 74 38 109.5t54 35.5z" />
    <glyph glyph-name="uni021A_h" unicode="&#x21a;h" horiz-adv-x="1032" 
d="M380 628q-43 -147 -106 -319t-106 -267q-30 -13 -128 -13q0 -33 34 -33q22 0 76 2t80 2t89 -2t85 -2q40 0 40 33q-45 0 -79.5 3.5t-46.5 6.5l-12 3q120 385 209 586q3 0 88 1t117 1q-196 -463 -196 -576q0 -35 22 -49t81 -14q39 148 99.5 262.5t102.5 114.5q18 0 18 -22
q0 -19 -43.5 -127.5t-43.5 -159.5q0 -78 84 -78q41 0 72 18t44.5 37.5t27.5 48.5q13 30 13 52q0 23 -26 23q-14 -52 -37 -87.5t-49 -35.5t-26 30q0 35 52 148t52 149q0 30 -20.5 49t-53.5 19q-44 0 -85 -30t-69 -72.5t-50 -85t-32 -72.5l-10 -30l-10 5q29 109 86.5 245.5
t100.5 223t43 87.5q0 19 -21 19q-6 0 -36.5 -11.5t-99 -23t-166.5 -11.5h-103q-88 0 -164.5 3t-109.5 7l-33 3q-5 -35 -26 -100t-21 -88q0 -8 6.5 -14.5t16.5 -6.5l22 4q17 74 38 109.5t54 35.5zM104 -233l8 -26q67 1 116 41t49 111q0 66 -61 66q-35 0 -58.5 -22t-23.5 -55
q0 -22 13.5 -35t35.5 -13q14 0 25 4t15 8l4 5q-10 -44 -45.5 -63.5t-77.5 -20.5z" />
    <glyph glyph-name="f_f_lcaron" unicode="ff&#x13e;" horiz-adv-x="1026" 
d="M855 160q26 0 26 -23q0 -19 -16 -55q-45 -101 -140 -101q-45 0 -67 19.5t-22 68.5q0 105 192 544q-8 31 -34 55t-67 24q-61 0 -96 -56.5t-65 -205.5q47 -10 136 -10q0 -39 -48 -39q-29 0 -54 -1.5t-36 -3.5l-10 -2q-82 -341 -157.5 -470t-204.5 -129q-98 0 -98 73
q0 27 17.5 45t45.5 18q17 0 29 -6.5t16 -13.5l3 -7q-3 -1 -8 -3.5t-13.5 -13.5t-8.5 -26q0 -37 37 -37q58 0 97 104.5t126 468.5q-60 4 -96 4q-20 0 -40 -1.5t-30 -3.5l-10 -2q-79 -326 -170 -467.5t-212 -141.5q-49 0 -77.5 20t-28.5 61q0 34 20 54.5t54 20.5
q20 0 33.5 -7.5t17.5 -14.5l4 -7q-4 -2 -9.5 -5.5t-15 -17.5t-9.5 -31q0 -39 37 -39q40 0 72.5 51.5t70 171t94.5 355.5q-61 4 -108 4q0 39 42 39q24 0 43.5 3t26.5 7l8 3q15 70 40 122t52.5 81t63 46.5t65.5 22.5t66 5q74 0 132 -29q60 49 158 49q83 0 133 -28q19 3 40.5 8
t35 8.5t18.5 3.5q22 0 22 -19q0 -5 -59 -138t-118.5 -287t-59.5 -210q0 -31 26 -31q25 0 49.5 36t38.5 87zM997 690q28 0 55.5 3.5t40.5 6.5l13 4q-15 -60 -47.5 -124.5t-58.5 -99.5l-25 -34l-38 25q40 113 60 219zM368 420q25 0 44.5 3t27.5 7l7 3q29 126 76 194
q-30 45 -89 45q-40 0 -67.5 -18t-52.5 -72.5t-43 -151.5q43 -10 97 -10z" />
    <glyph glyph-name=".notdef" horiz-adv-x="550" 
d="M490 730v-730h-430v730h430zM275 410l142 285h-284zM100 671v-612l153 306zM450 59v612l-153 -306zM133 35h284l-142 285z" />
    <glyph glyph-name=".null" horiz-adv-x="0" 
 />
    <glyph glyph-name="nonmarkingreturn" horiz-adv-x="333" 
 />
    <glyph glyph-name="CR" unicode="&#xd;" horiz-adv-x="284" 
 />
    <glyph glyph-name="space" unicode=" " horiz-adv-x="240" 
 />
    <glyph glyph-name="exclam" unicode="!" horiz-adv-x="344" 
d="M226 236q-35 0 -35 39q0 32 25.5 82.5t56 96t56 99.5t25.5 93q0 38 -21 59.5t-61 21.5q-29 0 -48.5 -13.5t-23.5 -26.5l-5 -13q2 0 5 -1t11 -5.5t14 -10.5t11 -17.5t5 -25.5q0 -30 -62.5 -164.5t-62.5 -184.5q0 -63 57 -63q19 0 32.5 8.5t16.5 17.5zM40 43q0 -58 58 -58
q40 0 66 26.5t26 65.5q0 25 -15 41.5t-43 16.5q-38 0 -65 -27.5t-27 -64.5z" />
    <glyph glyph-name="quotedbl" unicode="&#x22;" horiz-adv-x="330" 
d="M35 471l27 -24q5 3 13 10t28.5 30.5t36.5 51t30 72.5t15 93q-42 -14 -105 -14q0 -70 -11 -124.5t-23 -74.5zM191 471l27 -24q5 3 13 10t28 30.5t36 51t30 72.5t15 93q-41 -14 -104 -14q0 -70 -11 -124.5t-23 -74.5z" />
    <glyph glyph-name="numbersign" unicode="#" horiz-adv-x="680" 
d="M499 281l-55 -142h130l-25 -60h-128l-53 -136h-66l53 136h-125l-53 -136h-67l53 136h-133l23 60h133l55 142h-136l24 60h136l47 122h67l-47 -122h125l47 122h66l-47 -122h127l-26 -60h-125zM433 281h-125l-55 -142h125z" />
    <glyph glyph-name="dollar" unicode="$" horiz-adv-x="564" 
d="M361 285q28 20 28 60q0 53 -42 66l-51 -168q31 -17 46.5 -27t36.5 -27.5t30.5 -37.5t9.5 -45q0 -126 -195 -130l-39 -143l-40 7l39 137q-124 9 -124 97q0 37 23.5 60.5t59.5 23.5q14 0 25.5 -5t15.5 -9l5 -5q-34 -24 -34 -69q0 -44 39 -56l48 161q-56 29 -86.5 60.5
t-30.5 79.5q0 134 194 135l40 141l39 -6l-38 -137q65 -6 94.5 -35t29.5 -72q0 -32 -20 -53t-57 -21q-16 0 -27.5 4.5t-15.5 8.5zM264 262l45 154q-37 -2 -61 -24.5t-24 -62.5q0 -23 8.5 -37.5t31.5 -29.5zM320 86q0 41 -45 70l-42 -147q39 1 63 20t24 57z" />
    <glyph glyph-name="percent" unicode="%" horiz-adv-x="796" 
d="M694 617l-574 -642l-22 42l574 642zM84 429q0 -60 32.5 -90t90.5 -30q86 0 144.5 61.5t58.5 165.5q0 53 -31 83t-95 30q-85 0 -142.5 -58.5t-57.5 -161.5zM172 422q0 91 32.5 145t70.5 54q45 0 45 -82q0 -76 -31.5 -135.5t-70.5 -59.5q-46 0 -46 78zM385 105
q0 -60 33 -90t91 -30q86 0 144.5 61.5t58.5 165.5q0 53 -31 83t-95 30q-85 0 -143 -58.5t-58 -161.5zM474 98q0 91 32.5 145t70.5 54q45 0 45 -82q0 -76 -31.5 -135.5t-70.5 -59.5q-46 0 -46 78z" />
    <glyph glyph-name="ampersand" unicode="&#x26;" horiz-adv-x="911" 
d="M547 407q24 -18 38 -45q-119 -30 -176.5 -69t-57.5 -97q0 -39 23 -59t64 -20q47 0 77 22.5t30 64.5q0 24 -14.5 37.5t-37.5 13.5q-10 0 -18.5 -3.5t-11.5 -7.5l-3 -4q25 -10 25 -40q0 -45 -46 -45q-45 0 -45 46q0 44 54 77.5t152 50.5q16 -23 16 -79q0 -117 -70.5 -174.5
t-200.5 -57.5q-90 0 -129 33t-39 108q0 81 47.5 130.5t127.5 61.5q35 5 50.5 16t15.5 32q-19 -10 -49 -10q-91 0 -91 101q0 76 42 120.5t106 44.5q46 0 65.5 -19t19.5 -55q0 -29 -17.5 -49t-35.5 -26l-18 -5q1 -3 4.5 -8t20 -13.5t39.5 -8.5q43 0 72.5 25.5t29.5 74.5
q0 57 -42 88t-124 31q-134 0 -202.5 -56.5t-68.5 -139.5q0 -64 36.5 -94t85.5 -35q-41 -5 -80.5 -19t-78.5 -39t-63 -67t-24 -96q0 -90 67.5 -131t215.5 -41q194 0 298 83t104 219q0 24 -4 43.5t-8 26.5l-3 8q154 43 212.5 86.5t58.5 115.5q0 34 -20 56.5t-53 22.5
q-19 0 -32 -7.5t-17 -14.5l-3 -7q4 -1 11 -4t18 -20t11 -41q0 -61 -48.5 -96t-152.5 -59q-3 5 -10 13.5t-32 22t-56 13.5q-19 0 -33 -6.5t-18 -12.5z" />
    <glyph glyph-name="quotesingle" unicode="'" horiz-adv-x="175" 
d="M35 471l27 -24q5 3 13 10t28.5 30.5t36.5 51t30 72.5t15 93q-42 -14 -105 -14q0 -70 -11 -124.5t-23 -74.5z" />
    <glyph glyph-name="parenleft" unicode="(" horiz-adv-x="387" 
d="M587 736l-21 29q-72 0 -143.5 -25.5t-136.5 -79t-115.5 -127t-80.5 -176.5t-30 -222q0 -112 28 -197t73.5 -131t96 -68.5t103.5 -22.5l26 28q-33 0 -68.5 19.5t-70 60.5t-57 118.5t-22.5 178.5q0 140 38.5 259.5t99.5 195t134.5 118t145.5 42.5z" />
    <glyph glyph-name="parenright" unicode=")" horiz-adv-x="377" 
d="M-210 -255l21 -29q72 0 143.5 25.5t136.5 79t115.5 127t80.5 176.5t30 222q0 112 -28 197t-73.5 131t-96 68.5t-103.5 22.5l-26 -28q33 0 68.5 -19.5t70 -60.5t57 -118.5t22.5 -178.5q0 -140 -38.5 -259.5t-99.5 -195t-134.5 -118t-145.5 -42.5z" />
    <glyph glyph-name="asterisk" unicode="*" horiz-adv-x="381" 
d="M248 714q-54 0 -54 -65q0 -20 3.5 -41t6.5 -32l4 -11h5q8 7 19.5 19.5t31 43.5t19.5 54q0 32 -35 32zM50 595q0 -26 32 -34.5t115 -8.5l2 5q-2 3 -5.5 8.5t-14 20t-22 25t-27.5 19.5t-32 9q-21 0 -34.5 -12t-13.5 -32zM371 583q0 32 -34 32q-21 0 -50.5 -14.5
t-48.5 -28.5l-19 -15v-5q30 -14 84 -14q68 0 68 45zM107 418q32 0 55.5 31t31.5 62l8 31l-3 3q-5 -1 -13.5 -3.5t-30.5 -11.5t-39 -19t-30.5 -26.5t-13.5 -34.5q0 -32 35 -32zM265 412q38 0 38 38q0 24 -21.5 47.5t-43.5 34.5l-22 12l-4 -2q0 -70 11.5 -100t41.5 -30z" />
    <glyph glyph-name="plus" unicode="+" horiz-adv-x="452" 
d="M201 62h-61l44 138h-124l18 58h125l46 138h62l-46 -138h127l-18 -58h-127z" />
    <glyph glyph-name="comma" unicode="," horiz-adv-x="187" 
d="M-30 -127l10 -27q29 3 59 15.5t60 36t49 65.5t19 95q0 73 -66 73q-37 0 -62 -26.5t-25 -65.5q0 -27 14.5 -40t38.5 -13q13 0 24.5 4t16.5 8l5 5q-14 -64 -57 -94.5t-86 -35.5z" />
    <glyph glyph-name="hyphen" unicode="-" horiz-adv-x="358" 
d="M293 195l15 68h-243l-15 -68h243z" />
    <glyph glyph-name="period" unicode="." horiz-adv-x="190" 
d="M20 43q0 -58 58 -58q40 0 66 26.5t26 65.5q0 25 -15 41.5t-43 16.5q-38 0 -65 -27.5t-27 -64.5z" />
    <glyph glyph-name="slash" unicode="/" horiz-adv-x="383" 
d="M523 740l-596 -1000h-67l596 1000h67z" />
    <glyph glyph-name="zero" unicode="0" horiz-adv-x="514" 
d="M40 179q0 -198 192 -198q120 0 181 71t61 185q0 88 -46 141.5t-141 53.5q-119 0 -183 -70.5t-64 -182.5zM134 184q0 73 38 115.5t106 42.5q107 -1 107 -114q0 -73 -35.5 -116t-105.5 -43q-110 0 -110 115z" />
    <glyph glyph-name="one" unicode="1" horiz-adv-x="462" 
d="M428 444q-118 -41 -272 -41q-46 0 -46 -43l138 4q-56 -182 -112 -324q-58 -11 -126 -11q0 -18 6.5 -25.5t22.5 -7.5q13 0 75.5 2t85.5 2q6 0 84.5 -2t89.5 -2q29 0 29 33q-24 0 -59 2.5t-58 5.5l-24 3q18 52 41.5 124t41 122t35.5 93q20 6 35.5 11.5t20.5 8.5l6 3
q0 12 -3.5 22.5t-6.5 15.5z" />
    <glyph glyph-name="two" unicode="2" horiz-adv-x="586" 
d="M199 137l-169 -77q0 -63 62 -63q11 0 69 1.5t106 1.5l213 -5q7 30 26.5 78.5t19.5 62.5q0 24 -30 24q-15 -47 -31.5 -63t-49.5 -16h-250v5l101 34q138 47 190 84t52 105q0 123 -205 123q-111 0 -165.5 -43.5t-54.5 -106.5q0 -39 21 -59t56 -20q28 0 46 10.5t22 20.5l5 11
q-4 1 -11 4.5t-18 18.5t-11 37q0 42 25 66.5t71 24.5q89 0 89 -87q0 -55 -39 -90t-140 -82z" />
    <glyph glyph-name="three" unicode="3" horiz-adv-x="555" 
d="M264 362l-76 -43q0 -9 5.5 -15t13.5 -6q10 0 31 12.5t44 12.5q68 0 68 -102q0 -97 -40 -149t-100 -52q-67 0 -67 66q0 20 8.5 37.5t16.5 24.5l9 7l-5.5 11t-20 18t-39.5 11q-36 0 -59 -25t-23 -63q0 -126 169 -126q120 0 194.5 66.5t74.5 178.5q0 61 -32 95t-91 34
q-11 0 -22 -1.5t-16 -3.5l-5 -1v5q125 44 174 88t49 109q0 57 -41.5 91t-129.5 34q-92 0 -143 -37t-51 -98q0 -37 22 -60t60 -23q25 0 41.5 9t20.5 18l5 9q-5 1 -12.5 4.5t-20 20.5t-12.5 41q0 39 22.5 60t56.5 21q72 0 72 -86q0 -57 -32.5 -101t-118.5 -92z" />
    <glyph glyph-name="four" unicode="4" horiz-adv-x="594" 
d="M10 75q0 -78 72 -78q10 0 72.5 1.5t126.5 1.5q-21 -57 -42 -111.5t-32 -80.5l-11 -25q34 0 64 1.5t43 3.5l13 2q43 141 67 210l123 -4q3 16 20.5 66.5t17.5 66.5q0 26 -28 26q-8 -41 -21 -60t-34 -19h-55l83 206q-54 -32 -124 -42l-60 -164h-227q320 171 320 350
q0 40 -21.5 66t-64.5 26q-23 0 -40 -10.5t-22 -21.5l-5 -10q5 -3 12.5 -8.5t19.5 -29t12 -52.5q0 -38 -10.5 -70t-39.5 -70t-85.5 -80t-143.5 -91z" />
    <glyph glyph-name="five" unicode="5" horiz-adv-x="564" 
d="M463 420h-273q-84 -310 -84 -326q8 -8 21 -8q8 0 44.5 22.5t75.5 22.5q84 0 84 -114q0 -95 -39 -151.5t-96 -56.5q-63 0 -63 62q0 22 8 39t16 24l8 6q-1 4 -4.5 9t-19.5 14t-39 9q-36 0 -59 -24t-23 -65q0 -59 42.5 -87.5t114.5 -28.5q133 0 202.5 70t69.5 175
q0 162 -176 162q-29 0 -54 -5t-35 -10l-10 -5l55 176l282 -5q7 30 17 63t15.5 52t5.5 29q0 25 -31 25q-14 -74 -55 -74z" />
    <glyph glyph-name="six" unicode="6" horiz-adv-x="594" 
d="M247 255q1 25 22 49.5t58 24.5q73 0 73 -103q0 -97 -35 -149.5t-88 -52.5q-89 0 -89 181q0 190 96.5 308.5t249.5 118.5q41 0 69.5 -10t36.5 -20l8 -9q3 1 8.5 3t14 10.5t8.5 19.5q0 50 -132 50q-214 0 -345.5 -135t-131.5 -341q0 -119 48.5 -169t148.5 -50q112 0 178 69
t66 176q0 68 -40 104.5t-112 36.5q-65 0 -101 -29.5t-36 -59.5q0 -23 25 -23z" />
    <glyph glyph-name="seven" unicode="7" horiz-adv-x="523" 
d="M89 248q9 49 21.5 67.5t35.5 18.5h260q-187 -166 -271.5 -271.5t-84.5 -203.5q0 -93 87 -93q75 0 85 71q-25 0 -40.5 14.5t-15.5 40.5q0 109 96 232t281 278q0 29 -24 29q-5 0 -32.5 -2.5t-77 -4.5t-108.5 -2q-52 0 -106 2.5t-81 5.5l-28 2q-3 -26 -17.5 -84.5
t-14.5 -73.5q0 -26 35 -26z" />
    <glyph glyph-name="eight" unicode="8" horiz-adv-x="587" 
d="M246 296q0 20 -23 20q-60 0 -116.5 -50t-56.5 -133q0 -152 196 -152q112 0 174 49.5t62 135.5q0 44 -21.5 84t-52 71t-61 61t-52 67.5t-21.5 78.5q0 52 28 80.5t69 28.5q98 0 98 -116q0 -110 -85 -135q0 -17 26 -17q62 0 107 42t45 120q0 65 -45 105t-141 40
q-99 0 -152.5 -46.5t-53.5 -128.5q0 -48 20.5 -89t50 -70.5t59 -58t50 -64.5t20.5 -76q0 -59 -31.5 -89t-83.5 -30q-50 0 -76.5 30t-26.5 85q0 58 27 102t67 55z" />
    <glyph glyph-name="nine" unicode="9" horiz-adv-x="569" 
d="M319 150q-4 -26 -24.5 -47.5t-51.5 -21.5q-73 0 -73 120q0 90 32.5 140.5t81.5 50.5q45 0 71 -42.5t26 -128.5q0 -88 -20.5 -159.5t-53 -117.5t-75.5 -77.5t-86.5 -45t-87.5 -13.5q-25 0 -46 4t-33 10t-20.5 12.5t-11.5 10.5l-3 4q-24 -7 -24 -32q0 -52 126 -52
q200 0 326.5 120t126.5 328q0 219 -210 219q-109 0 -170.5 -63.5t-61.5 -168.5q0 -83 39.5 -121.5t118.5 -38.5q60 0 94.5 29t34.5 59q0 22 -25 22z" />
    <glyph glyph-name="colon" unicode=":" horiz-adv-x="260" 
d="M90 339q0 -58 58 -58q40 0 66 26.5t26 65.5q0 25 -15 41.5t-43 16.5q-38 0 -65 -27.5t-27 -64.5zM10 43q0 -58 58 -58q40 0 66 26.5t26 65.5q0 25 -15 41.5t-43 16.5q-38 0 -65 -27.5t-27 -64.5z" />
    <glyph glyph-name="semicolon" unicode=";" horiz-adv-x="251" 
d="M81 339q0 -58 58 -58q40 0 66 26.5t26 65.5q0 25 -15 41.5t-43 16.5q-38 0 -65 -27.5t-27 -64.5zM-39 -127l9 -27q30 3 60 15.5t60 36t49 65.5t19 95q0 73 -66 73q-37 0 -62.5 -26.5t-25.5 -65.5q0 -26 15 -39.5t39 -13.5q13 0 24.5 4t16.5 8l5 5q-14 -64 -57 -94.5
t-86 -35.5z" />
    <glyph glyph-name="less" unicode="&#x3c;" horiz-adv-x="488" 
d="M399 435l29 -43l-249 -170l190 -176l-61 -66l-228 222l4 18z" />
    <glyph glyph-name="equal" unicode="=" horiz-adv-x="496" 
d="M126 330h310l-21 -62h-310zM81 190h310l-21 -62h-310z" />
    <glyph glyph-name="greater" unicode="&#x3e;" horiz-adv-x="488" 
d="M89 -14l-29 43l249 170l-190 176l61 66l228 -222l-4 -18z" />
    <glyph glyph-name="question" unicode="?" horiz-adv-x="474" 
d="M260 230q-4 1 -10 3t-15.5 13t-9.5 28q0 33 31 62t74.5 52.5t87.5 50.5t75 69.5t31 96.5q0 55 -44 88.5t-128 33.5q-95 0 -155 -43t-60 -113q0 -88 110 -88q55 0 88.5 27.5t33.5 69.5q0 27 -14.5 43t-41.5 16q-16 0 -26.5 -7t-13.5 -14l-3 -7q16 0 27.5 -12t11.5 -33
q0 -53 -50 -53q-42 0 -42 57q0 54 34.5 90.5t87.5 36.5q42 0 66.5 -25.5t24.5 -70.5q0 -46 -30 -86.5t-72.5 -69.5t-85 -56.5t-72.5 -60t-30 -66.5q0 -29 18 -44.5t47 -15.5q18 0 32 7t19 14zM50 43q0 -58 58 -58q40 0 66 26.5t26 65.5q0 25 -15 41.5t-43 16.5
q-38 0 -65 -27.5t-27 -64.5z" />
    <glyph glyph-name="at" unicode="@" horiz-adv-x="987" 
d="M636 420q-37 12 -76 12q-127 0 -220 -96.5t-93 -236.5q0 -62 25.5 -90t76.5 -28q67 0 113 50t96 164l9 -6q-34 -72 -34 -137q0 -71 87 -71q89 0 160.5 54.5t109 139.5t37.5 179q0 117 -75 191.5t-228 74.5q-125 0 -232 -43t-179 -115t-112.5 -166.5t-40.5 -198.5
q0 -83 24.5 -142.5t68.5 -92.5t96.5 -48t117.5 -15q91 0 148.5 34.5t57.5 72.5q-3 -3 -8 -7.5t-23 -16t-38.5 -20.5t-55 -16.5t-71.5 -7.5q-109 0 -176 61.5t-67 195.5q0 105 39.5 197.5t106 156.5t154 100.5t181.5 36.5q122 0 183 -62.5t61 -169.5q0 -136 -63.5 -230.5
t-136.5 -94.5q-33 0 -33 41q0 52 33 147t66 164l33 69l-9 17q-4 -5 -11.5 -12t-36.5 -19.5t-65 -15.5zM604 381q-17 -54 -38 -107t-48.5 -110t-59.5 -92t-61 -35q-19 0 -28 13.5t-9 47.5q0 111 63 202t140 91q13 0 23.5 -2.5t13.5 -4.5z" />
    <glyph glyph-name="A" unicode="A" horiz-adv-x="672" 
d="M561 42q29 -13 91 -13q0 -33 -32 -33q-15 0 -63 2t-68 2q-16 0 -72.5 -2t-71.5 -2q-32 0 -32 33q37 0 64.5 3.5t36.5 6.5l9 3q0 144 8 277q-9 0 -38 0.5t-48 0.5q-76 0 -106 -3q-74 -133 -145 -275q28 -13 116 -13q0 -33 -34 -33q-13 0 -58.5 2t-53.5 2q-12 0 -46 -2
t-47 -2q-31 0 -31 33q33 0 58.5 3.5t33.5 6.5l9 3q13 23 63.5 117t90.5 166t102.5 173t118.5 178q39 0 79 7t61 14l20 7q-23 -220 -23 -484q0 -68 2 -112.5t4 -55.5zM365 354q49 0 68 1q4 76 10.5 147.5t10.5 105.5l4 33q-15 -2 -20 -2q-79 -111 -176 -282q32 -3 103 -3z
" />
    <glyph glyph-name="B" unicode="B" horiz-adv-x="713" 
d="M85 42q-27 -13 -105 -13q0 -33 33 -33q9 0 63 2t67 2q26 0 86 -6.5t103 -6.5q155 0 238.5 58t83.5 167q0 136 -173 136v5q5 0 13 1.5t31 7.5t44 14t46.5 24t44 35.5t31 50t12.5 66.5q0 136 -169 136q-30 0 -87.5 -6t-85.5 -6q-15 0 -70.5 2t-76.5 2q-33 0 -33 -33
q40 0 69.5 -3.5t39.5 -7.5l9 -3q-55 -183 -118 -352.5t-96 -238.5zM222 46q27 102 104.5 323t101.5 268q24 13 63 13q42 0 65.5 -24t23.5 -72q0 -93 -59.5 -141.5t-128.5 -48.5q-38 0 -38 -33h56q116 0 116 -115q0 -89 -52 -139t-156 -50q-29 0 -53 4.5t-33 9.5z" />
    <glyph glyph-name="C" unicode="C" horiz-adv-x="686" 
d="M567 52q41 114 41 146q0 43 -38 43q-28 -97 -94.5 -157t-155.5 -60q-73 0 -105 43.5t-32 140.5q0 181 78.5 312t196.5 131q84 0 113.5 -50.5t29.5 -168.5q44 0 52 47l33 148l-6.5 6.5t-22.5 15t-40 18.5t-60 14.5t-83 6.5q-182 0 -303 -131.5t-121 -330.5
q0 -127 57.5 -186t195.5 -59q73 0 139 17.5t96 35.5z" />
    <glyph glyph-name="D" unicode="D" horiz-adv-x="852" 
d="M541 688q-31 0 -93 -6t-89 -6q-21 0 -82 2t-77 2q-32 0 -32 -33q48 0 80.5 -3.5t41.5 -7.5l9 -3q-28 -105 -104.5 -313t-109.5 -278q-24 -13 -105 -13q0 -18 8.5 -25.5t27.5 -7.5q13 0 64 2t64 2q23 0 79.5 -6.5t96.5 -6.5q217 0 349.5 129.5t132.5 344.5
q0 106 -64 166.5t-197 60.5zM512 647q84 0 120 -43t36 -139q0 -202 -95 -319t-255 -117q-28 0 -51.5 4.5t-32.5 8.5l-10 4q21 87 100.5 305t109.5 286q35 10 78 10z" />
    <glyph glyph-name="E" unicode="E" horiz-adv-x="689" 
d="M299 633q-44 -152 -107 -323.5t-107 -267.5q-24 -13 -105 -13q0 -17 7 -25t27 -8q8 0 88 2t136 2q93 0 178.5 -4.5t124.5 -9.5l39 -5q4 26 24.5 99.5t20.5 96.5q0 13 -10.5 22t-29.5 9q-15 -87 -38 -121t-69 -35l-254 -5q19 75 86 268q22 4 112 4q34 0 48 -7.5t14 -26.5
q0 -12 -4 -31t-8 -32l-4 -14q7 -3 14 -3q25 0 31 27q9 42 34.5 122t25.5 95q0 21 -32 21q-16 -71 -37.5 -93t-71.5 -22l-106 3q7 25 46 127.5t59 142.5q115 2 173 2q33 0 45 -10.5t12 -40.5q0 -18 -4 -41.5t-8 -37.5l-4 -15q11 -6 23 -6q31 0 38 46q5 35 13.5 76t14.5 65
l5 23q-189 -13 -305 -13q-52 0 -129.5 2t-88.5 2q-34 0 -34 -33q40 0 69 -3.5t39 -7.5z" />
    <glyph glyph-name="F" unicode="F" horiz-adv-x="639" 
d="M299 633q-90 -304 -214 -591q-24 -13 -105 -13q0 -17 7 -25t27 -8q14 0 60 2t73 2q26 0 87 -2t83 -2t30.5 8t8.5 25q-44 0 -77 3.5t-44 6.5l-11 3q19 80 86 273q22 4 112 4q34 0 48 -7.5t14 -26.5q0 -12 -4 -31t-8 -32l-4 -14q7 -3 14 -3q25 0 31 27q9 42 34.5 122
t25.5 95q0 21 -32 21q-16 -71 -37.5 -93t-71.5 -22l-106 3q7 24 46 126.5t59 143.5q112 2 173 2q33 0 45 -11t12 -40q0 -18 -4 -41.5t-8 -37.5l-4 -15q11 -6 23 -6q17 0 25.5 10.5t12.5 35.5q5 34 13.5 75t14.5 65l5 24q-190 -13 -307 -13q-50 0 -127 2t-89 2q-34 0 -34 -33
q40 0 69 -3.5t39 -7.5z" />
    <glyph glyph-name="G" unicode="G" horiz-adv-x="729" 
d="M519 248q-9 -57 -26 -117q-13 -47 -60 -77t-115 -30t-101.5 43t-33.5 142q0 119 35 220t99.5 161.5t144.5 60.5q45 0 74 -15.5t43 -48t18.5 -67t4.5 -88.5q41 0 51 43l33 152l-6.5 6.5t-22 15t-39.5 18.5t-60 14.5t-82 6.5q-183 0 -304.5 -129.5t-121.5 -336.5
q0 -70 19 -119t54.5 -74.5t76.5 -36.5t95 -11q56 0 105 15t75 30t28 15q20 0 20 -96q42 0 45 50q3 59 16.5 122t25.5 97l12 34q37 15 92 15q0 33 -30 33q-14 0 -51.5 -2t-65.5 -2q-26 0 -72.5 2t-55.5 2q-35 0 -35 -33q31 0 59.5 -4t42.5 -7z" />
    <glyph glyph-name="H" unicode="H" horiz-adv-x="879" 
d="M292 633q-44 -149 -107.5 -320.5t-107.5 -270.5q-25 -13 -97 -13q0 -17 7 -25t27 -8q14 0 59 2t67 2q21 0 74 -2t72 -2q38 0 38 33q-36 0 -63 3.5t-37 6.5l-9 3q29 103 99 306.5t116 284.5q22 14 115 14q0 33 -29 33q-22 0 -74.5 -2t-72.5 -2q-29 0 -85 2t-72 2
q-33 0 -33 -33q38 0 66 -3.5t37 -7.5zM764 633q-45 -153 -108.5 -325t-106.5 -266q-24 -13 -109 -13q0 -17 6.5 -25t26.5 -8q17 0 67 2t71 2q22 0 75.5 -2t71.5 -2q37 0 37 33q-35 0 -62 3.5t-36 6.5l-9 3q30 108 98.5 309t114.5 282q22 14 99 14q0 33 -29 33
q-12 0 -59.5 -2t-70.5 -2q-28 0 -84.5 2t-71.5 2q-34 0 -34 -33q38 0 66 -3.5t37 -7.5zM681 384q-38 -31 -99 -31q-33 0 -82.5 15t-75.5 15q-23 0 -44.5 -10t-36.5 -24.5t-27 -29.5t-18 -25l-5 -10q40 29 102 29q29 0 76.5 -15t78.5 -15q25 0 47.5 10.5t37 25.5t25.5 29.5
t16 25.5z" />
    <glyph glyph-name="I" unicode="I" horiz-adv-x="407" 
d="M289 633q-44 -151 -107 -323t-106 -268q-25 -13 -96 -13q0 -17 7 -25t27 -8q14 0 58 2t67 2q20 0 75 -2t78 -2q38 0 38 33q-39 0 -68 3.5t-38 6.5l-10 3q36 124 101.5 316.5t110.5 274.5q22 14 102 14q0 33 -29 33q-13 0 -62 -2t-71 -2q-28 0 -85 2t-75 2q-33 0 -33 -33
q39 0 68 -3.5t39 -7.5z" />
    <glyph glyph-name="J" unicode="J" horiz-adv-x="605" 
d="M576 564q-34 -76 -72 -197q44 -4 121 -4l-18 -42l-117 -1q-20 -69 -52.5 -187t-42.5 -153q-66 -215 -269 -215q-166 0 -166 114q0 44 25 70.5t67 26.5q23 0 38.5 -8.5t19.5 -17.5l4 -8q-5 -2 -12.5 -7t-20 -24.5t-12.5 -45.5q0 -32 17 -48t46 -16q42 0 76 35t64 131
q59 189 125 353q-52 4 -144 4l15 39q88 0 148 4q23 56 47 107q16 34 38 65t36 45l14 14l-2 6q-25 -22 -71 -22q-40 0 -93 30.5t-70 30.5q-19 0 -30.5 -11t-11.5 -32q0 -30 28 -55q-15 -11 -43 -11q-38 0 -61 24.5t-23 67.5q0 45 28 72.5t78 27.5q46 0 87.5 -23t79.5 -46
t75 -23q30 0 50.5 14t33 27.5t24.5 13.5q18 0 18 -17q0 -10 -10 -20.5t-28.5 -33t-33.5 -54.5z" />
    <glyph glyph-name="K" unicode="K" horiz-adv-x="719" 
d="M336 316q35 0 56.5 -18.5t30.5 -48t14 -65t12 -71.5t19.5 -65.5t41.5 -48t73 -18.5q57 0 86 26t29 60q0 10 -3 17t-7 9l-3 2q-2 -4 -5.5 -9.5t-17.5 -14.5t-31 -9q-28 0 -44 28t-25.5 68.5t-22.5 82t-47 73t-88 35.5v5q207 260 301 260q27 0 40.5 -23.5t13.5 -59.5
q37 0 63.5 24t26.5 62q0 32 -22 50t-60 18q-79 0 -178.5 -88t-252.5 -281zM291 633q-40 -143 -103 -323t-103 -268q-24 -13 -105 -13q0 -17 7 -25t27 -8q14 0 62.5 2t70.5 2q21 0 81 -2t83 -2q37 0 37 33q-40 0 -71 3.5t-42 6.5l-11 3q134 459 204 591q22 14 116 14
q0 33 -29 33q-22 0 -74 -2t-73 -2q-28 0 -86 2t-75 2q-34 0 -34 -33q40 0 69.5 -3.5t39.5 -7.5z" />
    <glyph glyph-name="L" unicode="L" horiz-adv-x="649" 
d="M298 633q-42 -145 -105 -317t-108 -274q-25 -13 -105 -13q0 -17 7 -25t27 -8q8 0 87.5 2t135.5 2q88 0 170 -4.5t120 -9.5l38 -5q3 25 23.5 99t20.5 95q0 33 -40 33q-16 -86 -36.5 -120.5t-72.5 -35.5l-236 -5q20 69 50.5 164t79.5 230t82 192q22 14 115 14q0 33 -30 33
q-22 0 -74 -2t-72 -2q-28 0 -85 2t-75 2q-34 0 -34 -33q40 0 69 -3.5t38 -7.5z" />
    <glyph glyph-name="M" unicode="M" horiz-adv-x="1004" 
d="M816 680q-151 -222 -310 -506q-41 228 -57 506q-68 -4 -109 -4q-25 0 -73.5 2t-65.5 2q-31 0 -31 -33q38 0 68 -3.5t40 -7.5l11 -3q-90 -272 -208 -591q-22 -13 -101 -13q0 -33 31 -33q10 0 46.5 2t54.5 2q5 0 47 -2t64 -2q32 0 32 33q-37 0 -64.5 3.5t-36.5 6.5l-10 3
q43 147 90 288.5t72 209.5l26 68q13 -150 33 -287.5t33 -199.5l13 -62q19 0 37 -5.5t26 -10.5l9 -5q129 237 351 579q-38 -147 -71 -333t-38 -242q-26 -13 -106 -13q0 -33 31 -33q12 0 65.5 2t72.5 2q11 0 67 -2t75 -2q32 0 32 33q-31 0 -56 3.5t-34 6.5l-10 3q0 21 10 100
t33.5 218t53.5 273q34 14 115 14q0 33 -28 33q-17 0 -61 -2t-65 -2z" />
    <glyph glyph-name="N" unicode="N" horiz-adv-x="770" 
d="M441 680q-79 -4 -117 -4q-21 0 -69 2t-63 2q-30 0 -30 -33q40 0 70.5 -3.5t41.5 -7.5l10 -3q-111 -375 -199 -591q-22 -13 -105 -13q0 -33 31 -33q10 0 46 2t56 2q13 0 51 -2t68 -2q32 0 32 33q-40 0 -69 3.5t-38 6.5l-9 3q19 83 77.5 261.5t110.5 304.5
q25 -174 59.5 -325.5t56.5 -216.5l21 -64q28 0 51.5 -3t33.5 -6l10 -3q35 164 65 278.5t53.5 179.5t47.5 100.5t42.5 45t43.5 9.5q20 0 34 -11t18 -22l3 -11q4 2 10 5.5t15.5 19.5t9.5 38q0 30 -19 49t-54 19q-31 0 -55.5 -11.5t-52.5 -46t-54 -96t-57 -163t-65 -245.5
q-7 19 -19 58t-42 181.5t-51 312.5z" />
    <glyph glyph-name="O" unicode="O" horiz-adv-x="777" 
d="M481 688q-192 0 -311.5 -130.5t-119.5 -335.5q0 -127 63 -184t191 -57q99 0 180.5 40t133.5 106.5t80.5 151t28.5 176.5q0 113 -58.5 173t-187.5 60zM183 207q0 117 33 217.5t96.5 163.5t144.5 63q74 0 105.5 -46t31.5 -155q0 -72 -17.5 -145.5t-50 -137t-87.5 -103.5
t-122 -40q-66 0 -100 42.5t-34 140.5z" />
    <glyph glyph-name="P" unicode="P" horiz-adv-x="660" 
d="M299 633q-44 -146 -108.5 -323t-105.5 -268q-22 -13 -105 -13q0 -33 33 -33q12 0 62.5 2t72.5 2q19 0 79 -2t83 -2q37 0 37 33q-41 0 -72 3.5t-41 6.5l-10 3q26 93 95 298t110 297q23 13 59 13q95 0 95 -114q0 -96 -47 -151t-143 -55q-30 0 -40.5 -9t-10.5 -29h62
q151 0 228.5 60.5t77.5 178.5q0 157 -189 157q-28 0 -82.5 -6t-87.5 -6q-18 0 -66 2t-71 2q-21 0 -29 -8t-8 -25q40 0 70.5 -3.5t40.5 -7.5z" />
    <glyph glyph-name="Q" unicode="Q" horiz-adv-x="791" 
d="M325 279q29 -19 29 -78q0 -57 -22.5 -86t-60.5 -29q-91 0 -91 150q0 65 19.5 136.5t54.5 134.5t90 103.5t118 40.5q77 0 107.5 -47.5t30.5 -152.5q0 -206 -98.5 -333t-273.5 -149q-258 -31 -258 -154q0 -27 15 -42.5t44 -15.5q24 0 38.5 12t14.5 27q-13 0 -23.5 9
t-10.5 26q0 44 43.5 72t108.5 28q50 0 113.5 -27.5t128 -67t133 -78.5t151 -66.5t160.5 -27.5q192 0 192 171q0 45 -21 74t-62 29q-28 0 -45.5 -15.5t-17.5 -37.5q0 -11 4.5 -19.5t9.5 -11.5l4 -4q15 21 42 21q19 0 30.5 -11.5t11.5 -32.5q0 -33 -30 -51.5t-88 -18.5
q-76 0 -170 28t-166.5 62t-152 66t-127.5 37v5q113 17 199 66t135.5 119.5t74 150.5t24.5 168q0 229 -249 229q-84 0 -156 -27.5t-122 -73t-85.5 -104t-52 -120t-16.5 -122.5q0 -104 49.5 -147t146.5 -43q95 0 148 50t53 123q0 35 -18 57t-54 22q-16 0 -29 -6t-18 -12z" />
    <glyph glyph-name="R" unicode="R" horiz-adv-x="717" 
d="M299 633q-27 -97 -99.5 -299t-114.5 -292q-26 -13 -105 -13q0 -33 32 -33q7 0 62 2t76 2q17 0 75.5 -2t85.5 -2q36 0 36 33q-41 0 -71.5 3.5t-41.5 6.5l-10 3q42 148 103.5 326t101.5 269q22 13 63 13q49 0 70.5 -24.5t21.5 -76.5q0 -90 -62 -145t-140 -55q-42 0 -42 -33
h40q36 0 50.5 -34.5t17 -83.5t9.5 -98.5t38.5 -84t91.5 -34.5q50 0 78 24.5t28 61.5q0 9 -3.5 16t-6.5 9l-3 3q-16 -31 -50 -31q-32 0 -49 27.5t-23 66.5t-12.5 78t-24.5 66.5t-51 27.5l2 4q101 12 168 67.5t67 148.5q0 138 -176 138q-33 0 -90 -6t-78 -6t-74 2t-74 2
q-34 0 -34 -33q40 0 69.5 -3.5t39.5 -7.5z" />
    <glyph glyph-name="S" unicode="S" horiz-adv-x="543" 
d="M534 489l39 151q-7 5 -21.5 13t-67.5 21.5t-116 13.5q-106 0 -162 -48t-56 -129q0 -44 20.5 -86t50 -76t59.5 -66.5t50.5 -70.5t20.5 -76q0 -51 -28.5 -81.5t-78.5 -30.5q-59 0 -88 42.5t-29 153.5q-23 0 -34 -12t-16 -39l-27 -128q7 -7 21.5 -17t65 -26.5t108.5 -16.5
q115 0 173.5 48.5t58.5 138.5q0 41 -21 81t-51 73t-60 65t-51 70.5t-21 77.5q0 56 28.5 86t75.5 30q62 0 89.5 -47t27.5 -145q32 0 40 30z" />
    <glyph glyph-name="T" unicode="T" horiz-adv-x="611" 
d="M224 629l156 -1q-43 -147 -106 -319t-106 -267q-35 -13 -128 -13q0 -33 34 -33q19 0 74.5 2t81.5 2t89.5 -2t84.5 -2q40 0 40 33q-45 0 -79.5 3.5t-46.5 6.5l-12 3q126 399 209 586q63 2 121 2q33 0 44.5 -11t11.5 -40q0 -18 -4 -41.5t-8 -37.5l-3 -15q11 -6 24 -6
q30 0 37 46q5 34 13 75t14 65l6 24q-178 -13 -330 -13q-94 0 -171 3t-106 7l-30 3q-5 -33 -26 -98.5t-21 -89.5q0 -8 6.5 -14.5t15.5 -6.5l23 4q19 77 39 111t53 34z" />
    <glyph glyph-name="U" unicode="U" horiz-adv-x="734" 
d="M695 633q-106 -297 -147 -401q-45 -116 -95.5 -157.5t-134.5 -41.5q-63 0 -94.5 28t-31.5 91q0 64 49 203t114 278q23 14 115 14q0 33 -27 33q-21 0 -76.5 -2t-87.5 -2q-15 0 -70.5 2t-80.5 2q-33 0 -33 -33q41 0 71.5 -3.5t40.5 -7.5l10 -3q-12 -32 -40 -103t-44 -113.5
t-35.5 -99t-28.5 -100.5t-9 -78q0 -78 53 -118t177 -40q131 0 195.5 53.5t116.5 195.5l153 403q23 14 109 14q0 33 -28 33q-14 0 -54 -2t-51 -2q-19 0 -59 2t-65 2q-33 0 -33 -33q40 0 70.5 -3.5t40.5 -7.5z" />
    <glyph glyph-name="V" unicode="V" horiz-adv-x="607" 
d="M123 -4q28 0 54 -7t38 -13l12 -7q141 200 395 664q23 14 101 14q0 33 -29 33q-6 0 -42 -2t-59 -2q-17 0 -57 2t-67 2q-32 0 -32 -33q39 0 69.5 -3.5t41.5 -7.5l12 -3q-24 -49 -50.5 -99.5t-54.5 -101t-51 -90t-52.5 -88.5t-44 -73t-40.5 -66t-29 -47q-27 220 -28 565
q23 14 116 14q0 33 -27 33q-17 0 -72.5 -2t-79.5 -2q-25 0 -77 2t-67 2q-33 0 -33 -33q33 0 59 -3.5t36 -7.5l10 -3q0 -154 12 -313.5t24 -241.5z" />
    <glyph glyph-name="W" unicode="W" horiz-adv-x="892" 
d="M494 -4q27 0 53 -7t39 -13l12 -7q47 82 92.5 179t111.5 248.5t105 236.5q23 14 101 14q0 33 -29 33q-2 0 -38.5 -2t-61.5 -2q-17 0 -57 2t-66 2q-30 0 -30 -33q37 0 66.5 -3.5t40.5 -7.5l11 -3q-51 -138 -122 -301.5t-121 -263.5q-9 56 -18 210.5t-9 354.5q28 14 120 14
q0 33 -29 33q-15 0 -70.5 -2t-80.5 -2q-24 0 -73 2t-69 2q-31 0 -31 -33q37 0 63 -3.5t34 -7.5l7 -3l2 -107q-81 -242 -176 -458q-46 258 -55 565q22 14 98 14q0 33 -27 33q-20 0 -65.5 -2t-69.5 -2q-26 0 -80.5 2t-68.5 2q-33 0 -33 -33q32 0 58.5 -3.5t37.5 -7.5l10 -3
q12 -177 34 -336.5t38 -230.5l17 -70q26 0 52 -7t39 -13l13 -7q52 102 108 239.5t80 219.5q3 -113 12 -221t17 -159z" />
    <glyph glyph-name="X" unicode="X" horiz-adv-x="724" 
d="M669 -4q32 0 32 33q-30 0 -57 3.5t-39 6.5l-12 3l-121 302l252 289q36 14 105 14q0 33 -27 33q-12 0 -45 -2t-53 -2t-59.5 2t-57.5 2q-33 0 -33 -33q34 0 60 -3t37.5 -6.5t11.5 -6.5q0 -4 -51.5 -65t-103.5 -120l-52 -58q-87 222 -87 244q0 4 14 7t39.5 5.5t56.5 2.5
q0 33 -28 33q-14 0 -72 -2t-87 -2q-24 0 -81.5 2t-72.5 2q-30 0 -30 -33q36 0 64.5 -3.5t39.5 -7.5l10 -3l123 -302l-255 -276q-23 -26 -113 -26q0 -33 29 -33q7 0 46 2t53 2q12 0 53 -2t55 -2q34 0 34 33q-33 0 -58 3t-36 6.5t-11 7.5q0 3 55.5 63t111.5 118l56 58
q86 -228 86 -243q-32 -13 -121 -13q0 -33 33 -33q14 0 65 2t88 2q26 0 79.5 -2t73.5 -2z" />
    <glyph glyph-name="Y" unicode="Y" horiz-adv-x="605" 
d="M134 633l117 -350q-10 -77 -26.5 -137.5t-27.5 -81.5l-11 -22q-31 -13 -115 -13q0 -33 37 -33q10 0 68 2t81 2q14 0 75 -2t71 -2q23 0 31.5 8t8.5 25q-39 0 -69 3.5t-40 7.5l-10 3q0 18 24 107.5t39 135.5l246 347q27 14 105 14q0 33 -27 33q-13 0 -47 -2t-54 -2t-62 2
t-61 2q-33 0 -33 -33q36 0 66 -3t43 -6.5t13 -4.5q0 -5 -54 -83.5t-108 -153.5l-53 -76q-89 291 -89 312q0 4 13.5 7t40 5.5t59.5 2.5q0 33 -26 33q-18 0 -74 -2t-81 -2q-21 0 -75.5 2t-68.5 2q-31 0 -31 -33q32 0 58.5 -3.5t36.5 -7.5z" />
    <glyph glyph-name="Z" unicode="Z" horiz-adv-x="682" 
d="M281 623l262 2q-24 -46 -465 -552q-32 -38 -48 -56l15 -28q137 11 277 11q70 0 138 -4.5t100 -9.5l33 -5q7 40 26 106t19 85q0 35 -41 35q-16 -90 -38.5 -120.5t-79.5 -31.5l-266 -2l519 605l-12 24q-80 -6 -275 -6q-68 0 -132.5 4t-94.5 8l-31 4q-7 -39 -26.5 -104.5
t-19.5 -86.5t25 -21l20 4q18 75 38 107t57 32z" />
    <glyph glyph-name="bracketleft" unicode="[" horiz-adv-x="390" 
d="M570 731l-23 42q-220 -33 -313 -33q-20 -128 -105 -491q-42 -180 -74 -307.5t-43 -164.5l-12 -37q36 0 111 -8t133 -16l57 -9l41 42q-18 0 -70 10.5t-95 20.5l-43 11q5 70 96 458q38 164 66.5 274.5t37.5 138.5l10 29q169 40 226 40z" />
    <glyph glyph-name="backslash" unicode="\" horiz-adv-x="389" 
d="M20 740l282 -1000h67l-282 1000h-67z" />
    <glyph glyph-name="bracketright" unicode="]" horiz-adv-x="390" 
d="M-180 -251l23 -42q220 33 313 33q21 128 105 491q42 180 74 307.5t43 164.5l12 37q-36 0 -111 8t-133 16l-57 9l-41 -42q18 0 70 -10.5t95 -20.5l43 -11q-5 -70 -96 -458q-38 -164 -66.5 -274.5t-37.5 -138.5l-10 -29q-169 -40 -226 -40z" />
    <glyph glyph-name="asciicircum" unicode="^" horiz-adv-x="544" 
d="M504 420h-76l-75 226l-202 -226h-71l276 302h45z" />
    <glyph glyph-name="underscore" unicode="_" horiz-adv-x="529" 
d="M464 -62l15 62h-414l-15 -62h414z" />
    <glyph glyph-name="grave" unicode="`" horiz-adv-x="403" 
d="M317 478l9 32q-57 34 -95 82.5t-49 79t-11 47.5q-75 0 -75 -61q0 -52 63 -102.5t158 -77.5z" />
    <glyph glyph-name="a" unicode="a" horiz-adv-x="561" 
d="M327 195l8 -6q-32 -73 -32 -135q0 -39 20 -56t60 -17q96 0 140 105q12 27 12 51q0 22 -25 22q-15 -54 -39 -88t-49 -34t-25 32q0 53 32 148t64 164l32 69l-9 17q-1 -2 -3.5 -4.5t-12.5 -10t-21.5 -13.5t-31.5 -11.5t-43 -7.5q-37 12 -75 12q-124 0 -213.5 -98.5
t-89.5 -234.5q0 -118 104 -118q61 0 105 51t92 163zM372 381q-17 -53 -37 -104.5t-47 -110t-56.5 -94.5t-54.5 -36q-19 0 -28 13.5t-9 49.5q0 111 62 202t131 91q12 0 22 -3t13 -5z" />
    <glyph glyph-name="b" unicode="b" horiz-adv-x="478" 
d="M31 82q0 -101 129 -101q86 0 153 50.5t100.5 128t33.5 163.5q0 54 -26.5 81.5t-67.5 27.5q-52 0 -91 -38.5t-83 -132.5l-7 12q59 136 112 241.5t73.5 142.5t20.5 46q0 19 -19 19q-2 0 -66.5 -11.5t-121.5 -11.5q-43 0 -43 -36q38 0 66.5 -4.5t37.5 -9.5l10 -5
q-211 -407 -211 -562zM175 19q-33 0 -33 46q0 51 29.5 129t68.5 135.5t63 57.5q28 0 28 -61q0 -72 -25.5 -145t-62 -117.5t-68.5 -44.5z" />
    <glyph glyph-name="c" unicode="c" horiz-adv-x="443" 
d="M289 275q13 -19 47 -19q37 0 61.5 24.5t24.5 66.5q0 39 -29 62t-86 23q-112 0 -194 -93t-82 -223q0 -135 132 -135q53 0 87.5 20t60.5 62q25 36 25 66q0 11 -7 19t-20 8q-19 -61 -48 -95t-62 -34q-27 0 -39 17.5t-12 59.5q0 71 24 140t59 110.5t67 41.5q15 0 24.5 -11
t9.5 -31q0 -30 -15.5 -52t-27.5 -27z" />
    <glyph glyph-name="d" unicode="d" horiz-adv-x="576" 
d="M335 195l9 -6q-30 -77 -30 -140q0 -68 76 -68q40 0 70.5 17.5t43.5 36.5t26 47q15 35 15 56q0 9 -7.5 15.5t-19.5 6.5q-16 -57 -39.5 -90t-47.5 -33q-27 0 -27 34q0 43 23.5 123t57.5 164.5t68 162.5t57.5 130.5t23.5 53.5q0 17 -21 17q-3 0 -69 -11.5t-127 -11.5
q-38 0 -38 -36q39 0 67 -4.5t36 -9.5l9 -5l-96 -219q-25 7 -55 7q-127 0 -218 -93t-91 -237q0 -65 26 -93t79 -28q28 0 52 11t41 26t37.5 47.5t33 57t35.5 72.5zM380 382q-112 -345 -202 -345q-34 0 -34 62q0 111 62.5 201.5t131.5 90.5q12 0 22.5 -2.5t15.5 -4.5z" />
    <glyph glyph-name="e" unicode="e" horiz-adv-x="443" 
d="M209 228h-28q0 -27 54 -27q85 0 136 40t51 106q0 85 -111 85q-117 0 -198.5 -95.5t-81.5 -218.5q0 -73 34 -105t99 -32q101 0 154 96q18 33 18 54q0 23 -28 23q-16 -53 -46 -90t-68 -37q-46 0 -46 78q0 114 50.5 202.5t99.5 88.5q34 0 34 -46q0 -54 -34 -88t-89 -34z" />
    <glyph glyph-name="f" unicode="f" horiz-adv-x="355" 
d="M-100 -108q-1 3 -4 8t-17 13t-34 8q-34 0 -54 -20.5t-20 -54.5q0 -81 110 -81q128 0 212.5 137.5t165.5 471.5q50 7 103 7q58 0 58 39q-36 0 -73.5 2.5t-56.5 5.5l-19 2q56 262 139 262q37 0 37 -49q0 -26 -11.5 -46.5t-22.5 -28.5l-11 -7q15 -20 53 -20q41 0 65.5 23.5
t24.5 68.5q0 44 -31.5 70.5t-97.5 26.5q-97 0 -160 -64t-104 -233q-22 -13 -78 -13q-42 0 -42 -39l108 -4q-57 -236 -94.5 -355.5t-70 -171t-72.5 -51.5q-37 0 -37 39q0 17 8.5 30.5t17.5 18.5z" />
    <glyph glyph-name="g" unicode="g" horiz-adv-x="504" 
d="M534 451l-9 17q-55 -39 -114 -48q-34 12 -71 12q-130 0 -218.5 -90.5t-88.5 -241.5q0 -119 97 -119q63 0 109 48.5t95 165.5l9 -6q-46 -115 -54 -146q-34 -134 -81 -186.5t-105 -52.5q-56 0 -56 50q0 28 15.5 43.5t37.5 15.5q0 7 -4 14.5t-19 15.5t-38 8q-38 0 -63 -25
t-25 -66q0 -95 131 -95q140 0 221 94.5t131 306.5q19 83 44 154.5t40 101.5zM376 381q-21 -67 -39.5 -117t-45 -107.5t-55 -88.5t-57.5 -31q-33 0 -33 60q0 116 56 205t137 89q11 0 20 -2.5t13 -4.5z" />
    <glyph glyph-name="h" unicode="h" horiz-adv-x="539" 
d="M134 -9q40 147 100 262t101 115q20 0 20 -22q0 -19 -44 -127.5t-44 -159.5q0 -78 85 -78q97 0 143 104q13 30 13 52q0 23 -26 23q-14 -52 -36.5 -87.5t-49.5 -35.5q-26 0 -26 30q0 35 52 148t52 149q0 30 -20.5 49t-56.5 19q-42 0 -82.5 -30t-68.5 -72.5t-49.5 -85
t-32.5 -72.5l-10 -30l-8 5q28 109 85 245.5t100 223t43 87.5q0 19 -22 19q-2 0 -64.5 -11.5t-122.5 -11.5q-40 0 -40 -36q36 0 63.5 -4.5t37.5 -9.5l9 -5q-23 -50 -57 -128.5t-90.5 -239t-56.5 -223.5q0 -34 22 -48t81 -14z" />
    <glyph glyph-name="i" unicode="i" horiz-adv-x="329" 
d="M191 590q0 -54 59 -54q38 0 61.5 22.5t23.5 60.5q0 23 -14 40t-44 17q-39 0 -62.5 -24t-23.5 -62zM60 260q41 119 77 119q19 0 19 -18q0 -23 -49 -137t-49 -166q0 -77 85 -77q51 0 84.5 24.5t57.5 78.5q13 32 13 53q0 23 -26 23q-34 -123 -83 -123q-26 0 -26 29
q0 35 53.5 152.5t53.5 151.5q0 28 -21 45t-62 17q-44 0 -74 -17.5t-52 -57.5q-30 -55 -30 -77q0 -20 29 -20z" />
    <glyph glyph-name="j" unicode="j" horiz-adv-x="293" 
d="M190 590q0 -54 59 -54q38 0 61.5 22.5t23.5 60.5q0 23 -14 40t-44 17q-39 0 -62.5 -24t-23.5 -62zM59 257q39 122 86 122q18 0 18 -20q0 -14 -16 -66t-53 -162.5t-53 -161.5q-32 -101 -54 -135t-54 -34q-33 0 -33 38q0 16 9 30.5t18 21.5l9 6q-1 1 -2 3.5t-5.5 8
t-10.5 10t-16.5 8t-22.5 3.5q-36 0 -56 -21t-20 -57q0 -42 31.5 -64t84.5 -22q86 0 141 51.5t88 151.5q20 65 56 162t57 159t21 81q0 27 -21 44.5t-63 17.5q-61 0 -95 -26t-55 -74q-15 -30 -15 -53q0 -22 26 -22z" />
    <glyph glyph-name="k" unicode="k" horiz-adv-x="508" 
d="M134 -9q19 83 66 214l8 1q0 -115 28 -170t90 -55q45 0 77 29t44.5 61.5t12.5 58.5q0 29 -30 29q-9 -55 -29 -88t-46 -33q-25 0 -42.5 46t-19.5 132q200 26 200 141q0 35 -22.5 55t-65.5 20q-50 0 -94 -30t-71.5 -72.5t-48 -85t-29.5 -72.5l-8 -30l-8 5q31 121 88 257.5
t98.5 217t41.5 82.5q0 18 -22 18q-3 0 -65.5 -11.5t-120.5 -11.5q-42 0 -42 -36q36 0 63.5 -4.5t37.5 -9.5l10 -5q-23 -49 -57 -126.5t-90.5 -236.5t-56.5 -225q0 -36 22 -50.5t81 -14.5zM209 228q71 141 132 141q17 0 26 -9.5t9 -25.5q0 -96 -167 -106z" />
    <glyph glyph-name="l" unicode="l" horiz-adv-x="314" 
d="M235 644q-1 -5 -52.5 -123.5t-101.5 -256.5t-50 -195q0 -49 22 -68.5t65 -19.5q41 0 72 18t42.5 35t24.5 42q19 38 19 61t-27 23q-14 -52 -38 -87.5t-50 -35.5q-24 0 -24 31q0 56 59 210t118 287t59 138q0 19 -23 19q-2 0 -63.5 -11.5t-121.5 -11.5q-23 0 -31.5 -9.5
t-8.5 -26.5q36 0 63.5 -4.5t37.5 -9.5z" />
    <glyph glyph-name="m" unicode="m" horiz-adv-x="819" 
d="M57 260q39 119 79 119q17 0 17 -18q0 -17 -40.5 -143t-40.5 -165q0 -35 22.5 -48.5t80.5 -13.5q30 115 70.5 204.5t73 131t52.5 41.5q17 0 17 -21q0 -23 -39.5 -138t-39.5 -154q0 -36 22.5 -50t80.5 -14q45 171 106.5 274t100.5 103q20 0 20 -22q0 -20 -47 -129.5
t-47 -159.5q0 -76 85 -76q98 0 144 101q14 32 14 53q0 25 -27 25q-15 -54 -38 -88.5t-49 -34.5t-26 30q0 36 53 147.5t53 148.5q0 31 -20 50t-59 19q-40 0 -80 -30t-68 -72.5t-50.5 -85t-33.5 -72.5l-11 -30l-9 5q17 70 43.5 137.5t26.5 90.5q0 25 -16.5 41t-46.5 16
q-40 0 -78.5 -30t-65.5 -72.5t-48.5 -85t-31.5 -72.5l-11 -30l-9 5q13 55 30.5 105t28 77.5t10.5 42.5q0 60 -72 60q-79 0 -125 -74q-27 -43 -27 -75q0 -23 26 -23z" />
    <glyph glyph-name="n" unicode="n" 
d="M176 -9q46 163 106.5 270t95.5 107q19 0 19 -22q0 -17 -44 -126.5t-44 -161.5q0 -77 85 -77q97 0 143 103q14 30 14 53t-28 23q-15 -55 -37.5 -89t-47.5 -34q-26 0 -26 30q0 35 52.5 147.5t52.5 148.5q0 31 -20.5 50t-58.5 19q-43 0 -83.5 -30t-68 -72.5t-49 -85
t-31.5 -72.5l-10 -30l-9 5q13 52 30.5 103t27.5 79.5t10 42.5q0 60 -75 60q-40 0 -68.5 -15.5t-51.5 -56.5q-29 -47 -29 -77q0 -23 29 -23q39 119 77 119q16 0 16 -19q0 -16 -40 -142t-40 -165q0 -35 22.5 -48.5t80.5 -13.5z" />
    <glyph glyph-name="o" unicode="o" horiz-adv-x="471" 
d="M162 -19q82 0 147.5 50t98 122.5t32.5 149.5q0 129 -136 129q-82 0 -146 -49t-95.5 -122t-31.5 -153q0 -68 32.5 -97.5t98.5 -29.5zM178 19q-37 0 -37 62q0 71 24 145.5t59.5 122.5t68.5 48q36 0 36 -63q0 -61 -22 -135t-58 -127t-71 -53z" />
    <glyph glyph-name="p" unicode="p" horiz-adv-x="535" 
d="M328 495q-16 14 -47 14q-66 0 -82 -64q-8 -34 -37 -64.5t-81 -68.5q-33 -25 -46 -39t-13 -28q0 -7 3.5 -12t6.5 -6l4 -1q43 33 76.5 61.5t45.5 40.5l11 12l5 -5q-72 -164 -185 -512q-36 -16 -99 -16q0 -32 34 -32q8 0 52.5 2t60.5 2q23 0 89 -2t73 -2q35 0 35 32
q-39 0 -74 2.5t-50 4.5l-16 3q16 56 32 102t24 65l8 18q24 -21 71 -21q116 0 195.5 100.5t79.5 235.5q0 115 -99 115q-58 0 -102 -55t-95 -172l-11 7q33 86 65.5 157t49.5 99zM173 53q34 114 92.5 222t89.5 108t31 -65q0 -67 -21.5 -135.5t-58 -114t-75.5 -45.5
q-18 0 -32.5 7.5t-20.5 15.5z" />
    <glyph glyph-name="q" unicode="q" horiz-adv-x="529" 
d="M534 451l-9 17q-52 -38 -114 -48q-36 12 -78 12q-55 0 -108.5 -22.5t-97 -63t-70 -105t-26.5 -142.5q0 -118 95 -118q70 0 115.5 52.5t92.5 161.5l8 -6q-51 -117 -89 -208.5t-51 -124.5l-12 -33q-42 -16 -119 -16q0 -32 33 -32q6 0 58.5 2t68.5 2q21 0 89.5 -2t78.5 -2
q38 0 38 32q-26 0 -58 2.5t-51 4.5l-19 3q24 112 95 318t130 316zM375 381q-16 -55 -37 -111.5t-47 -110.5t-56 -88t-56 -34q-35 0 -35 61q0 111 56.5 202t134.5 91q12 0 22 -2.5t14 -4.5z" />
    <glyph glyph-name="r" unicode="r" horiz-adv-x="462" 
d="M174 -9q43 161 91 248t82 87q25 0 25 -30q0 -11 -4 -21.5t-8 -16.5l-3 -5q5 -10 24 -10q32 0 59 35t27 89q0 65 -65 65q-58 0 -100.5 -65.5t-108.5 -224.5l-7 5q11 46 27.5 97.5t27 83.5t10.5 49q0 55 -71 55q-95 0 -135 -100q-14 -32 -14 -50q0 -22 27 -22
q38 119 75 119q18 0 18 -19q0 -24 -40.5 -154t-40.5 -157q0 -33 22.5 -45.5t81.5 -12.5z" />
    <glyph glyph-name="s" unicode="s" horiz-adv-x="434" 
d="M278 290q1 -3 4 -7.5t17 -12.5t34 -8q36 0 55.5 20t19.5 54q0 43 -37.5 69.5t-111.5 26.5q-83 0 -127 -32.5t-44 -89.5q0 -30 17 -57t41 -48t48 -40.5t41 -42.5t17 -46q0 -30 -19.5 -45.5t-51.5 -15.5q-66 0 -66 55q0 18 9 32t18 19l9 5q-1 4 -4 9.5t-17.5 14.5t-35.5 9
q-30 0 -51.5 -21.5t-21.5 -56.5q0 -48 38 -74t113 -26q183 0 183 118q0 27 -17 53t-41 47t-48 41.5t-41 44.5t-17 49q0 31 18 49t49 18q60 0 60 -55q0 -20 -10 -34t-20 -18z" />
    <glyph glyph-name="t" unicode="t" horiz-adv-x="330" 
d="M255 153q-37 -120 -101 -120q-30 0 -30 36q0 33 23.5 110t46.5 137l24 61q69 5 105 5q56 0 56 39q-43 0 -78.5 2.5t-48.5 4.5l-14 2q12 30 26.5 61.5t22.5 48.5l8 16q-13 16 -51 16q-58 0 -80 -49l-28 -70q-8 -20 -23.5 -26.5t-61.5 -6.5q-21 0 -30 -9t-9 -29
q29 0 52 -1.5t32 -2.5l8 -2q-3 -9 -16 -44.5t-18 -50t-15.5 -45.5t-15.5 -49t-11.5 -42.5t-9 -43t-2.5 -33.5q0 -48 25.5 -67.5t75.5 -19.5q91 0 134 62q33 46 33 83q0 27 -29 27z" />
    <glyph glyph-name="u" unicode="u" 
d="M534 423q-22 10 -58 10q-68 0 -89 -63q-27 -77 -47.5 -129.5t-46 -103t-51.5 -75.5t-53 -25q-30 0 -30 32q0 36 52 152t52 150q0 61 -77 61q-99 0 -143 -102q-12 -29 -12 -48q0 -22 26 -22q39 119 81 119q17 0 17 -18t-50.5 -135.5t-50.5 -160.5q0 -84 88 -84
q38 0 68 14.5t53.5 46.5t38 58.5t36.5 74.5q2 5 3.5 8t3.5 7.5t4 8.5l8 -6q-31 -79 -31 -143q0 -69 78 -69q99 0 139 105q12 33 12 51q0 23 -27 23q-16 -57 -38.5 -90t-46.5 -33q-27 0 -27 32q0 49 29.5 137.5t58.5 152.5z" />
    <glyph glyph-name="v" unicode="v" horiz-adv-x="540" 
d="M383 419q13 -29 13 -87q0 -76 -22 -148.5t-57.5 -117.5t-71.5 -45q-45 0 -45 92q0 80 42 168t89 134q0 20 -15 20q-8 0 -15.5 -8t-12.5 -17t-17 -17t-30 -8q-23 0 -70 29.5t-88 29.5q-36 0 -56.5 -19.5t-20.5 -53.5q0 -35 19 -53.5t50 -18.5q11 0 18.5 2.5t9.5 4.5l2 2
q-24 14 -24 41t26 27q13 0 38.5 -12.5t57.5 -12.5q12 0 22 3.5t13 6.5l4 3v-6q-42 -38 -65.5 -61t-49.5 -56.5t-37 -67.5t-11 -74q0 -118 133 -118q86 0 156.5 57t105 134t34.5 150q0 57 -21.5 85t-59.5 28q-12 0 -23 -4t-16 -8z" />
    <glyph glyph-name="w" unicode="w" horiz-adv-x="775" 
d="M607 425q21 -28 21 -125q0 -122 -48.5 -201t-114.5 -79q-21 0 -37.5 9t-22.5 18l-6 9q6 4 16.5 12.5t37 35t47 55t37 71.5t16.5 86q0 98 -89 98q-60 0 -111 -64.5t-51 -169.5q0 -40 8 -71.5t16 -43.5l9 -12q-36 -31 -80 -31q-28 0 -41.5 20t-13.5 68q0 89 43 173.5
t88 131.5q0 20 -14 20q-10 0 -18 -12.5t-21.5 -25t-35.5 -12.5q-24 0 -71 29.5t-88 29.5q-38 0 -57.5 -20.5t-19.5 -51.5q0 -38 19 -55.5t50 -17.5q11 0 18.5 2.5t9.5 4.5l2 2q-24 14 -24 39q0 29 27 29q12 0 38 -12.5t57 -12.5q12 0 22 3.5t14 6.5l4 3v-6q0 -1 -18 -15
t-41.5 -37.5t-47.5 -53.5t-40.5 -71t-16.5 -82q0 -62 36 -90t93 -28q44 0 80 12t50 25l14 12q4 -5 11.5 -13.5t36.5 -22t64 -13.5q47 0 95.5 21.5t90 60.5t68 102t26.5 139q0 65 -29 98t-73 33q-10 0 -18.5 -2.5t-12.5 -4.5zM386 90q-11 24 -11 85q0 64 13.5 114t31 73
t32.5 23q25 0 25 -68q0 -42 -9.5 -80.5t-22.5 -64t-26.5 -45t-22.5 -28.5z" />
    <glyph glyph-name="x" unicode="x" horiz-adv-x="573" 
d="M101 266q33 110 79 110q27 0 41 -42t24 -148q-33 -74 -69 -110t-67 -36t-31 31q0 12 5.5 21.5t10.5 13.5l6 4q-6 13 -31 13q-26 0 -44.5 -21t-18.5 -54q0 -67 74 -67q55 0 96 42t76 123q7 -94 33 -129.5t79 -35.5q40 0 67 19.5t48 63.5q19 43 19 76q0 26 -30 26
q-25 -126 -71 -126q-24 0 -38 38.5t-23 140.5q75 153 129 153q30 0 30 -32q0 -10 -3.5 -19.5t-7.5 -13.5l-4 -4q4 -5 20 -5q28 0 45 21t17 52q0 28 -16.5 44.5t-46.5 16.5q-48 0 -87.5 -40t-80.5 -134q-7 101 -34 137.5t-83 36.5q-74 0 -114 -72q-25 -43 -25 -69
q0 -25 26 -25z" />
    <glyph glyph-name="y" unicode="y" horiz-adv-x="506" 
d="M526 423q-20 10 -52 10q-74 0 -95 -65q-4 -10 -15.5 -43t-17.5 -49l-18 -48t-20.5 -49.5t-21 -43.5t-23.5 -40.5t-24 -29.5t-27 -21.5t-28 -6.5q-31 0 -31 29q0 40 55.5 155t55.5 150q0 61 -81 61q-99 0 -141 -100q-13 -31 -13 -50q0 -22 24 -22q42 119 82 119
q18 0 18 -18q0 -21 -53 -138.5t-53 -164.5q0 -77 85 -77q41 0 72 14.5t56 48.5t41 65t40 88l8 -7q-29 -73 -45 -127q-37 -139 -83.5 -199t-109.5 -60q-60 0 -60 53q0 27 15.5 41.5t40.5 14.5q0 7 -4.5 16t-20 18t-39.5 9q-40 0 -64.5 -25t-24.5 -68q0 -98 138 -98
q135 0 209 79t121 246q32 111 58 194t36 111z" />
    <glyph glyph-name="z" unicode="z" horiz-adv-x="501" 
d="M135 21q0 33 17.5 56.5t44.5 23.5q51 0 51 -81q0 -99 -47 -160t-112 -61q-60 0 -60 55q0 31 19 47.5t44 16.5q0 14 -18 30t-52 16q-40 0 -66 -26t-26 -66q0 -107 150 -107q122 0 203 73.5t81 181.5q0 114 -119 115v4q98 46 165.5 121.5t90.5 169.5q-9 6 -28 6
q-34 0 -41 -25l-5 -14q-19 -23 -63 -23q-21 0 -43 11.5t-39.5 25.5t-46.5 25.5t-62 11.5q-47 0 -74.5 -25.5t-27.5 -71.5q0 -45 25 -68t66 -23q29 0 45.5 11t16.5 22q-19 0 -33.5 12t-14.5 32q0 14 9.5 22.5t22.5 8.5t50 -20.5t73 -20.5q22 0 44.5 9.5t33.5 19.5l11 9
q-68 -132 -245 -219q-32 -15 -47 -23.5t-30 -24.5t-15 -34q0 -43 52 -43z" />
    <glyph glyph-name="braceleft" unicode="{" horiz-adv-x="381" 
d="M561 732l-22 42q-56 -30 -210 -30q-70 0 -107.5 -39.5t-37.5 -110.5q0 -30 7 -87.5t7 -83.5q0 -41 -16.5 -73.5t-38.5 -49t-47.5 -27t-40 -13t-19.5 -2.5l-4 -18q4 0 11 -1.5t25 -7.5t31.5 -15.5t24.5 -28t11 -42.5q0 -45 -33.5 -107.5t-67.5 -125.5t-34 -108
q0 -68 90 -68q73 0 125.5 -7t68.5 -15l17 -7l40 41q-64 33 -170 33q-62 0 -62 50q0 27 20 68t44 77t44 83.5t20 86.5q0 38 -24 63.5t-48 32.5l-24 7q12 3 21 5t38 16t48 31.5t36 52t17 76.5q0 26 -7 83t-7 79q0 59 24.5 84t70.5 25q47 0 92 7.5t66 15.5z" />
    <glyph glyph-name="bar" unicode="|" horiz-adv-x="409" 
d="M389 740l-302 -1000h-67l302 1000h67z" />
    <glyph glyph-name="braceright" unicode="}" horiz-adv-x="381" 
d="M-180 -251l22 -42q56 30 210 30q70 0 107.5 39.5t37.5 110.5q0 30 -7.5 87.5t-7.5 83.5q0 41 16.5 73.5t38.5 49t48 27t40.5 13t19.5 2.5l4 18q-4 0 -11 1.5t-25 7.5t-31.5 15.5t-24.5 28t-11 42.5q0 36 21 83.5t46.5 87t46.5 87t21 83.5q0 68 -90 68q-73 0 -125.5 7.5
t-69.5 14.5l-16 7l-40 -41q64 -33 170 -33q62 0 62 -50q0 -27 -20 -68t-44 -77.5t-44 -83.5t-20 -86q0 -38 24 -63.5t48 -32.5l23 -7q-135 -34 -156 -144q-3 -18 -3 -37q0 -25 7 -82t7 -80q0 -59 -24.5 -84t-70.5 -25q-48 0 -92.5 -8t-65.5 -16z" />
    <glyph glyph-name="asciitilde" unicode="~" horiz-adv-x="422" 
d="M285 316q16 -15 16 -36q0 -32 -36 -32q-22 0 -70.5 14t-70.5 14q-27 0 -45.5 -15.5t-18.5 -47.5q0 -27 13 -42t30 -15l12 3q-11 12 -11 31q0 23 20 23q14 0 67 -23.5t87 -23.5q39 0 61.5 21t22.5 61q0 34 -18 54t-41 20q-6 0 -10.5 -1.5t-6.5 -2.5z" />
    <glyph glyph-name="exclamdown" unicode="&#xa1;" horiz-adv-x="340" 
d="M300 408q0 58 -58 58q-40 0 -66 -26.5t-26 -65.5q0 -25 15 -41.5t43 -16.5q38 0 65 27.5t27 64.5zM111 215q15 0 25 -10t10 -29q0 -29 -24.5 -75.5t-53.5 -88t-53.5 -90.5t-24.5 -83q0 -38 21.5 -59.5t60.5 -21.5q19 0 34 5.5t22.5 13t13 15.5t6.5 14l2 5q-2 0 -5 1
t-11 5.5t-14 10.5t-11 17.5t-5 25.5q0 28 58.5 146.5t58.5 168.5q0 63 -58 63q-19 0 -32 -8.5t-17 -16.5z" />
    <glyph glyph-name="cent" unicode="&#xa2;" horiz-adv-x="599" 
d="M441 238q-15 0 -26.5 3t-15.5 7l-4 3q31 32 31 84q0 54 -51 64l-91 -358h6q44 0 83 15.5t55 31.5l17 15q10 -5 10 -15q0 -32 -51 -60.5t-131 -31.5l-39 -152l-39 6l37 147q-80 6 -126 48t-46 124q0 118 81.5 191t203.5 78l41 162l39 -6l-40 -157q74 -4 109 -33.5
t35 -71.5t-24 -68t-64 -26zM178 164q0 -99 67 -118l90 354q-66 -10 -111.5 -75.5t-45.5 -160.5z" />
    <glyph glyph-name="sterling" unicode="&#xa3;" horiz-adv-x="594" 
d="M439 127q32 0 50 -21.5t18 -52.5q0 -43 -28.5 -70t-83.5 -27q-65 0 -137 32t-115 32q-20 -32 -59 -32q-29 0 -29 23q0 38 75 38q43 37 53 146h-74l12 40h65q11 113 71 178t155 65q58 0 85 -24.5t27 -62.5q0 -36 -22.5 -57.5t-56.5 -21.5q-21 0 -35 7t-18 14l-3 7
q2 0 6 1.5t13.5 6t16.5 11.5t13 19.5t6 27.5q0 45 -41 45q-49 0 -72 -55t-31 -161h136l-14 -40h-127q-8 -37 -30.5 -68t-42.5 -47t-51 -36q28 0 95.5 -17.5t96.5 -17.5q54 0 54 45q0 14 -7.5 24.5t-14.5 13.5l-7 4q1 3 3.5 8.5t15.5 14t32 8.5z" />
    <glyph glyph-name="currency" unicode="&#xa4;" horiz-adv-x="642" 
d="M544 279q0 -138 -110 -216l59 -76l-50 -38l-53 89q-55 -25 -115 -25q-69 0 -112 30l-85 -92l-38 40l92 83q-29 40 -29 103q0 61 30 116.5t82 91.5l-60 72l53 40l50 -87q54 24 112 24q65 0 107 -25l81 97l44 -44l-90 -83q32 -39 32 -100zM285 91q65 0 113.5 50t48.5 123
q0 92 -89 92q-63 0 -110.5 -51.5t-47.5 -123.5q0 -90 85 -90z" />
    <glyph glyph-name="yen" unicode="&#xa5;" horiz-adv-x="709" 
d="M649 417q-19 0 -41 -2t-34 -4l-13 -2q-1 -1 -30 -36t-61 -70.5t-71 -76.5h105l-8 -36h-132l-10 -10q-8 -15 -17 -40h149l-8 -36h-152q-7 -35 -11 -65q49 -10 119 -10q0 -14 -6.5 -23.5t-16.5 -9.5l-164 4q-121 -4 -146 -4q-21 0 -21 33q30 0 60.5 2.5t45.5 4.5l15 3
q14 27 23 65h-125l-8 36h141q4 26 5 40l-4 10h-151l-8 36h144q-36 89 -65 181q-43 10 -93 10q0 31 23 31q3 0 52 -2t72 -2q27 0 75 2l48 2q23 0 23 -31q-99 0 -99 -14q0 -19 25 -87.5t47 -111.5q37 30 111 111.5t74 93.5q0 8 -81 8q0 31 22 31q2 0 34.5 -2t57.5 -2
q19 0 50 2t33 2q22 0 22 -31z" />
    <glyph glyph-name="brokenbar" unicode="&#xa6;" horiz-adv-x="409" 
d="M322 740h67l-120 -398h-67zM87 -260h-67l126 419h68z" />
    <glyph glyph-name="section" unicode="&#xa7;" horiz-adv-x="717" 
d="M516 730q92 0 136.5 -31.5t44.5 -84.5q0 -50 -29.5 -76.5t-76.5 -26.5q-17 0 -31 4.5t-21.5 10.5t-12.5 12.5t-6 11.5l-2 4q20 0 41 20t21 54q0 31 -20 49t-55 18q-62 0 -116.5 -48t-82.5 -134q46 -12 88 -36.5t80 -64t60.5 -99t22.5 -130.5q0 -183 -103 -290.5
t-254 -107.5q-180 0 -180 116q0 48 28 76t75 28q29 0 47.5 -11t21.5 -22l4 -11q-18 0 -38.5 -18t-20.5 -53q0 -71 77 -71q68 0 121.5 47t79.5 141q-48 12 -90 34t-81 60.5t-61.5 100.5t-22.5 142q0 172 98 279t258 107zM436 186q0 112 -41.5 187t-99.5 103q-16 -66 -16 -138
q0 -123 40.5 -197t103.5 -99q13 68 13 144z" />
    <glyph glyph-name="dieresis" unicode="&#xa8;" horiz-adv-x="523" 
d="M100 590q0 -56 56 -56q33 0 56 22.5t23 63.5q0 24 -13.5 39.5t-40.5 15.5q-37 0 -59 -24t-22 -61zM288 590q0 -56 57 -56q32 0 55 22.5t23 63.5q0 24 -13.5 39.5t-39.5 15.5q-37 0 -59.5 -24t-22.5 -61z" />
    <glyph glyph-name="copyright" unicode="&#xa9;" horiz-adv-x="895" 
d="M40 131q0 198 135.5 331t339.5 133q161 0 250.5 -82t89.5 -220q0 -212 -129 -346t-362 -134q-146 0 -235 82t-89 236zM104 137q0 -135 75 -205t202 -70q178 0 294 112.5t116 307.5q0 121 -67.5 192.5t-208.5 71.5q-179 0 -295 -117t-116 -292zM657 382l-20 -84
q-8 -34 -40 -34q0 64 -27.5 97.5t-76.5 33.5q-66 0 -112 -67t-46 -170q0 -131 84 -131q49 0 90.5 36t60.5 101q33 0 33 -34q0 -8 -7 -33t-14 -46l-7 -21q-7 -5 -20.5 -13.5t-58.5 -22t-93 -13.5q-180 0 -180 173q0 123 76.5 200.5t200.5 77.5q49 0 88 -12.5t54 -25.5z" />
    <glyph glyph-name="ordfeminine" unicode="&#xaa;" horiz-adv-x="377" 
d="M262 510l4 -5q-16 -39 -16 -70q0 -25 12 -34.5t40 -9.5q53 0 75 47q10 20 10 37q0 18 -18 18q-6 -30 -18 -48t-26 -18q-15 0 -15 18q0 29 18.5 79.5t37.5 85.5l18 36l-8 14q-42 -21 -68 -27q-13 7 -43 7q-73 0 -127.5 -52.5t-54.5 -132.5q0 -64 59 -64q42 0 69 31t51 88z
M288 608q-17 -54 -49.5 -116.5t-55.5 -62.5q-21 0 -21 37q0 56 31.5 102.5t69.5 46.5q9 0 15 -1.5t8 -3.5zM337 340q-17 -19 -51 -19q-18 0 -89.5 13t-81.5 13q-28 0 -46.5 -22t-18.5 -58q15 18 49 18q12 0 84 -12.5t89 -12.5q31 0 48 21.5t17 58.5z" />
    <glyph glyph-name="guillemotleft" unicode="&#xab;" horiz-adv-x="496" 
d="M46 235l-6 -24q41 -16 63 -49.5t22 -77.5q0 -16 -3.5 -28t-6.5 -16l-3 -3q17 -13 46 -13q27 0 44 16t17 48q0 87 -125 132q54 13 91 28t64.5 43.5t27.5 66.5q0 53 -52 53q-11 0 -21.5 -3.5t-15.5 -6.5l-6 -3q10 -12 10 -35q0 -73 -146 -128zM235 235l-6 -24
q41 -15 62.5 -49t21.5 -78q0 -16 -3 -28t-6 -16l-3 -3q16 -13 46 -13q26 0 43 16.5t17 47.5q0 86 -124 132q54 13 91 28t64.5 43.5t27.5 66.5q0 53 -52 53q-11 0 -22 -3.5t-16 -6.5l-5 -3q10 -12 10 -35q0 -73 -146 -128z" />
    <glyph glyph-name="logicalnot" unicode="&#xac;" horiz-adv-x="572" 
d="M394 257h-334l17 59h435l-72 -236h-97z" />
    <glyph glyph-name="softhyphen" unicode="&#xad;" horiz-adv-x="281" 
d="M61 263h170l-12 -68h-169z" />
    <glyph glyph-name="registered" unicode="&#xae;" horiz-adv-x="594" 
d="M60 452q0 125 70.5 196t197.5 71q100 0 153 -49.5t53 -140.5q0 -125 -71 -195.5t-198 -70.5q-99 0 -152 49.5t-53 139.5zM83 454q0 -171 185 -171q115 0 179 63.5t64 180.5q0 84 -48 127.5t-138 43.5q-115 0 -178.5 -64t-63.5 -180zM239 600q-42 -151 -73 -216
q-14 -6 -47 -6q0 -18 14 -18q3 0 30.5 1t36.5 1t35 -1t34 -1q15 0 15 18q-16 0 -27.5 1.5t-14.5 2.5l-4 2q39 137 75 217q12 7 28 7q28 0 28 -33q0 -37 -21 -56t-45 -19q-18 0 -18 -18h11q13 0 17 -20.5t4.5 -44.5t17 -44.5t51.5 -20.5q26 0 39 10t13 23q0 4 -1 6t-2 3h-1
q-4 -7 -19 -7t-21.5 16t-7.5 34.5t-12.5 34.5t-34.5 16v2q43 1 73 23.5t30 61.5q0 55 -69 55q-23 0 -53.5 -3t-46.5 -3t-39.5 0.5t-31.5 0.5q-15 0 -15 -18q12 0 25 -1.5t20 -3.5z" />
    <glyph glyph-name="macron" unicode="&#xaf;" horiz-adv-x="454" 
d="M362 540l22 77h-265l-22 -77h265z" />
    <glyph glyph-name="degree" unicode="&#xb0;" horiz-adv-x="299" 
d="M40 548q0 -48 25.5 -73.5t72.5 -25.5q64 0 102.5 38t38.5 105q0 97 -98 97q-61 0 -101 -36.5t-40 -104.5zM97 554q0 36 21.5 59t54.5 23q49 0 49 -52q0 -37 -20 -59.5t-55 -22.5q-50 0 -50 52z" />
    <glyph glyph-name="plusminus" unicode="&#xb1;" horiz-adv-x="505" 
d="M254 87h-62l45 138h-124l18 58h125l46 138h61l-46 -138h128l-19 -58h-126zM77 71h306l-17 -55h-306z" />
    <glyph glyph-name="acute" unicode="&#xb4;" horiz-adv-x="403" 
d="M96 510l9 -32q95 27 158 77.5t63 102.5q0 61 -75 61q0 -17 -11 -47.5t-49 -79t-95 -82.5z" />
    <glyph glyph-name="uni00B5" unicode="&#xb5;" horiz-adv-x="612" 
d="M563 423q-13 -27 -33 -70.5t-53.5 -139t-33.5 -144.5q0 -32 27 -32q25 0 48.5 33t39.5 90q27 0 27 -23q0 -18 -12 -51q-40 -105 -142 -105q-78 0 -78 69q0 28 8.5 64t16.5 58l8 21l-9 6q-4 -7 -15.5 -32t-15.5 -33t-15.5 -29.5t-17.5 -30t-17.5 -25t-20.5 -23.5t-22 -18
t-25.5 -15.5t-28.5 -8t-33 -3.5q-27 0 -49 11l-29 -64q-11 -25 -22.5 -70.5t-24.5 -64t-42 -18.5q-44 0 -44 37q0 20 12 36t32.5 41t33.5 57q19 46 48 156q12 45 55.5 142t43.5 117q0 18 -18 18q-43 0 -84 -119q-25 0 -25 22q0 19 12 48q45 102 145 102q78 0 78 -61
q0 -34 -53 -150t-53 -152q0 -32 30 -32q28 0 55 25t53 75.5t47.5 103.5t48.5 129q23 63 90 63q16 0 30 -2.5t20 -4.5z" />
    <glyph glyph-name="paragraph" unicode="&#xb6;" horiz-adv-x="765" 
d="M550 704q-59 -123 -155 -396q-18 -5 -49 -5q-72 0 -117.5 40.5t-45.5 121.5q0 113 80 179.5t208 66.5zM592 700q-101 -231 -271 -714q-64 -182 -175 -182q-76 0 -76 71q0 37 20 56.5t51 19.5q17 0 32 -5t21 -10l6 -5q0 31 -25 56.5t-77 25.5q-54 0 -91 -33t-37 -91
q0 -119 162 -119q99 0 172.5 48t110.5 145q31 80 102 272t112 296.5t56 125.5q33 14 130 14q0 36 -35 36q-28 0 -93 -3.5t-95 -3.5z" />
    <glyph glyph-name="periodcentered" unicode="&#xb7;" horiz-adv-x="270" 
d="M60 236q0 -58 58 -58q40 0 66 26.5t26 65.5q0 25 -15 41.5t-43 16.5q-38 0 -65 -27.5t-27 -64.5z" />
    <glyph glyph-name="cedilla" unicode="&#xb8;" horiz-adv-x="407" 
d="M258 2l-14 14q-8 -4 -20 -11t-32.5 -29.5t-20.5 -45.5q0 -19 14 -33.5t28 -26.5t14 -25q0 -27 -40 -27q-23 0 -42 10t-26 20l-7 10q-12 -12 -12 -32q0 -27 24.5 -43t67.5 -16q58 0 86.5 22.5t28.5 58.5q0 20 -14 36.5t-31 25.5t-31 20t-14 22q0 12 10.5 24.5t20.5 19.5z
" />
    <glyph glyph-name="ordmasculine" unicode="&#xba;" horiz-adv-x="354" 
d="M182 391q77 0 129.5 53.5t52.5 126.5t-86 73q-71 0 -124 -51.5t-53 -126.5t81 -75zM201 427q-22 0 -22 42q0 55 29.5 101.5t57.5 46.5q20 0 20 -35q0 -59 -27.5 -107t-57.5 -48zM304 341q-18 -19 -49 -19q-15 0 -73 12.5t-68 12.5q-28 0 -46 -22t-18 -58q14 18 49 18
q11 0 67.5 -12t73.5 -12q30 0 47 21.5t17 58.5z" />
    <glyph glyph-name="guillemotright" unicode="&#xbb;" horiz-adv-x="496" 
d="M261 196l6 24q-41 16 -63 49.5t-22 77.5q0 16 3 28t7 15l3 4q-16 13 -46 13q-27 0 -43.5 -16t-16.5 -48q0 -86 124 -132q-54 -13 -91 -28t-64.5 -43.5t-27.5 -66.5q0 -53 52 -53q11 0 22 3t16 7l5 3q-10 12 -10 35q0 73 146 128zM450 196l6 24q-41 15 -63 49t-22 78
q0 16 3 28t6 15l3 4q-16 13 -45 13q-27 0 -44 -16t-17 -48q0 -87 125 -132q-85 -20 -134 -51.5t-49 -86.5q0 -53 52 -53q11 0 21.5 3t15.5 7l6 3q-10 12 -10 35q0 73 146 128z" />
    <glyph glyph-name="onequarter" unicode="&#xbc;" horiz-adv-x="843" 
d="M735 617l-575 -642l-21 42l574 642zM248 594q-44 -149 -88 -245q-36 -4 -80 -4q0 -18 7 -24t22 -6h191q16 0 24 6t8 24l-79 4q56 181 103 291q0 10 -11 10q-8 0 -61 -13t-93 -15q-35 -1 -35 -33zM473 126q0 -21 10.5 -30t33.5 -9h93l-27 -62q-38 -4 -83 -4q0 -30 29 -30
h168q36 0 36 30l-76 4q6 21 23 62h73q30 74 30 90q0 13 -19 13q-17 -61 -40 -61h-29l64 153l-82 -26l-54 -127h-103q116 69 116 152q0 27 -14.5 42.5t-40.5 15.5q-18 0 -31 -8t-16 -16l-4 -8q4 -1 10 -3t15.5 -14.5t9.5 -32.5q0 -75 -92 -131z" />
    <glyph glyph-name="onehalf" unicode="&#xbd;" horiz-adv-x="819" 
d="M735 617l-575 -642l-21 42l574 642zM248 594q-44 -149 -88 -245q-36 -4 -80 -4q0 -18 7 -24t22 -6h191q16 0 24 6t8 24l-79 4q56 181 103 291q0 10 -11 10q-8 0 -61 -13t-93 -15q-35 -1 -35 -33zM452 17q0 -26 31 -26h239q21 73 21 87q0 20 -26 20q-6 -31 -14 -42.5
t-23 -11.5h-126v2q123 67 164 108.5t41 86.5q0 84 -122 84q-65 0 -101.5 -25.5t-36.5 -67.5q0 -56 55 -56q15 0 26 5t15 10l4 5q-20 11 -20 45q0 24 16 39t37 15q20 0 31 -13t11 -36q0 -51 -45.5 -98t-176.5 -131z" />
    <glyph glyph-name="threequarters" unicode="&#xbe;" horiz-adv-x="803" 
d="M693 617l-574 -642l-22 42l575 642zM221 497l-40 -17q0 -19 16 -19q5 0 16.5 5t19.5 5q31 0 31 -41q0 -43 -22 -68t-49 -25q-33 0 -33 33q0 11 5 20t9 12l5 4q-11 20 -42 20q-25 0 -40.5 -14.5t-15.5 -38.5q0 -32 26.5 -48t70.5 -16q71 0 119 32.5t48 88.5q0 28 -19.5 44
t-46.5 16l-20 -2v4q60 17 88.5 38.5t28.5 54.5q0 64 -113 64q-67 0 -100 -24.5t-33 -58.5q0 -47 51 -47q16 0 26.5 5t13.5 10l3 5q-19 8 -19 34q0 23 15 36.5t37 13.5q19 0 31 -10.5t12 -29.5q0 -27 -17 -46.5t-62 -39.5zM433 126q0 -21 10.5 -30t33.5 -9h93l-27 -62
q-38 -4 -83 -4q0 -30 29 -30h168q36 0 36 30l-76 4q6 21 23 62h73q30 74 30 90q0 13 -19 13q-17 -61 -40 -61h-29l64 153l-82 -26l-54 -127h-103q116 69 116 152q0 27 -14.5 42.5t-40.5 15.5q-18 0 -31 -8t-16 -16l-4 -8q4 -1 10 -3t15.5 -14.5t9.5 -32.5q0 -75 -92 -131z
" />
    <glyph glyph-name="questiondown" unicode="&#xbf;" horiz-adv-x="457" 
d="M407 408q0 58 -58 58q-40 0 -66 -26.5t-26 -65.5q0 -25 15 -41.5t43 -16.5q38 0 65 27.5t27 64.5zM193 221q4 -1 10 -3t15.5 -13t9.5 -28q0 -21 -28.5 -42.5t-69.5 -43.5t-82 -48.5t-69.5 -68t-28.5 -90.5q0 -64 48 -95t125 -31q90 0 152 41.5t62 114.5q0 40 -27.5 64
t-80.5 24q-62 0 -92.5 -28.5t-30.5 -67.5q0 -60 54 -60q17 0 27.5 7t12.5 14l3 7q-13 0 -26 12t-13 34q0 52 50 52q46 0 46 -57q0 -58 -35 -92.5t-89 -34.5q-43 0 -67.5 24.5t-24.5 70.5q0 40 20 75t50 58t64.5 46t64.5 40.5t50 40t20 46.5q0 27 -17 43.5t-48 16.5
q-18 0 -32 -7t-18 -14z" />
    <glyph glyph-name="Agrave" unicode="&#xc0;" horiz-adv-x="672" 
d="M578 744l-7 -27q-109 26 -156.5 60t-47.5 81q0 48 61 48q9 -40 47.5 -86t102.5 -76zM561 42q29 -13 91 -13q0 -33 -32 -33q-15 0 -63 2t-68 2q-16 0 -72.5 -2t-71.5 -2q-32 0 -32 33q37 0 64.5 3.5t36.5 6.5l9 3q0 144 8 277q-9 0 -38 0.5t-48 0.5q-76 0 -106 -3
q-74 -133 -145 -275q28 -13 116 -13q0 -33 -34 -33q-13 0 -58.5 2t-53.5 2q-12 0 -46 -2t-47 -2q-31 0 -31 33q33 0 58.5 3.5t33.5 6.5l9 3q13 23 63.5 117t90.5 166t102.5 173t118.5 178q39 0 79 7t61 14l20 7q-23 -220 -23 -484q0 -68 2 -112.5t4 -55.5zM365 354
q49 0 68 1q4 76 10.5 147.5t10.5 105.5l4 33q-15 -2 -20 -2q-79 -111 -176 -282q32 -3 103 -3z" />
    <glyph glyph-name="Aacute" unicode="&#xc1;" horiz-adv-x="672" 
d="M629 858q0 -46 -47.5 -80.5t-156.5 -60.5l-7 27q64 30 102.5 76t47.5 86q61 0 61 -48zM561 42q29 -13 91 -13q0 -33 -32 -33q-15 0 -63 2t-68 2q-16 0 -72.5 -2t-71.5 -2q-32 0 -32 33q37 0 64.5 3.5t36.5 6.5l9 3q0 144 8 277q-9 0 -38 0.5t-48 0.5q-76 0 -106 -3
q-74 -133 -145 -275q28 -13 116 -13q0 -33 -34 -33q-13 0 -58.5 2t-53.5 2q-12 0 -46 -2t-47 -2q-31 0 -31 33q33 0 58.5 3.5t33.5 6.5l9 3q13 23 63.5 117t90.5 166t102.5 173t118.5 178q39 0 79 7t61 14l20 7q-23 -220 -23 -484q0 -68 2 -112.5t4 -55.5zM365 354
q49 0 68 1q4 76 10.5 147.5t10.5 105.5l4 33q-15 -2 -20 -2q-79 -111 -176 -282q32 -3 103 -3z" />
    <glyph glyph-name="Acircumflex" unicode="&#xc2;" horiz-adv-x="672" 
d="M395 723q-20 0 -31.5 10.5t-11.5 27.5l5 27q44 0 85.5 31t68.5 71h35q7 -43 33.5 -72.5t69.5 -29.5q-1 -30 -16 -47.5t-37 -17.5q-30 0 -47.5 23.5t-22.5 49.5t-5 56q-11 -24 -19.5 -40t-24.5 -40t-37 -36.5t-45 -12.5zM561 42q29 -13 91 -13q0 -33 -32 -33q-15 0 -63 2
t-68 2q-16 0 -72.5 -2t-71.5 -2q-32 0 -32 33q37 0 64.5 3.5t36.5 6.5l9 3q0 144 8 277q-9 0 -38 0.5t-48 0.5q-76 0 -106 -3q-74 -133 -145 -275q28 -13 116 -13q0 -33 -34 -33q-13 0 -58.5 2t-53.5 2q-12 0 -46 -2t-47 -2q-31 0 -31 33q33 0 58.5 3.5t33.5 6.5l9 3
q13 23 63.5 117t90.5 166t102.5 173t118.5 178q39 0 79 7t61 14l20 7q-23 -220 -23 -484q0 -68 2 -112.5t4 -55.5zM365 354q49 0 68 1q4 76 10.5 147.5t10.5 105.5l4 33q-15 -2 -20 -2q-79 -111 -176 -282q32 -3 103 -3z" />
    <glyph glyph-name="Atilde" unicode="&#xc3;" horiz-adv-x="672" 
d="M413 720q-17 0 -30 15.5t-13 42.5q0 32 18.5 47.5t45.5 15.5q22 0 70.5 -14t70.5 -14q36 0 36 31q0 10 -4 19t-8 13l-4 5q4 5 18 5q23 0 41 -19.5t18 -54.5q0 -39 -22.5 -60.5t-61.5 -21.5q-34 0 -87 24t-67 24q-20 0 -20 -23q0 -9 3 -16.5t5 -10.5l3 -4q-4 -4 -12 -4z
M553 220q0 -68 2 -112.5t4 -55.5l2 -10q29 -13 91 -13q0 -33 -32 -33q-15 0 -63 2t-68 2q-16 0 -72.5 -2t-71.5 -2q-32 0 -32 33q37 0 64.5 3.5t36.5 6.5l9 3q0 144 8 277q-9 0 -38 0.5t-48 0.5q-76 0 -106 -3q-74 -133 -145 -275q28 -13 116 -13q0 -33 -34 -33
q-13 0 -58.5 2t-53.5 2q-12 0 -46 -2t-47 -2q-31 0 -31 33q33 0 58.5 3.5t33.5 6.5l9 3q13 23 63.5 117t90.5 166t102.5 173t118.5 178q39 0 79 7t61 14l20 7q-23 -220 -23 -484zM365 354q49 0 68 1q4 76 10.5 147.5t10.5 105.5l4 33q-15 -2 -20 -2q-79 -111 -176 -282
q32 -3 103 -3z" />
    <glyph glyph-name="Adieresis" unicode="&#xc4;" horiz-adv-x="672" 
d="M424 740q-56 0 -56 56q0 37 22 60.5t59 23.5q27 0 40.5 -15.5t13.5 -39.5q0 -41 -23 -63t-56 -22zM637 880q27 0 40.5 -15.5t13.5 -39.5q0 -40 -23 -62.5t-55 -22.5q-57 0 -57 56q0 37 22 60.5t59 23.5zM553 220q0 -68 2 -112.5t4 -55.5l2 -10q29 -13 91 -13
q0 -33 -32 -33q-15 0 -63 2t-68 2q-16 0 -72.5 -2t-71.5 -2q-32 0 -32 33q37 0 64.5 3.5t36.5 6.5l9 3q0 144 8 277q-9 0 -38 0.5t-48 0.5q-76 0 -106 -3q-74 -133 -145 -275q28 -13 116 -13q0 -33 -34 -33q-13 0 -58.5 2t-53.5 2q-12 0 -46 -2t-47 -2q-31 0 -31 33
q33 0 58.5 3.5t33.5 6.5l9 3q13 23 63.5 117t90.5 166t102.5 173t118.5 178q39 0 79 7t61 14l20 7q-23 -220 -23 -484zM365 354q49 0 68 1q4 76 10.5 147.5t10.5 105.5l4 33q-15 -2 -20 -2q-79 -111 -176 -282q32 -3 103 -3z" />
    <glyph glyph-name="Aring" unicode="&#xc5;" horiz-adv-x="672" 
d="M497 706q-36 0 -59.5 19t-23.5 56q0 57 38 89t90 32q36 0 59.5 -19t23.5 -56q0 -57 -38.5 -89t-89.5 -32zM529 847q-22 0 -37.5 -15t-15.5 -38q0 -15 9 -24t24 -9q22 0 37.5 15.5t15.5 37.5q0 15 -9 24t-24 9zM561 42q29 -13 91 -13q0 -33 -32 -33q-15 0 -63 2t-68 2
q-16 0 -72.5 -2t-71.5 -2q-32 0 -32 33q37 0 64.5 3.5t36.5 6.5l9 3q0 144 8 277q-9 0 -38 0.5t-48 0.5q-76 0 -106 -3q-74 -133 -145 -275q28 -13 116 -13q0 -33 -34 -33q-13 0 -58.5 2t-53.5 2q-12 0 -46 -2t-47 -2q-31 0 -31 33q33 0 58.5 3.5t33.5 6.5l9 3
q13 23 63.5 117t90.5 166t102.5 173t118.5 178q39 0 79 7t61 14l20 7q-23 -220 -23 -484q0 -68 2 -112.5t4 -55.5zM365 354q49 0 68 1q4 76 10.5 147.5t10.5 105.5l4 33q-15 -2 -20 -2q-79 -111 -176 -282q32 -3 103 -3z" />
    <glyph glyph-name="AE" unicode="&#xc6;" horiz-adv-x="1016" 
d="M764 676q60 0 135.5 3t120.5 7l46 3q-22 -90 -33 -164q-3 -27 -13 -36.5t-26 -9.5l-22 6q16 52 16 99q0 23 -11 34.5t-41 11.5l-166 -2q-42 -90 -106 -270q17 -3 99 -3q47 0 68.5 23.5t35.5 91.5q32 0 32 -21q0 -16 -25.5 -97t-33.5 -116q-3 -18 -10 -24.5t-21 -6.5
l-15 3q16 51 16 77q0 18 -13 26t-48 8l-100 -4q-43 -122 -87 -268l241 5q47 1 70.5 35t37.5 121q41 0 41 -31q0 -23 -20 -92.5t-25 -103.5q-124 19 -354 19q-69 0 -134.5 -2t-77.5 -2q-32 0 -32 33q38 0 66.5 3.5t38.5 6.5l9 3q54 121 110 275q-72 3 -126 3q-82 0 -116 -4
q-113 -155 -190 -274q29 -13 117 -13q0 -33 -32 -33q-16 0 -59.5 2t-55.5 2q-8 0 -47 -2t-53 -2q-31 0 -31 33q35 0 61.5 3.5t35.5 6.5l9 3q166 245 459 638q161 -4 259 -4zM548 358q53 147 90 275q-44 6 -114 6q-34 -48 -204 -282q60 -3 107 -3q75 0 121 4z" />
    <glyph glyph-name="Ccedilla" unicode="&#xc7;" horiz-adv-x="686" 
d="M474 688q45 0 83 -6.5t60.5 -15t39 -17.5t23.5 -15l6 -7l-33 -148q-8 -47 -52 -47q0 118 -29.5 168.5t-113.5 50.5q-118 0 -196.5 -131t-78.5 -312q0 -97 32 -140.5t105 -43.5q89 0 155.5 60t94.5 157q38 0 38 -43q0 -14 -10 -50.5t-20 -65.5l-11 -30q-10 -7 -29.5 -18
t-82.5 -30.5t-131 -22.5q-15 -15 -15 -29q0 -11 14 -22t31 -20t31 -25.5t14 -36.5q0 -36 -28.5 -58.5t-86.5 -22.5q-43 0 -67.5 16t-24.5 43q0 9 3 17t6 11l3 4q3 -4 8 -11t24.5 -18t42.5 -11q40 0 40 27q0 13 -14 25t-28 26.5t-14 33.5q0 26 25 51q-130 4 -184 63t-54 182
q0 199 121 330.5t303 131.5z" />
    <glyph glyph-name="Egrave" unicode="&#xc8;" horiz-adv-x="689" 
d="M430 906q-61 0 -61 -48q0 -47 47.5 -81t156.5 -60l8 27q-64 30 -102.5 76t-48.5 86zM299 633q-44 -152 -107 -323.5t-107 -267.5q-24 -13 -105 -13q0 -17 7 -25t27 -8q8 0 88 2t136 2q93 0 178.5 -4.5t124.5 -9.5l39 -5q4 26 24.5 99.5t20.5 96.5q0 13 -10.5 22t-29.5 9
q-15 -87 -38 -121t-69 -35l-254 -5q19 75 86 268q22 4 112 4q34 0 48 -7.5t14 -26.5q0 -12 -4 -31t-8 -32l-4 -14q7 -3 14 -3q25 0 31 27q9 42 34.5 122t25.5 95q0 21 -32 21q-16 -71 -37.5 -93t-71.5 -22l-106 3q7 25 46 127.5t59 142.5q115 2 173 2q33 0 45 -10.5
t12 -40.5q0 -18 -4 -41.5t-8 -37.5l-4 -15q11 -6 23 -6q31 0 38 46q5 35 13.5 76t14.5 65l5 23q-189 -13 -305 -13q-52 0 -129.5 2t-88.5 2q-34 0 -34 -33q40 0 69 -3.5t39 -7.5z" />
    <glyph glyph-name="Eacute" unicode="&#xc9;" horiz-adv-x="689" 
d="M571 906q-10 -40 -48.5 -86t-102.5 -76l7 -27q110 26 157.5 60.5t47.5 80.5q0 48 -61 48zM299 633q-44 -152 -107 -323.5t-107 -267.5q-24 -13 -105 -13q0 -17 7 -25t27 -8q8 0 88 2t136 2q93 0 178.5 -4.5t124.5 -9.5l39 -5q4 26 24.5 99.5t20.5 96.5q0 13 -10.5 22
t-29.5 9q-15 -87 -38 -121t-69 -35l-254 -5q19 75 86 268q22 4 112 4q34 0 48 -7.5t14 -26.5q0 -12 -4 -31t-8 -32l-4 -14q7 -3 14 -3q25 0 31 27q9 42 34.5 122t25.5 95q0 21 -32 21q-16 -71 -37.5 -93t-71.5 -22l-106 3q7 25 46 127.5t59 142.5q115 2 173 2q33 0 45 -10.5
t12 -40.5q0 -18 -4 -41.5t-8 -37.5l-4 -15q11 -6 23 -6q31 0 38 46q5 35 13.5 76t14.5 65l5 23q-189 -13 -305 -13q-52 0 -129.5 2t-88.5 2q-34 0 -34 -33q40 0 69 -3.5t39 -7.5z" />
    <glyph glyph-name="Ecircumflex" unicode="&#xca;" horiz-adv-x="689" 
d="M548 890h-35q-27 -40 -68.5 -71t-85.5 -31q-5 -10 -5 -27t11.5 -27.5t31.5 -10.5q24 0 45 12.5t37 36.5t24.5 40t19.5 40q0 -30 5 -56t22.5 -49.5t47.5 -23.5q23 0 38 17.5t15 47.5q-43 0 -69.5 29.5t-33.5 72.5zM299 633q-44 -152 -107 -323.5t-107 -267.5
q-24 -13 -105 -13q0 -17 7 -25t27 -8q8 0 88 2t136 2q93 0 178.5 -4.5t124.5 -9.5l39 -5q4 26 24.5 99.5t20.5 96.5q0 13 -10.5 22t-29.5 9q-15 -87 -38 -121t-69 -35l-254 -5q19 75 86 268q22 4 112 4q34 0 48 -7.5t14 -26.5q0 -12 -4 -31t-8 -32l-4 -14q7 -3 14 -3
q25 0 31 27q9 42 34.5 122t25.5 95q0 21 -32 21q-16 -71 -37.5 -93t-71.5 -22l-106 3q7 25 46 127.5t59 142.5q115 2 173 2q33 0 45 -10.5t12 -40.5q0 -18 -4 -41.5t-8 -37.5l-4 -15q11 -6 23 -6q31 0 38 46q5 35 13.5 76t14.5 65l5 23q-189 -13 -305 -13q-52 0 -129.5 2
t-88.5 2q-34 0 -34 -33q40 0 69 -3.5t39 -7.5z" />
    <glyph glyph-name="Edieresis" unicode="&#xcb;" horiz-adv-x="689" 
d="M370 796q0 -56 56 -56q33 0 56 22t23 63q0 24 -13.5 39.5t-40.5 15.5q-37 0 -59 -23.5t-22 -60.5zM558 796q0 -56 57 -56q32 0 55 22.5t23 62.5q0 24 -13.5 39.5t-39.5 15.5q-38 0 -60 -23.5t-22 -60.5zM299 633q-44 -152 -107 -323.5t-107 -267.5q-24 -13 -105 -13
q0 -17 7 -25t27 -8q8 0 88 2t136 2q93 0 178.5 -4.5t124.5 -9.5l39 -5q4 26 24.5 99.5t20.5 96.5q0 13 -10.5 22t-29.5 9q-15 -87 -38 -121t-69 -35l-254 -5q19 75 86 268q22 4 112 4q34 0 48 -7.5t14 -26.5q0 -12 -4 -31t-8 -32l-4 -14q7 -3 14 -3q25 0 31 27
q9 42 34.5 122t25.5 95q0 21 -32 21q-16 -71 -37.5 -93t-71.5 -22l-106 3q7 25 46 127.5t59 142.5q115 2 173 2q33 0 45 -10.5t12 -40.5q0 -18 -4 -41.5t-8 -37.5l-4 -15q11 -6 23 -6q31 0 38 46q5 35 13.5 76t14.5 65l5 23q-189 -13 -305 -13q-52 0 -129.5 2t-88.5 2
q-34 0 -34 -33q40 0 69 -3.5t39 -7.5z" />
    <glyph glyph-name="Igrave" unicode="&#xcc;" horiz-adv-x="407" 
d="M317 906q-61 0 -61 -48q0 -47 47.5 -81t156.5 -60l7 27q-64 30 -102.5 76t-47.5 86zM289 633q-44 -151 -107 -323t-106 -268q-25 -13 -96 -13q0 -17 7 -25t27 -8q14 0 58 2t67 2q20 0 75 -2t78 -2q38 0 38 33q-39 0 -68 3.5t-38 6.5l-10 3q36 124 101.5 316.5
t110.5 274.5q22 14 102 14q0 33 -29 33q-13 0 -62 -2t-71 -2q-28 0 -85 2t-75 2q-33 0 -33 -33q39 0 68 -3.5t39 -7.5z" />
    <glyph glyph-name="Iacute" unicode="&#xcd;" horiz-adv-x="407" 
d="M457 906q-9 -40 -47.5 -86t-102.5 -76l7 -27q109 26 156.5 60.5t47.5 80.5q0 48 -61 48zM289 633q-44 -151 -107 -323t-106 -268q-25 -13 -96 -13q0 -17 7 -25t27 -8q14 0 58 2t67 2q20 0 75 -2t78 -2q38 0 38 33q-39 0 -68 3.5t-38 6.5l-10 3q36 124 101.5 316.5
t110.5 274.5q22 14 102 14q0 33 -29 33q-13 0 -62 -2t-71 -2q-28 0 -85 2t-75 2q-33 0 -33 -33q39 0 68 -3.5t39 -7.5z" />
    <glyph glyph-name="Icircumflex" unicode="&#xce;" horiz-adv-x="407" 
d="M435 890h-36q-27 -40 -68 -71t-85 -31q-5 -10 -5 -27q0 -38 43 -38q71 0 125 129q0 -30 5 -56t22.5 -49.5t47.5 -23.5q23 0 38 17.5t15 47.5q-42 0 -68.5 29.5t-33.5 72.5zM289 633q-44 -151 -107 -323t-106 -268q-25 -13 -96 -13q0 -17 7 -25t27 -8q14 0 58 2t67 2
q20 0 75 -2t78 -2q38 0 38 33q-39 0 -68 3.5t-38 6.5l-10 3q36 124 101.5 316.5t110.5 274.5q22 14 102 14q0 33 -29 33q-13 0 -62 -2t-71 -2q-28 0 -85 2t-75 2q-33 0 -33 -33q39 0 68 -3.5t39 -7.5z" />
    <glyph glyph-name="Idieresis" unicode="&#xcf;" horiz-adv-x="407" 
d="M256 796q0 -56 57 -56q32 0 55 22.5t23 62.5q0 24 -13.5 39.5t-39.5 15.5q-38 0 -60 -23.5t-22 -60.5zM445 796q0 -56 56 -56q33 0 56 22t23 63q0 24 -13.5 39.5t-40.5 15.5q-37 0 -59 -23.5t-22 -60.5zM289 633q-44 -151 -107 -323t-106 -268q-25 -13 -96 -13
q0 -17 7 -25t27 -8q14 0 58 2t67 2q20 0 75 -2t78 -2q38 0 38 33q-39 0 -68 3.5t-38 6.5l-10 3q36 124 101.5 316.5t110.5 274.5q22 14 102 14q0 33 -29 33q-13 0 -62 -2t-71 -2q-28 0 -85 2t-75 2q-33 0 -33 -33q39 0 68 -3.5t39 -7.5z" />
    <glyph glyph-name="Eth" unicode="&#xd0;" horiz-adv-x="857" 
d="M560 688q133 0 195 -62.5t62 -173.5q0 -206 -135 -335.5t-343 -129.5q-43 0 -105 6.5t-85 6.5q-12 0 -64.5 -2t-68.5 -2q-19 0 -27.5 7.5t-8.5 25.5q38 0 66 3.5t36 6.5l9 3q31 61 109 273h-128l12 42h132q66 183 92 276q-26 14 -133 14q0 33 32 33q17 0 84 -2t89 -2
q11 0 75.5 6t104.5 6zM333 29q82 0 149 36t109.5 97t65.5 138t23 161q0 98 -35.5 142t-117.5 44q-21 0 -42 -2.5t-31 -4.5l-11 -3q-27 -56 -109 -280h212l-12 -42h-215q-69 -194 -89 -269q30 -17 103 -17z" />
    <glyph glyph-name="Ntilde" unicode="&#xd1;" horiz-adv-x="770" 
d="M675 881q17 -15 17 -37q0 -31 -36 -31q-23 0 -71.5 14t-69.5 14q-27 0 -45.5 -15.5t-18.5 -47.5q0 -27 13 -42.5t30 -15.5l12 4q-12 11 -12 31q0 23 21 23q13 0 66 -24t88 -24q39 0 61 21.5t22 60.5q0 35 -17.5 54.5t-41.5 19.5q-6 0 -10.5 -1t-6.5 -3zM441 680
q-79 -4 -117 -4q-21 0 -69 2t-63 2q-30 0 -30 -33q40 0 70.5 -3.5t41.5 -7.5l10 -3q-111 -375 -199 -591q-22 -13 -105 -13q0 -33 31 -33q10 0 46 2t56 2q13 0 51 -2t68 -2q32 0 32 33q-40 0 -69 3.5t-38 6.5l-9 3q19 83 77.5 261.5t110.5 304.5q25 -174 59.5 -325.5
t56.5 -216.5l21 -64q28 0 51.5 -3t33.5 -6l10 -3q35 164 65 278.5t53.5 179.5t47.5 100.5t42.5 45t43.5 9.5q20 0 34 -11t18 -22l3 -11q4 2 10 5.5t15.5 19.5t9.5 38q0 30 -19 49t-54 19q-31 0 -55.5 -11.5t-52.5 -46t-54 -96t-57 -163t-65 -245.5q-7 19 -19 58t-42 181.5
t-51 312.5z" />
    <glyph glyph-name="Ograve" unicode="&#xd2;" horiz-adv-x="777" 
d="M417 906q-61 0 -61 -48q0 -47 47.5 -81t156.5 -60l8 27q-64 30 -102.5 76t-48.5 86zM481 688q-192 0 -311.5 -130.5t-119.5 -335.5q0 -127 63 -184t191 -57q99 0 180.5 40t133.5 106.5t80.5 151t28.5 176.5q0 113 -58.5 173t-187.5 60zM183 207q0 117 33 217.5
t96.5 163.5t144.5 63q74 0 105.5 -46t31.5 -155q0 -72 -17.5 -145.5t-50 -137t-87.5 -103.5t-122 -40q-66 0 -100 42.5t-34 140.5z" />
    <glyph glyph-name="Oacute" unicode="&#xd3;" horiz-adv-x="777" 
d="M558 906q-10 -40 -48.5 -86t-102.5 -76l7 -27q110 26 157.5 60.5t47.5 80.5q0 48 -61 48zM481 688q-192 0 -311.5 -130.5t-119.5 -335.5q0 -127 63 -184t191 -57q99 0 180.5 40t133.5 106.5t80.5 151t28.5 176.5q0 113 -58.5 173t-187.5 60zM183 207q0 117 33 217.5
t96.5 163.5t144.5 63q74 0 105.5 -46t31.5 -155q0 -72 -17.5 -145.5t-50 -137t-87.5 -103.5t-122 -40q-66 0 -100 42.5t-34 140.5z" />
    <glyph glyph-name="Ocircumflex" unicode="&#xd4;" horiz-adv-x="777" 
d="M536 890h-36q-27 -41 -68 -71.5t-86 -30.5q-4 -10 -4 -27q0 -38 42 -38q72 0 126 129q0 -30 5 -56t22.5 -49.5t47.5 -23.5q23 0 38 17.5t15 47.5q-43 0 -69 29.5t-33 72.5zM481 688q-192 0 -311.5 -130.5t-119.5 -335.5q0 -127 63 -184t191 -57q99 0 180.5 40
t133.5 106.5t80.5 151t28.5 176.5q0 113 -58.5 173t-187.5 60zM183 207q0 117 33 217.5t96.5 163.5t144.5 63q74 0 105.5 -46t31.5 -155q0 -72 -17.5 -145.5t-50 -137t-87.5 -103.5t-122 -40q-66 0 -100 42.5t-34 140.5z" />
    <glyph glyph-name="Otilde" unicode="&#xd5;" horiz-adv-x="777" 
d="M584 881q16 -15 16 -37q0 -31 -36 -31q-22 0 -70.5 14t-69.5 14q-27 0 -46 -15.5t-19 -47.5q0 -27 13 -42.5t30 -15.5l12 4q-11 11 -11 31q0 23 21 23q14 0 66.5 -24t86.5 -24q39 0 61.5 21.5t22.5 60.5q0 35 -17.5 54.5t-41.5 19.5q-6 0 -10.5 -1t-5.5 -3zM481 688
q-192 0 -311.5 -130.5t-119.5 -335.5q0 -127 63 -184t191 -57q99 0 180.5 40t133.5 106.5t80.5 151t28.5 176.5q0 113 -58.5 173t-187.5 60zM183 207q0 117 33 217.5t96.5 163.5t144.5 63q74 0 105.5 -46t31.5 -155q0 -72 -17.5 -145.5t-50 -137t-87.5 -103.5t-122 -40
q-66 0 -100 42.5t-34 140.5z" />
    <glyph glyph-name="Odieresis" unicode="&#xd6;" horiz-adv-x="777" 
d="M357 796q0 -56 57 -56q32 0 55 22.5t23 62.5q0 24 -13.5 39.5t-40.5 15.5q-37 0 -59 -23.5t-22 -60.5zM546 796q0 -56 56 -56q32 0 55.5 22.5t23.5 62.5q0 24 -14 39.5t-40 15.5q-37 0 -59 -23.5t-22 -60.5zM481 688q-192 0 -311.5 -130.5t-119.5 -335.5q0 -127 63 -184
t191 -57q99 0 180.5 40t133.5 106.5t80.5 151t28.5 176.5q0 113 -58.5 173t-187.5 60zM183 207q0 117 33 217.5t96.5 163.5t144.5 63q74 0 105.5 -46t31.5 -155q0 -72 -17.5 -145.5t-50 -137t-87.5 -103.5t-122 -40q-66 0 -100 42.5t-34 140.5z" />
    <glyph glyph-name="multiply" unicode="&#xd7;" horiz-adv-x="514" 
d="M145 361l49 36l75 -129l159 129l26 -38l-161 -131l76 -131l-48 -37l-75 129l-160 -129l-26 39l161 131z" />
    <glyph glyph-name="Oslash" unicode="&#xd8;" horiz-adv-x="786" 
d="M758 732l-85 -101q63 -59 63 -180q0 -87 -29 -170.5t-82 -150.5t-136 -108t-182 -41q-100 0 -157 30l-63 -74h-60l85 100q-62 57 -62 180q0 209 120.5 340t316.5 131q93 0 148 -30l63 74h60zM183 207q0 -46 7 -77l389 461q-31 60 -117 60q-80 0 -145 -63t-99.5 -164
t-34.5 -217zM320 24q69 0 125 40t89 103.5t51 137t18 145.5q0 50 -8 90l-387 -459q32 -57 112 -57z" />
    <glyph glyph-name="Ugrave" unicode="&#xd9;" horiz-adv-x="734" 
d="M465 906q-61 0 -61 -48q0 -47 47.5 -81t156.5 -60l8 27q-64 30 -102.5 76t-48.5 86zM695 633q-106 -297 -147 -401q-45 -116 -95.5 -157.5t-134.5 -41.5q-63 0 -94.5 28t-31.5 91q0 64 49 203t114 278q23 14 115 14q0 33 -27 33q-21 0 -76.5 -2t-87.5 -2q-15 0 -70.5 2
t-80.5 2q-33 0 -33 -33q41 0 71.5 -3.5t40.5 -7.5l10 -3q-12 -32 -40 -103t-44 -113.5t-35.5 -99t-28.5 -100.5t-9 -78q0 -78 53 -118t177 -40q131 0 195.5 53.5t116.5 195.5l153 403q23 14 109 14q0 33 -28 33q-14 0 -54 -2t-51 -2q-19 0 -59 2t-65 2q-33 0 -33 -33
q40 0 70.5 -3.5t40.5 -7.5z" />
    <glyph glyph-name="Uacute" unicode="&#xda;" horiz-adv-x="734" 
d="M606 906q-10 -40 -48.5 -86t-102.5 -76l7 -27q110 26 157.5 60.5t47.5 80.5q0 48 -61 48zM695 633q-106 -297 -147 -401q-45 -116 -95.5 -157.5t-134.5 -41.5q-63 0 -94.5 28t-31.5 91q0 64 49 203t114 278q23 14 115 14q0 33 -27 33q-21 0 -76.5 -2t-87.5 -2
q-15 0 -70.5 2t-80.5 2q-33 0 -33 -33q41 0 71.5 -3.5t40.5 -7.5l10 -3q-12 -32 -40 -103t-44 -113.5t-35.5 -99t-28.5 -100.5t-9 -78q0 -78 53 -118t177 -40q131 0 195.5 53.5t116.5 195.5l153 403q23 14 109 14q0 33 -28 33q-14 0 -54 -2t-51 -2q-19 0 -59 2t-65 2
q-33 0 -33 -33q40 0 70.5 -3.5t40.5 -7.5z" />
    <glyph glyph-name="Ucircumflex" unicode="&#xdb;" horiz-adv-x="734" 
d="M583 890h-35q-27 -40 -68.5 -71t-85.5 -31q-5 -10 -5 -27t11.5 -27.5t31.5 -10.5q24 0 45 12.5t37 36.5t24.5 40t19.5 40q0 -30 5 -56t22.5 -49.5t47.5 -23.5q23 0 38 17.5t15 47.5q-43 0 -69.5 29.5t-33.5 72.5zM695 633q-106 -297 -147 -401q-45 -116 -95.5 -157.5
t-134.5 -41.5q-63 0 -94.5 28t-31.5 91q0 64 49 203t114 278q23 14 115 14q0 33 -27 33q-21 0 -76.5 -2t-87.5 -2q-15 0 -70.5 2t-80.5 2q-33 0 -33 -33q41 0 71.5 -3.5t40.5 -7.5l10 -3q-12 -32 -40 -103t-44 -113.5t-35.5 -99t-28.5 -100.5t-9 -78q0 -78 53 -118t177 -40
q131 0 195.5 53.5t116.5 195.5l153 403q23 14 109 14q0 33 -28 33q-14 0 -54 -2t-51 -2q-19 0 -59 2t-65 2q-33 0 -33 -33q40 0 70.5 -3.5t40.5 -7.5z" />
    <glyph glyph-name="Udieresis" unicode="&#xdc;" horiz-adv-x="734" 
d="M405 796q0 -56 56 -56q33 0 56 22t23 63q0 24 -13.5 39.5t-40.5 15.5q-37 0 -59 -23.5t-22 -60.5zM593 796q0 -56 57 -56q32 0 55 22.5t23 62.5q0 24 -13.5 39.5t-39.5 15.5q-38 0 -60 -23.5t-22 -60.5zM695 633q-106 -297 -147 -401q-45 -116 -95.5 -157.5t-134.5 -41.5
q-63 0 -94.5 28t-31.5 91q0 64 49 203t114 278q23 14 115 14q0 33 -27 33q-21 0 -76.5 -2t-87.5 -2q-15 0 -70.5 2t-80.5 2q-33 0 -33 -33q41 0 71.5 -3.5t40.5 -7.5l10 -3q-12 -32 -40 -103t-44 -113.5t-35.5 -99t-28.5 -100.5t-9 -78q0 -78 53 -118t177 -40
q131 0 195.5 53.5t116.5 195.5l153 403q23 14 109 14q0 33 -28 33q-14 0 -54 -2t-51 -2q-19 0 -59 2t-65 2q-33 0 -33 -33q40 0 70.5 -3.5t40.5 -7.5z" />
    <glyph glyph-name="Thorn" unicode="&#xde;" horiz-adv-x="695" 
d="M456 534q199 0 199 -153q0 -228 -311 -228h-59q0 20 10.5 29t36.5 9q93 0 143.5 49.5t50.5 137.5q0 61 -24 90t-79 29q-31 0 -49 -3q-72 -185 -151 -452q28 -13 115 -13q0 -33 -37 -33q-23 0 -78 2t-76 2q-22 0 -70.5 -2t-62.5 -2q-20 0 -27 8t-7 25q36 0 62 3.5t34 6.5
l9 3q43 96 106 268t107 323q-27 14 -116 14q0 33 33 33q18 0 75 -2t85 -2q20 0 72 2t74 2q29 0 29 -33q-41 0 -69.5 -3.5t-36.5 -7.5l-8 -3q-21 -37 -47 -102q30 3 67 3z" />
    <glyph glyph-name="germandbls" unicode="&#xdf;" horiz-adv-x="570" 
d="M-100 -108q-1 3 -4 8t-17 13t-34 8q-34 0 -54 -20.5t-20 -54.5q0 -81 112 -81q131 0 221 152.5t167 510.5q57 264 194 264q55 0 55 -60q0 -37 -20.5 -70t-50 -56.5t-59.5 -43t-50.5 -38t-20.5 -34.5q0 -15 28.5 -63.5t56.5 -106t28 -95.5q0 -49 -20 -78.5t-51 -29.5
q-24 0 -38.5 15t-14.5 44q0 24 11 42.5t22 25.5l11 6q-15 22 -51 22q-37 0 -61.5 -25.5t-24.5 -70.5q0 -50 35.5 -72.5t105.5 -22.5q93 0 140 40.5t47 116.5q0 49 -42.5 106t-84.5 98t-42 50q0 8 26 21t63 31t73.5 42t62.5 61.5t26 81.5q0 43 -35.5 72t-110.5 29
q-250 0 -327 -297q-21 -13 -78 -13q-42 0 -42 -39l108 -4q-42 -174 -71 -278.5t-57.5 -175.5t-53 -97.5t-55.5 -26.5q-37 0 -37 38q0 18 8.5 31.5t17.5 18.5z" />
    <glyph glyph-name="agrave" unicode="&#xe0;" horiz-adv-x="561" 
d="M443 478l9 32q-57 34 -95 82.5t-49 79t-11 47.5q-75 0 -75 -61q0 -52 63 -102.5t158 -77.5zM327 195l8 -6q-32 -73 -32 -135q0 -39 20 -56t60 -17q96 0 140 105q12 27 12 51q0 22 -25 22q-15 -54 -39 -88t-49 -34t-25 32q0 53 32 148t64 164l32 69l-9 17q-1 -2 -3.5 -4.5
t-12.5 -10t-21.5 -13.5t-31.5 -11.5t-43 -7.5q-37 12 -75 12q-124 0 -213.5 -98.5t-89.5 -234.5q0 -118 104 -118q61 0 105 51t92 163zM372 381q-17 -53 -37 -104.5t-47 -110t-56.5 -94.5t-54.5 -36q-19 0 -28 13.5t-9 49.5q0 111 62 202t131 91q12 0 22 -3t13 -5z" />
    <glyph glyph-name="aacute" unicode="&#xe1;" horiz-adv-x="561" 
d="M308 510l9 -32q95 27 158 77.5t63 102.5q0 61 -75 61q0 -17 -11 -47.5t-49 -79t-95 -82.5zM327 195l8 -6q-32 -73 -32 -135q0 -39 20 -56t60 -17q96 0 140 105q12 27 12 51q0 22 -25 22q-15 -54 -39 -88t-49 -34t-25 32q0 53 32 148t64 164l32 69l-9 17q-1 -2 -3.5 -4.5
t-12.5 -10t-21.5 -13.5t-31.5 -11.5t-43 -7.5q-37 12 -75 12q-124 0 -213.5 -98.5t-89.5 -234.5q0 -118 104 -118q61 0 105 51t92 163zM372 381q-17 -53 -37 -104.5t-47 -110t-56.5 -94.5t-54.5 -36q-19 0 -28 13.5t-9 49.5q0 111 62 202t131 91q12 0 22 -3t13 -5z" />
    <glyph glyph-name="acircumflex" unicode="&#xe2;" horiz-adv-x="561" 
d="M438 704h-35q-31 -53 -76.5 -93.5t-96.5 -41.5q-7 -7 -7 -26q0 -43 43 -43q76 0 140 151l3 6q0 -34 2 -57.5t8.5 -48.5t21.5 -38t38 -13q28 0 43.5 20.5t15.5 48.5q-36 0 -60 23.5t-32 52t-8 59.5zM327 195l8 -6q-32 -73 -32 -135q0 -39 20 -56t60 -17q96 0 140 105
q12 27 12 51q0 22 -25 22q-15 -54 -39 -88t-49 -34t-25 32q0 53 32 148t64 164l32 69l-9 17q-1 -2 -3.5 -4.5t-12.5 -10t-21.5 -13.5t-31.5 -11.5t-43 -7.5q-37 12 -75 12q-124 0 -213.5 -98.5t-89.5 -234.5q0 -118 104 -118q61 0 105 51t92 163zM372 381
q-17 -53 -37 -104.5t-47 -110t-56.5 -94.5t-54.5 -36q-19 0 -28 13.5t-9 49.5q0 111 62 202t131 91q12 0 22 -3t13 -5z" />
    <glyph glyph-name="atilde" unicode="&#xe3;" horiz-adv-x="561" 
d="M453 684q16 -15 16 -36q0 -32 -36 -32q-22 0 -70.5 14t-70.5 14q-27 0 -45.5 -15.5t-18.5 -47.5q0 -27 13 -42t30 -15l12 3q-11 12 -11 31q0 23 20 23q14 0 67 -23.5t87 -23.5q39 0 61.5 21t22.5 61q0 34 -18 54t-41 20q-6 0 -10.5 -1.5t-6.5 -2.5zM327 195l8 -6
q-32 -73 -32 -135q0 -39 20 -56t60 -17q96 0 140 105q12 27 12 51q0 22 -25 22q-15 -54 -39 -88t-49 -34t-25 32q0 53 32 148t64 164l32 69l-9 17q-1 -2 -3.5 -4.5t-12.5 -10t-21.5 -13.5t-31.5 -11.5t-43 -7.5q-37 12 -75 12q-124 0 -213.5 -98.5t-89.5 -234.5
q0 -118 104 -118q61 0 105 51t92 163zM372 381q-17 -53 -37 -104.5t-47 -110t-56.5 -94.5t-54.5 -36q-19 0 -28 13.5t-9 49.5q0 111 62 202t131 91q12 0 22 -3t13 -5z" />
    <glyph glyph-name="adieresis" unicode="&#xe4;" horiz-adv-x="561" 
d="M227 590q0 -56 56 -56q33 0 56 22.5t23 63.5q0 24 -13.5 39.5t-40.5 15.5q-37 0 -59 -24t-22 -61zM415 590q0 -56 57 -56q32 0 55 22.5t23 63.5q0 24 -13.5 39.5t-39.5 15.5q-37 0 -59.5 -24t-22.5 -61zM327 195l8 -6q-32 -73 -32 -135q0 -39 20 -56t60 -17q96 0 140 105
q12 27 12 51q0 22 -25 22q-15 -54 -39 -88t-49 -34t-25 32q0 53 32 148t64 164l32 69l-9 17q-1 -2 -3.5 -4.5t-12.5 -10t-21.5 -13.5t-31.5 -11.5t-43 -7.5q-37 12 -75 12q-124 0 -213.5 -98.5t-89.5 -234.5q0 -118 104 -118q61 0 105 51t92 163zM372 381
q-17 -53 -37 -104.5t-47 -110t-56.5 -94.5t-54.5 -36q-19 0 -28 13.5t-9 49.5q0 111 62 202t131 91q12 0 22 -3t13 -5z" />
    <glyph glyph-name="aring" unicode="&#xe5;" horiz-adv-x="561" 
d="M298 578q0 -37 23.5 -56t59.5 -19q51 0 89.5 32t38.5 89q0 37 -23.5 56t-59.5 19q-51 0 -89.5 -31.5t-38.5 -89.5zM361 591q0 23 15.5 38t37.5 15q14 0 23 -9t9 -24q0 -22 -15.5 -37.5t-37.5 -15.5q-14 0 -23 9t-9 24zM327 195l8 -6q-32 -73 -32 -135q0 -39 20 -56
t60 -17q96 0 140 105q12 27 12 51q0 22 -25 22q-15 -54 -39 -88t-49 -34t-25 32q0 53 32 148t64 164l32 69l-9 17q-1 -2 -3.5 -4.5t-12.5 -10t-21.5 -13.5t-31.5 -11.5t-43 -7.5q-37 12 -75 12q-124 0 -213.5 -98.5t-89.5 -234.5q0 -118 104 -118q61 0 105 51t92 163z
M372 381q-17 -53 -37 -104.5t-47 -110t-56.5 -94.5t-54.5 -36q-19 0 -28 13.5t-9 49.5q0 111 62 202t131 91q12 0 22 -3t13 -5z" />
    <glyph glyph-name="ae" unicode="&#xe6;" horiz-adv-x="718" 
d="M484 228h-28q0 -27 54 -27q85 0 137.5 40.5t52.5 105.5q0 85 -112 85q-62 0 -121 -31q-59 31 -132 31q-126 0 -217.5 -96.5t-91.5 -236.5q0 -62 25.5 -90t76.5 -28q59 0 104.5 43t80.5 138l8 -5q-12 -20 -12 -52q0 -124 130 -124q103 0 156 96q18 36 18 54q0 23 -28 23
q-16 -52 -46.5 -89.5t-69.5 -37.5q-47 0 -47 78q0 114 51.5 202.5t100.5 88.5q34 0 34 -46q0 -54 -34 -88t-90 -34zM379 381q-113 -344 -203 -344q-19 0 -27.5 13.5t-8.5 46.5q0 111 62 202.5t136 91.5q13 0 23 -2.5t14 -4.5z" />
    <glyph glyph-name="ccedilla" unicode="&#xe7;" horiz-adv-x="443" 
d="M307 432q57 0 86 -23t29 -62q0 -42 -24.5 -66.5t-61.5 -24.5q-34 0 -47 19q12 5 27.5 27t15.5 52q0 20 -9.5 31t-24.5 11q-32 0 -67 -41.5t-59 -110.5t-24 -140q0 -42 12 -59.5t39 -17.5q33 0 62 34t48 95q13 0 20 -8t7 -19q0 -30 -25 -66q-25 -40 -57 -60t-81 -22
q-15 -15 -15 -29q0 -11 14 -22t31 -20t31 -25.5t14 -36.5q0 -36 -28.5 -58.5t-86.5 -22.5q-43 0 -67.5 16t-24.5 43q0 9 3 17t6 11l3 4q3 -4 8 -11t24.5 -18t42.5 -11q40 0 40 27q0 13 -14 25t-28 26.5t-14 33.5q0 26 26 52q-107 12 -107 134q0 130 82 223t194 93z" />
    <glyph glyph-name="egrave" unicode="&#xe8;" horiz-adv-x="443" 
d="M396 478l9 32q-57 34 -95 82.5t-49 79t-11 47.5q-75 0 -75 -61q0 -52 63 -102.5t158 -77.5zM209 228h-28q0 -27 54 -27q85 0 136 40t51 106q0 85 -111 85q-117 0 -198.5 -95.5t-81.5 -218.5q0 -73 34 -105t99 -32q101 0 154 96q18 33 18 54q0 23 -28 23q-16 -53 -46 -90
t-68 -37q-46 0 -46 78q0 114 50.5 202.5t99.5 88.5q34 0 34 -46q0 -54 -34 -88t-89 -34z" />
    <glyph glyph-name="eacute" unicode="&#xe9;" horiz-adv-x="443" 
d="M261 510l9 -32q95 27 158 77.5t63 102.5q0 61 -75 61q0 -17 -11 -47.5t-49 -79t-95 -82.5zM209 228h-28q0 -27 54 -27q85 0 136 40t51 106q0 85 -111 85q-117 0 -198.5 -95.5t-81.5 -218.5q0 -73 34 -105t99 -32q101 0 154 96q18 33 18 54q0 23 -28 23q-16 -53 -46 -90
t-68 -37q-46 0 -46 78q0 114 50.5 202.5t99.5 88.5q34 0 34 -46q0 -54 -34 -88t-89 -34z" />
    <glyph glyph-name="ecircumflex" unicode="&#xea;" horiz-adv-x="443" 
d="M391 704h-35q-31 -53 -76.5 -93.5t-96.5 -41.5q-7 -7 -7 -26q0 -43 43 -43q76 0 140 151l3 6q0 -34 2 -57.5t8.5 -48.5t21.5 -38t38 -13q28 0 43.5 20.5t15.5 48.5q-36 0 -60 23.5t-32 52t-8 59.5zM209 228h-28q0 -27 54 -27q85 0 136 40t51 106q0 85 -111 85
q-117 0 -198.5 -95.5t-81.5 -218.5q0 -73 34 -105t99 -32q101 0 154 96q18 33 18 54q0 23 -28 23q-16 -53 -46 -90t-68 -37q-46 0 -46 78q0 114 50.5 202.5t99.5 88.5q34 0 34 -46q0 -54 -34 -88t-89 -34z" />
    <glyph glyph-name="edieresis" unicode="&#xeb;" horiz-adv-x="443" 
d="M180 590q0 -56 56 -56q33 0 56 22.5t23 63.5q0 24 -13.5 39.5t-40.5 15.5q-37 0 -59 -24t-22 -61zM368 590q0 -56 57 -56q32 0 55 22.5t23 63.5q0 24 -13.5 39.5t-39.5 15.5q-37 0 -59.5 -24t-22.5 -61zM209 228h-28q0 -27 54 -27q85 0 136 40t51 106q0 85 -111 85
q-117 0 -198.5 -95.5t-81.5 -218.5q0 -73 34 -105t99 -32q101 0 154 96q18 33 18 54q0 23 -28 23q-16 -53 -46 -90t-68 -37q-46 0 -46 78q0 114 50.5 202.5t99.5 88.5q34 0 34 -46q0 -54 -34 -88t-89 -34z" />
    <glyph glyph-name="igrave" unicode="&#xec;" horiz-adv-x="329" 
d="M299 478l9 32q-57 34 -95 82.5t-49 79t-11 47.5q-75 0 -75 -61q0 -52 63 -102.5t158 -77.5zM60 260q41 119 77 119q19 0 19 -18q0 -23 -49 -137t-49 -166q0 -77 85 -77q51 0 84.5 24.5t57.5 78.5q13 32 13 53q0 23 -26 23q-34 -123 -83 -123q-26 0 -26 29
q0 35 53.5 152.5t53.5 151.5q0 28 -21 45t-62 17q-44 0 -74 -17.5t-52 -57.5q-30 -55 -30 -77q0 -20 29 -20z" />
    <glyph glyph-name="iacute" unicode="&#xed;" horiz-adv-x="329" 
d="M165 510l9 -32q95 27 158 77.5t63 102.5q0 61 -75 61q0 -17 -11 -47.5t-49 -79t-95 -82.5zM60 260q41 119 77 119q19 0 19 -18q0 -23 -49 -137t-49 -166q0 -77 85 -77q51 0 84.5 24.5t57.5 78.5q13 32 13 53q0 23 -26 23q-34 -123 -83 -123q-26 0 -26 29q0 35 53.5 152.5
t53.5 151.5q0 28 -21 45t-62 17q-44 0 -74 -17.5t-52 -57.5q-30 -55 -30 -77q0 -20 29 -20z" />
    <glyph glyph-name="icircumflex" unicode="&#xee;" horiz-adv-x="329" 
d="M294 704h-35q-31 -53 -76.5 -93.5t-96.5 -41.5q-7 -7 -7 -26q0 -43 43 -43q76 0 140 151l3 6q0 -34 2 -57.5t8.5 -48.5t21.5 -38t38 -13q28 0 43.5 20.5t15.5 48.5q-36 0 -60 23.5t-32 52t-8 59.5zM60 260q41 119 77 119q19 0 19 -18q0 -23 -49 -137t-49 -166
q0 -77 85 -77q51 0 84.5 24.5t57.5 78.5q13 32 13 53q0 23 -26 23q-34 -123 -83 -123q-26 0 -26 29q0 35 53.5 152.5t53.5 151.5q0 28 -21 45t-62 17q-44 0 -74 -17.5t-52 -57.5q-30 -55 -30 -77q0 -20 29 -20z" />
    <glyph glyph-name="idieresis" unicode="&#xef;" horiz-adv-x="329" 
d="M84 590q0 -56 56 -56q33 0 56 22.5t23 63.5q0 24 -13.5 39.5t-40.5 15.5q-37 0 -59 -24t-22 -61zM272 590q0 -56 57 -56q32 0 55 22.5t23 63.5q0 24 -13.5 39.5t-39.5 15.5q-37 0 -59.5 -24t-22.5 -61zM60 260q41 119 77 119q19 0 19 -18q0 -23 -49 -137t-49 -166
q0 -77 85 -77q51 0 84.5 24.5t57.5 78.5q13 32 13 53q0 23 -26 23q-34 -123 -83 -123q-26 0 -26 29q0 35 53.5 152.5t53.5 151.5q0 28 -21 45t-62 17q-44 0 -74 -17.5t-52 -57.5q-30 -55 -30 -77q0 -20 29 -20z" />
    <glyph glyph-name="eth" unicode="&#xf0;" horiz-adv-x="485" 
d="M485 628l-99 -41q59 -104 59 -247q0 -159 -81.5 -259t-202.5 -100q-64 0 -97 30.5t-33 101.5q0 72 34.5 144.5t100.5 123.5t144 51l23 -4q-15 65 -44 118l-164 -68v46l140 58q-35 48 -83 74l64 66q69 -35 116 -99l123 51v-46zM186 20q36 0 71 55.5t55 126.5t20 124
q0 71 -42 71q-31 0 -66 -50t-57.5 -123.5t-22.5 -137.5q0 -66 42 -66z" />
    <glyph glyph-name="ntilde" unicode="&#xf1;" 
d="M464 684q16 -15 16 -36q0 -32 -36 -32q-22 0 -70.5 14t-70.5 14q-27 0 -45.5 -15.5t-18.5 -47.5q0 -27 13 -42t30 -15l12 3q-11 12 -11 31q0 23 20 23q14 0 67 -23.5t87 -23.5q39 0 61.5 21t22.5 61q0 34 -18 54t-41 20q-6 0 -10.5 -1.5t-5.5 -2.5zM176 -9
q46 163 106.5 270t95.5 107q19 0 19 -22q0 -17 -44 -126.5t-44 -161.5q0 -77 85 -77q97 0 143 103q14 30 14 53t-28 23q-15 -55 -37.5 -89t-47.5 -34q-26 0 -26 30q0 35 52.5 147.5t52.5 148.5q0 31 -20.5 50t-58.5 19q-43 0 -83.5 -30t-68 -72.5t-49 -85t-31.5 -72.5
l-10 -30l-9 5q13 52 30.5 103t27.5 79.5t10 42.5q0 60 -75 60q-40 0 -68.5 -15.5t-51.5 -56.5q-29 -47 -29 -77q0 -23 29 -23q39 119 77 119q16 0 16 -19q0 -16 -40 -142t-40 -165q0 -35 22.5 -48.5t80.5 -13.5z" />
    <glyph glyph-name="ograve" unicode="&#xf2;" horiz-adv-x="471" 
d="M396 478l9 32q-57 34 -95 82.5t-49 79t-11 47.5q-75 0 -75 -61q0 -52 63 -102.5t158 -77.5zM162 -19q82 0 147.5 50t98 122.5t32.5 149.5q0 129 -136 129q-82 0 -146 -49t-95.5 -122t-31.5 -153q0 -68 32.5 -97.5t98.5 -29.5zM178 19q-37 0 -37 62q0 71 24 145.5
t59.5 122.5t68.5 48q36 0 36 -63q0 -61 -22 -135t-58 -127t-71 -53z" />
    <glyph glyph-name="oacute" unicode="&#xf3;" horiz-adv-x="471" 
d="M262 510l9 -32q95 27 158 77.5t63 102.5q0 61 -75 61q0 -17 -11 -47.5t-49 -79t-95 -82.5zM162 -19q82 0 147.5 50t98 122.5t32.5 149.5q0 129 -136 129q-82 0 -146 -49t-95.5 -122t-31.5 -153q0 -68 32.5 -97.5t98.5 -29.5zM178 19q-37 0 -37 62q0 71 24 145.5
t59.5 122.5t68.5 48q36 0 36 -63q0 -61 -22 -135t-58 -127t-71 -53z" />
    <glyph glyph-name="ocircumflex" unicode="&#xf4;" horiz-adv-x="471" 
d="M391 704h-35q-31 -53 -76.5 -93.5t-96.5 -41.5q-7 -7 -7 -26q0 -43 43 -43q76 0 140 151l3 6q0 -34 2 -57.5t8.5 -48.5t21.5 -38t38 -13q28 0 43.5 20.5t15.5 48.5q-36 0 -60 23.5t-32 52t-8 59.5zM162 -19q82 0 147.5 50t98 122.5t32.5 149.5q0 129 -136 129
q-82 0 -146 -49t-95.5 -122t-31.5 -153q0 -68 32.5 -97.5t98.5 -29.5zM178 19q-37 0 -37 62q0 71 24 145.5t59.5 122.5t68.5 48q36 0 36 -63q0 -61 -22 -135t-58 -127t-71 -53z" />
    <glyph glyph-name="otilde" unicode="&#xf5;" horiz-adv-x="471" 
d="M407 684q16 -15 16 -36q0 -32 -36 -32q-22 0 -70.5 14t-70.5 14q-27 0 -45.5 -15.5t-18.5 -47.5q0 -27 13 -42t30 -15l12 3q-11 12 -11 31q0 23 20 23q14 0 67 -23.5t87 -23.5q39 0 61.5 21t22.5 61q0 34 -18 54t-41 20q-6 0 -10.5 -1.5t-6.5 -2.5zM162 -19
q82 0 147.5 50t98 122.5t32.5 149.5q0 129 -136 129q-82 0 -146 -49t-95.5 -122t-31.5 -153q0 -68 32.5 -97.5t98.5 -29.5zM178 19q-37 0 -37 62q0 71 24 145.5t59.5 122.5t68.5 48q36 0 36 -63q0 -61 -22 -135t-58 -127t-71 -53z" />
    <glyph glyph-name="odieresis" unicode="&#xf6;" horiz-adv-x="471" 
d="M181 590q0 -56 56 -56q33 0 56 22.5t23 63.5q0 24 -13.5 39.5t-40.5 15.5q-37 0 -59 -24t-22 -61zM369 590q0 -56 57 -56q32 0 55 22.5t23 63.5q0 24 -13.5 39.5t-39.5 15.5q-37 0 -59.5 -24t-22.5 -61zM162 -19q82 0 147.5 50t98 122.5t32.5 149.5q0 129 -136 129
q-82 0 -146 -49t-95.5 -122t-31.5 -153q0 -68 32.5 -97.5t98.5 -29.5zM178 19q-37 0 -37 62q0 71 24 145.5t59.5 122.5t68.5 48q36 0 36 -63q0 -61 -22 -135t-58 -127t-71 -53z" />
    <glyph glyph-name="divide" unicode="&#xf7;" horiz-adv-x="466" 
d="M213 343q0 -21 12.5 -33t33.5 -12q32 0 54 20t22 51q0 45 -47 45q-29 0 -52 -19.5t-23 -51.5zM79 259h327l-20 -60h-326zM130 89q0 -21 12.5 -33t33.5 -12q32 0 54 20t22 51q0 45 -47 45q-29 0 -52 -19.5t-23 -51.5z" />
    <glyph glyph-name="oslash" unicode="&#xf8;" horiz-adv-x="493" 
d="M52 -45l38 44q31 -18 80 -18q83 0 150 52t100 123.5t33 142.5q0 56 -24 88l64 74h-51l-42 -48q-31 19 -77 19q-81 0 -148 -51t-101 -123.5t-34 -144.5q0 -58 21 -89l-61 -69h52zM337 341l-183 -210q11 98 56.5 182t88.5 84q33 0 38 -56zM156 72l183 211q-12 -90 -55 -177
t-91 -87q-34 0 -37 53z" />
    <glyph glyph-name="ugrave" unicode="&#xf9;" 
d="M430 478l9 32q-57 34 -95 82.5t-49 79t-11 47.5q-75 0 -75 -61q0 -52 63 -102.5t158 -77.5zM534 423q-22 10 -58 10q-68 0 -89 -63q-27 -77 -47.5 -129.5t-46 -103t-51.5 -75.5t-53 -25q-30 0 -30 32q0 36 52 152t52 150q0 61 -77 61q-99 0 -143 -102q-12 -29 -12 -48
q0 -22 26 -22q39 119 81 119q17 0 17 -18t-50.5 -135.5t-50.5 -160.5q0 -84 88 -84q38 0 68 14.5t53.5 46.5t38 58.5t36.5 74.5q2 5 3.5 8t3.5 7.5t4 8.5l8 -6q-31 -79 -31 -143q0 -69 78 -69q99 0 139 105q12 33 12 51q0 23 -27 23q-16 -57 -38.5 -90t-46.5 -33
q-27 0 -27 32q0 49 29.5 137.5t58.5 152.5z" />
    <glyph glyph-name="uacute" unicode="&#xfa;" 
d="M295 510l9 -32q95 27 158 77.5t63 102.5q0 61 -75 61q0 -17 -11 -47.5t-49 -79t-95 -82.5zM534 423q-22 10 -58 10q-68 0 -89 -63q-27 -77 -47.5 -129.5t-46 -103t-51.5 -75.5t-53 -25q-30 0 -30 32q0 36 52 152t52 150q0 61 -77 61q-99 0 -143 -102q-12 -29 -12 -48
q0 -22 26 -22q39 119 81 119q17 0 17 -18t-50.5 -135.5t-50.5 -160.5q0 -84 88 -84q38 0 68 14.5t53.5 46.5t38 58.5t36.5 74.5q2 5 3.5 8t3.5 7.5t4 8.5l8 -6q-31 -79 -31 -143q0 -69 78 -69q99 0 139 105q12 33 12 51q0 23 -27 23q-16 -57 -38.5 -90t-46.5 -33
q-27 0 -27 32q0 49 29.5 137.5t58.5 152.5z" />
    <glyph glyph-name="ucircumflex" unicode="&#xfb;" 
d="M425 704h-35q-31 -53 -76.5 -93.5t-96.5 -41.5q-7 -7 -7 -26q0 -43 43 -43q76 0 140 151l3 6q0 -34 2 -57.5t8.5 -48.5t21.5 -38t38 -13q28 0 43.5 20.5t15.5 48.5q-36 0 -60 23.5t-32 52t-8 59.5zM534 423q-22 10 -58 10q-68 0 -89 -63q-27 -77 -47.5 -129.5t-46 -103
t-51.5 -75.5t-53 -25q-30 0 -30 32q0 36 52 152t52 150q0 61 -77 61q-99 0 -143 -102q-12 -29 -12 -48q0 -22 26 -22q39 119 81 119q17 0 17 -18t-50.5 -135.5t-50.5 -160.5q0 -84 88 -84q38 0 68 14.5t53.5 46.5t38 58.5t36.5 74.5q2 5 3.5 8t3.5 7.5t4 8.5l8 -6
q-31 -79 -31 -143q0 -69 78 -69q99 0 139 105q12 33 12 51q0 23 -27 23q-16 -57 -38.5 -90t-46.5 -33q-27 0 -27 32q0 49 29.5 137.5t58.5 152.5z" />
    <glyph glyph-name="udieresis" unicode="&#xfc;" 
d="M214 590q0 -56 56 -56q33 0 56 22.5t23 63.5q0 24 -13.5 39.5t-40.5 15.5q-37 0 -59 -24t-22 -61zM402 590q0 -56 57 -56q32 0 55 22.5t23 63.5q0 24 -13.5 39.5t-39.5 15.5q-37 0 -59.5 -24t-22.5 -61zM534 423q-22 10 -58 10q-68 0 -89 -63q-27 -77 -47.5 -129.5
t-46 -103t-51.5 -75.5t-53 -25q-30 0 -30 32q0 36 52 152t52 150q0 61 -77 61q-99 0 -143 -102q-12 -29 -12 -48q0 -22 26 -22q39 119 81 119q17 0 17 -18t-50.5 -135.5t-50.5 -160.5q0 -84 88 -84q38 0 68 14.5t53.5 46.5t38 58.5t36.5 74.5q2 5 3.5 8t3.5 7.5t4 8.5l8 -6
q-31 -79 -31 -143q0 -69 78 -69q99 0 139 105q12 33 12 51q0 23 -27 23q-16 -57 -38.5 -90t-46.5 -33q-27 0 -27 32q0 49 29.5 137.5t58.5 152.5z" />
    <glyph glyph-name="thorn" unicode="&#xfe;" horiz-adv-x="524" 
d="M162 663q0 36 44 36q57 0 122 11.5t68 11.5q18 0 18 -19q0 -9 -28.5 -63t-89.5 -175.5t-119 -252.5l11 -7q51 117 95 172t102 55q49 0 74 -30t25 -84q0 -137 -79.5 -237t-194.5 -100q-21 0 -39 5t-25 10l-8 6q-27 -60 -64 -185q55 -10 140 -10q0 -32 -35 -32q-7 0 -73 2
t-89 2q-16 0 -60.5 -2t-52.5 -2q-34 0 -34 32q28 0 53 4t35 8l11 4q155 524 310 821q-30 19 -117 19zM153 53q18 -30 58 -30q39 0 75.5 45.5t58 114t21.5 135.5q0 65 -31 65t-90 -109.5t-92 -220.5z" />
    <glyph glyph-name="ydieresis" unicode="&#xff;" horiz-adv-x="506" 
d="M204 590q0 -56 56 -56q33 0 56 22.5t23 63.5q0 24 -13.5 39.5t-40.5 15.5q-37 0 -59 -24t-22 -61zM392 590q0 -56 57 -56q32 0 55 22.5t23 63.5q0 24 -13.5 39.5t-39.5 15.5q-37 0 -59.5 -24t-22.5 -61zM526 423q-20 10 -52 10q-74 0 -95 -65q-4 -10 -15.5 -43t-17.5 -49
l-18 -48t-20.5 -49.5t-21 -43.5t-23.5 -40.5t-24 -29.5t-27 -21.5t-28 -6.5q-31 0 -31 29q0 40 55.5 155t55.5 150q0 61 -81 61q-99 0 -141 -100q-13 -31 -13 -50q0 -22 24 -22q42 119 82 119q18 0 18 -18q0 -21 -53 -138.5t-53 -164.5q0 -77 85 -77q41 0 72 14.5t56 48.5
t41 65t40 88l8 -7q-29 -73 -45 -127q-37 -139 -83.5 -199t-109.5 -60q-60 0 -60 53q0 27 15.5 41.5t40.5 14.5q0 7 -4.5 16t-20 18t-39.5 9q-40 0 -64.5 -25t-24.5 -68q0 -98 138 -98q135 0 209 79t121 246q32 111 58 194t36 111z" />
    <glyph glyph-name="Amacron" unicode="&#x100;" horiz-adv-x="672" 
d="M644 758h-265l22 77h265zM553 220q0 -68 2 -112.5t4 -55.5l2 -10q29 -13 91 -13q0 -33 -32 -33q-15 0 -63 2t-68 2q-16 0 -72.5 -2t-71.5 -2q-32 0 -32 33q37 0 64.5 3.5t36.5 6.5l9 3q0 144 8 277q-9 0 -38 0.5t-48 0.5q-76 0 -106 -3q-74 -133 -145 -275
q28 -13 116 -13q0 -33 -34 -33q-13 0 -58.5 2t-53.5 2q-12 0 -46 -2t-47 -2q-31 0 -31 33q33 0 58.5 3.5t33.5 6.5l9 3q13 23 63.5 117t90.5 166t102.5 173t118.5 178q39 0 79 7t61 14l20 7q-23 -220 -23 -484zM365 354q49 0 68 1q4 76 10.5 147.5t10.5 105.5l4 33
q-15 -2 -20 -2q-79 -111 -176 -282q32 -3 103 -3z" />
    <glyph glyph-name="amacron" unicode="&#x101;" horiz-adv-x="561" 
d="M507 540l22 77h-265l-22 -77h265zM327 195l8 -6q-32 -73 -32 -135q0 -39 20 -56t60 -17q96 0 140 105q12 27 12 51q0 22 -25 22q-15 -54 -39 -88t-49 -34t-25 32q0 53 32 148t64 164l32 69l-9 17q-1 -2 -3.5 -4.5t-12.5 -10t-21.5 -13.5t-31.5 -11.5t-43 -7.5
q-37 12 -75 12q-124 0 -213.5 -98.5t-89.5 -234.5q0 -118 104 -118q61 0 105 51t92 163zM372 381q-17 -53 -37 -104.5t-47 -110t-56.5 -94.5t-54.5 -36q-19 0 -28 13.5t-9 49.5q0 111 62 202t131 91q12 0 22 -3t13 -5z" />
    <glyph glyph-name="Abreve" unicode="&#x102;" horiz-adv-x="672" 
d="M493 729q-100 0 -100 89q0 14 2.5 27.5t4.5 20.5l2 7l28 11q-3 -13 -3 -27q0 -57 75 -57q92 0 125 84l23 -11q-34 -144 -157 -144zM561 42q29 -13 91 -13q0 -33 -32 -33q-15 0 -63 2t-68 2q-16 0 -72.5 -2t-71.5 -2q-32 0 -32 33q37 0 64.5 3.5t36.5 6.5l9 3q0 144 8 277
q-9 0 -38 0.5t-48 0.5q-76 0 -106 -3q-74 -133 -145 -275q28 -13 116 -13q0 -33 -34 -33q-13 0 -58.5 2t-53.5 2q-12 0 -46 -2t-47 -2q-31 0 -31 33q33 0 58.5 3.5t33.5 6.5l9 3q13 23 63.5 117t90.5 166t102.5 173t118.5 178q39 0 79 7t61 14l20 7q-23 -220 -23 -484
q0 -68 2 -112.5t4 -55.5zM365 354q49 0 68 1q4 76 10.5 147.5t10.5 105.5l4 33q-15 -2 -20 -2q-79 -111 -176 -282q32 -3 103 -3z" />
    <glyph glyph-name="abreve" unicode="&#x103;" horiz-adv-x="561" 
d="M531 656l-27 12q-28 -101 -136 -101q-77 0 -77 73l3 28l-29 -9q-7 -25 -7 -52q0 -58 25.5 -86.5t82.5 -28.5q128 0 165 164zM327 195l8 -6q-32 -73 -32 -135q0 -39 20 -56t60 -17q96 0 140 105q12 27 12 51q0 22 -25 22q-15 -54 -39 -88t-49 -34t-25 32q0 53 32 148
t64 164l32 69l-9 17q-1 -2 -3.5 -4.5t-12.5 -10t-21.5 -13.5t-31.5 -11.5t-43 -7.5q-37 12 -75 12q-124 0 -213.5 -98.5t-89.5 -234.5q0 -118 104 -118q61 0 105 51t92 163zM372 381q-17 -53 -37 -104.5t-47 -110t-56.5 -94.5t-54.5 -36q-19 0 -28 13.5t-9 49.5
q0 111 62 202t131 91q12 0 22 -3t13 -5z" />
    <glyph glyph-name="Aogonek" unicode="&#x104;" horiz-adv-x="672" 
d="M561 42q29 -13 91 -13q0 -33 -32 -33q-13 0 -57 2q-3 -2 -8 -7q-31 -27 -48.5 -44t-38 -47.5t-20.5 -54.5q0 -34 35 -34q16 0 29.5 6.5t19.5 12.5l6 7q10 -4 10 -20q0 -24 -25 -44t-83 -20q-92 0 -92 74q0 22 11 43.5t25.5 37t40 33.5t42 27.5t44.5 24.5q7 4 11 6l-33 1
q-16 0 -72.5 -2t-71.5 -2q-32 0 -32 33q37 0 64.5 3.5t36.5 6.5l9 3q0 144 8 277q-9 0 -38 0.5t-48 0.5q-76 0 -106 -3q-74 -133 -145 -275q28 -13 116 -13q0 -33 -34 -33q-13 0 -58.5 2t-53.5 2q-12 0 -46 -2t-47 -2q-31 0 -31 33q33 0 58.5 3.5t33.5 6.5l9 3
q13 23 63.5 117t90.5 166t102.5 173t118.5 178q39 0 79 7t61 14l20 7q-23 -220 -23 -484q0 -68 2 -112.5t4 -55.5zM365 354q49 0 68 1q4 76 10.5 147.5t10.5 105.5l4 33q-15 -2 -20 -2q-79 -111 -176 -282q32 -3 103 -3z" />
    <glyph glyph-name="aogonek" unicode="&#x105;" horiz-adv-x="561" 
d="M510 159q25 0 25 -22q0 -24 -12 -51q-21 -51 -55 -77q-4 -4 -21.5 -19.5t-27 -24t-25 -25.5t-24 -29.5t-15 -28.5t-6.5 -30q0 -34 35 -34q16 0 29.5 6t19.5 12l6 7q9 -4 9 -19q0 -24 -25 -44t-83 -20q-92 0 -92 73q0 44 35.5 79t94.5 69q-38 1 -56.5 18t-18.5 55
q0 28 8 61.5t16 53.5l8 20l-8 6q-48 -112 -92 -163t-105 -51q-104 0 -104 118q0 136 89.5 234.5t213.5 98.5q17 0 35.5 -3t29.5 -6l10 -3q36 3 64 14.5t38 21.5l10 11l9 -17q-14 -29 -35.5 -76t-57 -149.5t-35.5 -155.5q0 -32 25 -32t49 34t39 88zM177 36q25 0 54.5 36
t56.5 94.5t47 110t37 104.5q-11 11 -39 11q-69 0 -131 -91t-62 -202q0 -36 9 -49.5t28 -13.5z" />
    <glyph glyph-name="Cacute" unicode="&#x106;" horiz-adv-x="686" 
d="M544 906q-10 -40 -48.5 -86t-102.5 -76l7 -27q109 26 156.5 60.5t47.5 80.5q0 48 -60 48zM567 52q41 114 41 146q0 43 -38 43q-28 -97 -94.5 -157t-155.5 -60q-73 0 -105 43.5t-32 140.5q0 181 78.5 312t196.5 131q84 0 113.5 -50.5t29.5 -168.5q44 0 52 47l33 148
l-6.5 6.5t-22.5 15t-40 18.5t-60 14.5t-83 6.5q-182 0 -303 -131.5t-121 -330.5q0 -127 57.5 -186t195.5 -59q73 0 139 17.5t96 35.5z" />
    <glyph glyph-name="cacute" unicode="&#x107;" horiz-adv-x="443" 
d="M247 510l9 -32q95 27 158 77.5t63 102.5q0 61 -75 61q0 -17 -11 -47.5t-49 -79t-95 -82.5zM289 275q13 -19 47 -19q37 0 61.5 24.5t24.5 66.5q0 39 -29 62t-86 23q-112 0 -194 -93t-82 -223q0 -135 132 -135q53 0 87.5 20t60.5 62q25 36 25 66q0 11 -7 19t-20 8
q-19 -61 -48 -95t-62 -34q-27 0 -39 17.5t-12 59.5q0 71 24 140t59 110.5t67 41.5q15 0 24.5 -11t9.5 -31q0 -30 -15.5 -52t-27.5 -27z" />
    <glyph glyph-name="Ccircumflex" unicode="&#x108;" horiz-adv-x="686" 
d="M521 890h-35q-27 -40 -68.5 -71t-85.5 -31q-5 -10 -5 -27t11.5 -27.5t31.5 -10.5q24 0 45 12.5t37 36.5t24.5 40t19.5 40q0 -30 5 -56t22.5 -49.5t47.5 -23.5q22 0 37 17.5t16 47.5q-43 0 -69.5 29.5t-33.5 72.5zM567 52q41 114 41 146q0 43 -38 43q-28 -97 -94.5 -157
t-155.5 -60q-73 0 -105 43.5t-32 140.5q0 181 78.5 312t196.5 131q84 0 113.5 -50.5t29.5 -168.5q44 0 52 47l33 148l-6.5 6.5t-22.5 15t-40 18.5t-60 14.5t-83 6.5q-182 0 -303 -131.5t-121 -330.5q0 -127 57.5 -186t195.5 -59q73 0 139 17.5t96 35.5z" />
    <glyph glyph-name="ccircumflex" unicode="&#x109;" horiz-adv-x="443" 
d="M377 704h-35q-31 -53 -76.5 -93.5t-96.5 -41.5q-7 -7 -7 -26q0 -43 43 -43q76 0 140 151l3 6q0 -34 2 -57.5t8.5 -48.5t21.5 -38t38 -13q28 0 43.5 20.5t15.5 48.5q-36 0 -60 23.5t-32 52t-8 59.5zM289 275q13 -19 47 -19q37 0 61.5 24.5t24.5 66.5q0 39 -29 62t-86 23
q-112 0 -194 -93t-82 -223q0 -135 132 -135q53 0 87.5 20t60.5 62q25 36 25 66q0 11 -7 19t-20 8q-19 -61 -48 -95t-62 -34q-27 0 -39 17.5t-12 59.5q0 71 24 140t59 110.5t67 41.5q15 0 24.5 -11t9.5 -31q0 -30 -15.5 -52t-27.5 -27z" />
    <glyph glyph-name="Cdotaccent" unicode="&#x10a;" horiz-adv-x="686" 
d="M428 795q0 -55 59 -55q38 0 61 22.5t23 60.5q0 23 -13.5 40t-43.5 17q-39 0 -62.5 -23.5t-23.5 -61.5zM567 52q41 114 41 146q0 43 -38 43q-28 -97 -94.5 -157t-155.5 -60q-73 0 -105 43.5t-32 140.5q0 181 78.5 312t196.5 131q84 0 113.5 -50.5t29.5 -168.5q44 0 52 47
l33 148l-6.5 6.5t-22.5 15t-40 18.5t-60 14.5t-83 6.5q-182 0 -303 -131.5t-121 -330.5q0 -127 57.5 -186t195.5 -59q73 0 139 17.5t96 35.5z" />
    <glyph glyph-name="cdotaccent" unicode="&#x10b;" horiz-adv-x="443" 
d="M274 590q0 -54 59 -54q38 0 61.5 22.5t23.5 60.5q0 23 -14 40t-44 17q-39 0 -62.5 -24t-23.5 -62zM289 275q13 -19 47 -19q37 0 61.5 24.5t24.5 66.5q0 39 -29 62t-86 23q-112 0 -194 -93t-82 -223q0 -135 132 -135q53 0 87.5 20t60.5 62q25 36 25 66q0 11 -7 19t-20 8
q-19 -61 -48 -95t-62 -34q-27 0 -39 17.5t-12 59.5q0 71 24 140t59 110.5t67 41.5q15 0 24.5 -11t9.5 -31q0 -30 -15.5 -52t-27.5 -27z" />
    <glyph glyph-name="Ccaron" unicode="&#x10c;" horiz-adv-x="686" 
d="M454 726h35q27 40 68.5 71t85.5 31q5 10 5 27t-11.5 27t-31.5 10q-24 0 -44.5 -12.5t-37 -36.5t-25 -39t-19.5 -40q0 21 -3 40.5t-10.5 41t-23 34t-38.5 12.5t-38 -17t-15 -47q43 0 69.5 -29.5t33.5 -72.5zM567 52q41 114 41 146q0 43 -38 43q-28 -97 -94.5 -157
t-155.5 -60q-73 0 -105 43.5t-32 140.5q0 181 78.5 312t196.5 131q84 0 113.5 -50.5t29.5 -168.5q44 0 52 47l33 148l-6.5 6.5t-22.5 15t-40 18.5t-60 14.5t-83 6.5q-182 0 -303 -131.5t-121 -330.5q0 -127 57.5 -186t195.5 -59q73 0 139 17.5t96 35.5z" />
    <glyph glyph-name="ccaron" unicode="&#x10d;" horiz-adv-x="443" 
d="M287 500h35q31 54 76.5 94.5t97.5 40.5q6 8 6 27q0 42 -43 42q-76 0 -143 -157q0 34 -2 57.5t-8.5 48.5t-21.5 38t-38 13q-27 0 -42.5 -20.5t-16.5 -48.5q53 0 76.5 -41.5t23.5 -93.5zM289 275q13 -19 47 -19q37 0 61.5 24.5t24.5 66.5q0 39 -29 62t-86 23
q-112 0 -194 -93t-82 -223q0 -135 132 -135q53 0 87.5 20t60.5 62q25 36 25 66q0 11 -7 19t-20 8q-19 -61 -48 -95t-62 -34q-27 0 -39 17.5t-12 59.5q0 71 24 140t59 110.5t67 41.5q15 0 24.5 -11t9.5 -31q0 -30 -15.5 -52t-27.5 -27z" />
    <glyph glyph-name="Dcaron" unicode="&#x10e;" horiz-adv-x="852" 
d="M524 726h36q27 40 68 71t85 31q5 10 5 27t-11 27t-31 10q-71 0 -126 -128q0 21 -3 40.5t-10.5 41t-23 34t-38.5 12.5t-38 -17t-15 -47q42 0 68.5 -29.5t33.5 -72.5zM541 688q-31 0 -93 -6t-89 -6q-21 0 -82 2t-77 2q-32 0 -32 -33q48 0 80.5 -3.5t41.5 -7.5l9 -3
q-28 -105 -104.5 -313t-109.5 -278q-24 -13 -105 -13q0 -18 8.5 -25.5t27.5 -7.5q13 0 64 2t64 2q23 0 79.5 -6.5t96.5 -6.5q217 0 349.5 129.5t132.5 344.5q0 106 -64 166.5t-197 60.5zM512 647q84 0 120 -43t36 -139q0 -202 -95 -319t-255 -117q-28 0 -51.5 4.5t-32.5 8.5
l-10 4q21 87 100.5 305t109.5 286q35 10 78 10z" />
    <glyph glyph-name="dcaron" unicode="&#x10f;" horiz-adv-x="685" 
d="M335 195l9 -6q-30 -77 -30 -140q0 -68 76 -68q40 0 70.5 17.5t43.5 36.5t26 47q15 35 15 56q0 9 -7.5 15.5t-19.5 6.5q-16 -57 -39.5 -90t-47.5 -33q-27 0 -27 34q0 43 23.5 123t57.5 164.5t68 162.5t57.5 130.5t23.5 53.5q0 17 -21 17q-3 0 -69 -11.5t-127 -11.5
q-38 0 -38 -36q39 0 67 -4.5t36 -9.5l9 -5l-96 -219q-25 7 -55 7q-127 0 -218 -93t-91 -237q0 -65 26 -93t79 -28q28 0 52 11t41 26t37.5 47.5t33 57t35.5 72.5zM596 471l38 -25q4 5 11 14t25.5 37.5t34.5 57.5t33.5 70t26.5 79q-46 -14 -109 -14q-9 -47 -24 -102t-26 -86z
M380 382q-112 -345 -202 -345q-34 0 -34 62q0 111 62.5 201.5t131.5 90.5q12 0 22.5 -2.5t15.5 -4.5z" />
    <glyph glyph-name="Dcroat" unicode="&#x110;" horiz-adv-x="857" 
d="M560 688q133 0 195 -62.5t62 -173.5q0 -206 -135 -335.5t-343 -129.5q-43 0 -105 6.5t-85 6.5q-12 0 -64.5 -2t-68.5 -2q-19 0 -27.5 7.5t-8.5 25.5q38 0 66 3.5t36 6.5l9 3q31 61 109 273h-128l12 42h132q66 183 92 276q-26 14 -133 14q0 33 32 33q17 0 84 -2t89 -2
q11 0 75.5 6t104.5 6zM333 29q82 0 149 36t109.5 97t65.5 138t23 161q0 98 -35.5 142t-117.5 44q-21 0 -42 -2.5t-31 -4.5l-11 -3q-27 -56 -109 -280h212l-12 -42h-215q-69 -194 -89 -269q30 -17 103 -17z" />
    <glyph glyph-name="dcroat" unicode="&#x111;" horiz-adv-x="601" 
d="M662 518h-111q-147 -339 -147 -447q0 -34 27 -34q24 0 47.5 33t39.5 90q12 0 19.5 -6.5t7.5 -15.5q0 -22 -15 -56q-13 -28 -26 -47t-43.5 -36.5t-70.5 -17.5q-76 0 -76 68q0 28 7.5 63t14.5 56l8 21l-9 6q-23 -48 -35.5 -72.5t-33 -57t-37.5 -47.5t-41 -26t-52 -11
q-53 0 -79 28t-26 93q0 144 91 237t218 93q13 0 27 -2t21 -4l7 -1l41 93h-127l12 38h131l39 88q-25 19 -112 19q0 36 38 36q61 0 127 11.5t69 11.5q21 0 21 -17q0 -1 -8 -19t-25.5 -56.5t-32.5 -73.5h106zM178 37q90 0 202 345q-14 9 -42 9q-69 0 -131.5 -90.5t-62.5 -201.5
q0 -62 34 -62z" />
    <glyph glyph-name="Emacron" unicode="&#x112;" horiz-adv-x="689" 
d="M646 758l22 77h-265l-22 -77h265zM299 633q-44 -152 -107 -323.5t-107 -267.5q-24 -13 -105 -13q0 -17 7 -25t27 -8q8 0 88 2t136 2q93 0 178.5 -4.5t124.5 -9.5l39 -5q4 26 24.5 99.5t20.5 96.5q0 13 -10.5 22t-29.5 9q-15 -87 -38 -121t-69 -35l-254 -5q19 75 86 268
q22 4 112 4q34 0 48 -7.5t14 -26.5q0 -12 -4 -31t-8 -32l-4 -14q7 -3 14 -3q25 0 31 27q9 42 34.5 122t25.5 95q0 21 -32 21q-16 -71 -37.5 -93t-71.5 -22l-106 3q7 25 46 127.5t59 142.5q115 2 173 2q33 0 45 -10.5t12 -40.5q0 -18 -4 -41.5t-8 -37.5l-4 -15q11 -6 23 -6
q31 0 38 46q5 35 13.5 76t14.5 65l5 23q-189 -13 -305 -13q-52 0 -129.5 2t-88.5 2q-34 0 -34 -33q40 0 69 -3.5t39 -7.5z" />
    <glyph glyph-name="emacron" unicode="&#x113;" horiz-adv-x="443" 
d="M460 540l22 77h-265l-22 -77h265zM209 228h-28q0 -27 54 -27q85 0 136 40t51 106q0 85 -111 85q-117 0 -198.5 -95.5t-81.5 -218.5q0 -73 34 -105t99 -32q101 0 154 96q18 33 18 54q0 23 -28 23q-16 -53 -46 -90t-68 -37q-46 0 -46 78q0 114 50.5 202.5t99.5 88.5
q34 0 34 -46q0 -54 -34 -88t-89 -34z" />
    <glyph glyph-name="Ebreve" unicode="&#x114;" horiz-adv-x="689" 
d="M652 873l-23 11q-33 -84 -125 -84q-75 0 -75 57l3 27l-28 -11q-9 -24 -9 -55q0 -89 100 -89q123 0 157 144zM299 633q-44 -152 -107 -323.5t-107 -267.5q-24 -13 -105 -13q0 -17 7 -25t27 -8q8 0 88 2t136 2q93 0 178.5 -4.5t124.5 -9.5l39 -5q4 26 24.5 99.5t20.5 96.5
q0 13 -10.5 22t-29.5 9q-15 -87 -38 -121t-69 -35l-254 -5q19 75 86 268q22 4 112 4q34 0 48 -7.5t14 -26.5q0 -12 -4 -31t-8 -32l-4 -14q7 -3 14 -3q25 0 31 27q9 42 34.5 122t25.5 95q0 21 -32 21q-16 -71 -37.5 -93t-71.5 -22l-106 3q7 25 46 127.5t59 142.5q115 2 173 2
q33 0 45 -10.5t12 -40.5q0 -18 -4 -41.5t-8 -37.5l-4 -15q11 -6 23 -6q31 0 38 46q5 35 13.5 76t14.5 65l5 23q-189 -13 -305 -13q-52 0 -129.5 2t-88.5 2q-34 0 -34 -33q40 0 69 -3.5t39 -7.5z" />
    <glyph glyph-name="ebreve" unicode="&#x115;" horiz-adv-x="443" 
d="M484 656l-27 12q-28 -101 -136 -101q-77 0 -77 73l3 28l-29 -9q-7 -25 -7 -52q0 -58 25.5 -86.5t82.5 -28.5q128 0 165 164zM209 228h-28q0 -27 54 -27q85 0 136 40t51 106q0 85 -111 85q-117 0 -198.5 -95.5t-81.5 -218.5q0 -73 34 -105t99 -32q101 0 154 96
q18 33 18 54q0 23 -28 23q-16 -53 -46 -90t-68 -37q-46 0 -46 78q0 114 50.5 202.5t99.5 88.5q34 0 34 -46q0 -54 -34 -88t-89 -34z" />
    <glyph glyph-name="Edotaccent" unicode="&#x116;" horiz-adv-x="689" 
d="M455 795q0 -55 59 -55q38 0 61.5 22.5t23.5 60.5q0 23 -14 40t-44 17q-39 0 -62.5 -23.5t-23.5 -61.5zM299 633q-44 -152 -107 -323.5t-107 -267.5q-24 -13 -105 -13q0 -17 7 -25t27 -8q8 0 88 2t136 2q93 0 178.5 -4.5t124.5 -9.5l39 -5q4 26 24.5 99.5t20.5 96.5
q0 13 -10.5 22t-29.5 9q-15 -87 -38 -121t-69 -35l-254 -5q19 75 86 268q22 4 112 4q34 0 48 -7.5t14 -26.5q0 -12 -4 -31t-8 -32l-4 -14q7 -3 14 -3q25 0 31 27q9 42 34.5 122t25.5 95q0 21 -32 21q-16 -71 -37.5 -93t-71.5 -22l-106 3q7 25 46 127.5t59 142.5q115 2 173 2
q33 0 45 -10.5t12 -40.5q0 -18 -4 -41.5t-8 -37.5l-4 -15q11 -6 23 -6q31 0 38 46q5 35 13.5 76t14.5 65l5 23q-189 -13 -305 -13q-52 0 -129.5 2t-88.5 2q-34 0 -34 -33q40 0 69 -3.5t39 -7.5z" />
    <glyph glyph-name="edotaccent" unicode="&#x117;" horiz-adv-x="443" 
d="M287 590q0 -54 59 -54q38 0 61.5 22.5t23.5 60.5q0 23 -14 40t-44 17q-39 0 -62.5 -24t-23.5 -62zM209 228h-28q0 -27 54 -27q85 0 136 40t51 106q0 85 -111 85q-117 0 -198.5 -95.5t-81.5 -218.5q0 -73 34 -105t99 -32q101 0 154 96q18 33 18 54q0 23 -28 23
q-16 -53 -46 -90t-68 -37q-46 0 -46 78q0 114 50.5 202.5t99.5 88.5q34 0 34 -46q0 -54 -34 -88t-89 -34z" />
    <glyph glyph-name="Eogonek" unicode="&#x118;" horiz-adv-x="689" 
d="M434 676q52 0 128 3t126 7l51 3q-21 -86 -33 -164q-7 -46 -38 -46l-23 6q16 54 16 94q0 30 -12 40.5t-45 10.5l-173 -2q-20 -40 -59 -142.5t-46 -127.5q32 -3 106 -3q50 0 71.5 22t37.5 93q32 0 32 -21q0 -15 -25.5 -95t-34.5 -122q-6 -27 -31 -27l-14 3q16 51 16 77
q0 19 -14 26.5t-48 7.5l-112 -4q-67 -193 -86 -268l254 5q46 1 69 35t38 121q19 0 29.5 -9t10.5 -22q0 -23 -20.5 -96.5t-24.5 -99.5q-15 2 -44 5q-102 -87 -102 -141q0 -34 35 -34q16 0 29.5 6.5t19.5 12.5l6 7q10 -4 10 -20q0 -24 -25 -44t-83 -20q-92 0 -92 74
q0 27 13.5 51t42 46t47.5 34t55 32q-118 10 -254 10q-56 0 -136 -2t-88 -2q-20 0 -27 8t-7 25q36 0 62 3.5t34 6.5l9 3q44 96 107 267.5t107 323.5q-28 14 -117 14q0 33 34 33q11 0 88.5 -2t129.5 -2z" />
    <glyph glyph-name="eogonek" unicode="&#x119;" horiz-adv-x="443" 
d="M181 228h28q55 0 89 34t34 88q0 46 -34 46q-49 0 -99.5 -88.5t-50.5 -202.5q0 -78 46 -78q38 0 68 37t46 90q28 0 28 -23q0 -21 -18 -54q-24 -44 -54 -66q-2 -2 -21.5 -19t-27.5 -24.5t-25 -25t-25 -30t-15 -29t-7 -30.5q0 -34 35 -34q16 0 29.5 6.5t19.5 12.5l6 6
q9 -4 9 -19q0 -24 -25 -44t-83 -20q-92 0 -92 73q0 43 35.5 78t93.5 69h-7q-65 0 -99 32t-34 105q0 123 81.5 218.5t198.5 95.5q111 0 111 -85q0 -66 -51 -106t-136 -40q-54 0 -54 27z" />
    <glyph glyph-name="Ecaron" unicode="&#x11a;" horiz-adv-x="689" 
d="M481 726h35q27 40 68.5 71t85.5 31q5 10 5 27t-11.5 27t-31.5 10q-24 0 -44.5 -12.5t-37 -36.5t-25 -39t-19.5 -40q0 21 -3 40.5t-10.5 41t-23 34t-38.5 12.5q-22 0 -37 -17t-16 -47q43 0 69.5 -29.5t33.5 -72.5zM299 633q-44 -152 -107 -323.5t-107 -267.5
q-24 -13 -105 -13q0 -17 7 -25t27 -8q8 0 88 2t136 2q93 0 178.5 -4.5t124.5 -9.5l39 -5q4 26 24.5 99.5t20.5 96.5q0 13 -10.5 22t-29.5 9q-15 -87 -38 -121t-69 -35l-254 -5q19 75 86 268q22 4 112 4q34 0 48 -7.5t14 -26.5q0 -12 -4 -31t-8 -32l-4 -14q7 -3 14 -3
q25 0 31 27q9 42 34.5 122t25.5 95q0 21 -32 21q-16 -71 -37.5 -93t-71.5 -22l-106 3q7 25 46 127.5t59 142.5q115 2 173 2q33 0 45 -10.5t12 -40.5q0 -18 -4 -41.5t-8 -37.5l-4 -15q11 -6 23 -6q31 0 38 46q5 35 13.5 76t14.5 65l5 23q-189 -13 -305 -13q-52 0 -129.5 2
t-88.5 2q-34 0 -34 -33q40 0 69 -3.5t39 -7.5z" />
    <glyph glyph-name="ecaron" unicode="&#x11b;" horiz-adv-x="443" 
d="M301 500h35q31 54 76.5 94.5t97.5 40.5q6 8 6 27q0 42 -43 42q-76 0 -143 -157q0 34 -2 57.5t-8.5 48.5t-21.5 38t-38 13q-27 0 -42.5 -20.5t-16.5 -48.5q53 0 76.5 -41.5t23.5 -93.5zM209 228h-28q0 -27 54 -27q85 0 136 40t51 106q0 85 -111 85q-117 0 -198.5 -95.5
t-81.5 -218.5q0 -73 34 -105t99 -32q101 0 154 96q18 33 18 54q0 23 -28 23q-16 -53 -46 -90t-68 -37q-46 0 -46 78q0 114 50.5 202.5t99.5 88.5q34 0 34 -46q0 -54 -34 -88t-89 -34z" />
    <glyph glyph-name="Gcircumflex" unicode="&#x11c;" horiz-adv-x="729" 
d="M522 890h-35q-27 -40 -68.5 -71t-85.5 -31q-5 -10 -5 -27q0 -38 43 -38q24 0 45 12.5t37 36.5t24.5 40t19.5 40q0 -30 4.5 -55.5t22 -49.5t47.5 -24q22 0 37.5 17.5t16.5 47.5q-43 0 -69.5 29.5t-33.5 72.5zM519 248q-9 -57 -26 -117q-13 -47 -60 -77t-115 -30t-101.5 43
t-33.5 142q0 119 35 220t99.5 161.5t144.5 60.5q45 0 74 -15.5t43 -48t18.5 -67t4.5 -88.5q41 0 51 43l33 152l-6.5 6.5t-22 15t-39.5 18.5t-60 14.5t-82 6.5q-183 0 -304.5 -129.5t-121.5 -336.5q0 -70 19 -119t54.5 -74.5t76.5 -36.5t95 -11q56 0 105 15t75 30t28 15
q20 0 20 -96q42 0 45 50q3 59 16.5 122t25.5 97l12 34q37 15 92 15q0 33 -30 33q-14 0 -51.5 -2t-65.5 -2q-26 0 -72.5 2t-55.5 2q-35 0 -35 -33q31 0 59.5 -4t42.5 -7z" />
    <glyph glyph-name="gcircumflex" unicode="&#x11d;" horiz-adv-x="504" 
d="M420 704h-35q-31 -53 -76.5 -93.5t-96.5 -41.5q-7 -7 -7 -26q0 -43 43 -43q76 0 140 151l3 6q0 -34 2 -57.5t8.5 -48.5t21.5 -38t38 -13q28 0 43.5 20.5t15.5 48.5q-36 0 -60 23.5t-32 52t-8 59.5zM534 451l-9 17q-55 -39 -114 -48q-34 12 -71 12q-130 0 -218.5 -90.5
t-88.5 -241.5q0 -119 97 -119q63 0 109 48.5t95 165.5l9 -6q-46 -115 -54 -146q-34 -134 -81 -186.5t-105 -52.5q-56 0 -56 50q0 28 15.5 43.5t37.5 15.5q0 7 -4 14.5t-19 15.5t-38 8q-38 0 -63 -25t-25 -66q0 -95 131 -95q140 0 221 94.5t131 306.5q19 83 44 154.5
t40 101.5zM376 381q-21 -67 -39.5 -117t-45 -107.5t-55 -88.5t-57.5 -31q-33 0 -33 60q0 116 56 205t137 89q11 0 20 -2.5t13 -4.5z" />
    <glyph glyph-name="Gbreve" unicode="&#x11e;" horiz-adv-x="729" 
d="M626 873l-24 11q-31 -84 -125 -84q-75 0 -75 57l3 27l-27 -11q-9 -24 -9 -55q0 -89 100 -89q123 0 157 144zM519 248q-9 -57 -26 -117q-13 -47 -60 -77t-115 -30t-101.5 43t-33.5 142q0 119 35 220t99.5 161.5t144.5 60.5q45 0 74 -15.5t43 -48t18.5 -67t4.5 -88.5
q41 0 51 43l33 152l-6.5 6.5t-22 15t-39.5 18.5t-60 14.5t-82 6.5q-183 0 -304.5 -129.5t-121.5 -336.5q0 -70 19 -119t54.5 -74.5t76.5 -36.5t95 -11q56 0 105 15t75 30t28 15q20 0 20 -96q42 0 45 50q3 59 16.5 122t25.5 97l12 34q37 15 92 15q0 33 -30 33q-14 0 -51.5 -2
t-65.5 -2q-26 0 -72.5 2t-55.5 2q-35 0 -35 -33q31 0 59.5 -4t42.5 -7z" />
    <glyph glyph-name="gbreve" unicode="&#x11f;" horiz-adv-x="504" 
d="M513 656l-27 12q-28 -101 -136 -101q-77 0 -77 73l3 28l-29 -9q-7 -25 -7 -52q0 -58 25.5 -86.5t82.5 -28.5q128 0 165 164zM534 451l-9 17q-55 -39 -114 -48q-34 12 -71 12q-130 0 -218.5 -90.5t-88.5 -241.5q0 -119 97 -119q63 0 109 48.5t95 165.5l9 -6
q-46 -115 -54 -146q-34 -134 -81 -186.5t-105 -52.5q-56 0 -56 50q0 28 15.5 43.5t37.5 15.5q0 7 -4 14.5t-19 15.5t-38 8q-38 0 -63 -25t-25 -66q0 -95 131 -95q140 0 221 94.5t131 306.5q19 83 44 154.5t40 101.5zM376 381q-21 -67 -39.5 -117t-45 -107.5t-55 -88.5
t-57.5 -31q-33 0 -33 60q0 116 56 205t137 89q11 0 20 -2.5t13 -4.5z" />
    <glyph glyph-name="Gdotaccent" unicode="&#x120;" horiz-adv-x="729" 
d="M429 795q0 -55 59 -55q38 0 61 22.5t23 60.5q0 23 -13.5 40t-43.5 17q-39 0 -62.5 -23.5t-23.5 -61.5zM519 248q-9 -57 -26 -117q-13 -47 -60 -77t-115 -30t-101.5 43t-33.5 142q0 119 35 220t99.5 161.5t144.5 60.5q45 0 74 -15.5t43 -48t18.5 -67t4.5 -88.5q41 0 51 43
l33 152l-6.5 6.5t-22 15t-39.5 18.5t-60 14.5t-82 6.5q-183 0 -304.5 -129.5t-121.5 -336.5q0 -70 19 -119t54.5 -74.5t76.5 -36.5t95 -11q56 0 105 15t75 30t28 15q20 0 20 -96q42 0 45 50q3 59 16.5 122t25.5 97l12 34q37 15 92 15q0 33 -30 33q-14 0 -51.5 -2t-65.5 -2
q-26 0 -72.5 2t-55.5 2q-35 0 -35 -33q31 0 59.5 -4t42.5 -7z" />
    <glyph glyph-name="gdotaccent" unicode="&#x121;" horiz-adv-x="504" 
d="M317 590q0 -54 59 -54q38 0 61.5 22.5t23.5 60.5q0 23 -14 40t-44 17q-39 0 -62.5 -24t-23.5 -62zM534 451l-9 17q-55 -39 -114 -48q-34 12 -71 12q-130 0 -218.5 -90.5t-88.5 -241.5q0 -119 97 -119q63 0 109 48.5t95 165.5l9 -6q-46 -115 -54 -146q-34 -134 -81 -186.5
t-105 -52.5q-56 0 -56 50q0 28 15.5 43.5t37.5 15.5q0 7 -4 14.5t-19 15.5t-38 8q-38 0 -63 -25t-25 -66q0 -95 131 -95q140 0 221 94.5t131 306.5q19 83 44 154.5t40 101.5zM376 381q-21 -67 -39.5 -117t-45 -107.5t-55 -88.5t-57.5 -31q-33 0 -33 60q0 116 56 205t137 89
q11 0 20 -2.5t13 -4.5z" />
    <glyph glyph-name="Gcommaaccent" unicode="&#x122;" horiz-adv-x="729" 
d="M519 248q-9 -57 -26 -117q-13 -47 -60 -77t-115 -30t-101.5 43t-33.5 142q0 119 35 220t99.5 161.5t144.5 60.5q45 0 74 -15.5t43 -48t18.5 -67t4.5 -88.5q41 0 51 43l33 152l-6.5 6.5t-22 15t-39.5 18.5t-60 14.5t-82 6.5q-183 0 -304.5 -129.5t-121.5 -336.5
q0 -70 19 -119t54.5 -74.5t76.5 -36.5t95 -11q56 0 105 15t75 30t28 15q20 0 20 -96q42 0 45 50q3 59 16.5 122t25.5 97l12 34q37 15 92 15q0 33 -30 33q-14 0 -51.5 -2t-65.5 -2q-26 0 -72.5 2t-55.5 2q-35 0 -35 -33q31 0 59.5 -4t42.5 -7zM185 -233l7 -26q68 1 117 41
t49 111q0 66 -62 66q-34 0 -57.5 -22t-23.5 -55q0 -22 13.5 -35t34.5 -13q14 0 25.5 4t15.5 8l4 5q-10 -44 -45.5 -63.5t-77.5 -20.5z" />
    <glyph glyph-name="gcommaaccent" unicode="&#x123;" horiz-adv-x="504" 
d="M477 710l-8 26q-67 -1 -116 -41t-49 -111q0 -66 62 -66q34 0 57.5 22t23.5 55q0 22 -13.5 35t-35.5 13q-14 0 -25 -4.5t-15 -8.5l-4 -4q10 44 45.5 63.5t77.5 20.5zM534 451l-9 17q-55 -39 -114 -48q-34 12 -71 12q-130 0 -218.5 -90.5t-88.5 -241.5q0 -119 97 -119
q63 0 109 48.5t95 165.5l9 -6q-46 -115 -54 -146q-34 -134 -81 -186.5t-105 -52.5q-56 0 -56 50q0 28 15.5 43.5t37.5 15.5q0 7 -4 14.5t-19 15.5t-38 8q-38 0 -63 -25t-25 -66q0 -95 131 -95q140 0 221 94.5t131 306.5q19 83 44 154.5t40 101.5zM376 381
q-21 -67 -39.5 -117t-45 -107.5t-55 -88.5t-57.5 -31q-33 0 -33 60q0 116 56 205t137 89q11 0 20 -2.5t13 -4.5z" />
    <glyph glyph-name="Hcircumflex" unicode="&#x124;" horiz-adv-x="879" 
d="M675 890h-35q-27 -40 -68.5 -71t-85.5 -31q-5 -10 -5 -27t11.5 -27.5t31.5 -10.5q24 0 45 12.5t37 36.5t24.5 40t19.5 40q0 -30 5 -56t22.5 -49.5t47.5 -23.5q22 0 37 17.5t16 47.5q-43 0 -69.5 29.5t-33.5 72.5zM292 633q-44 -149 -107.5 -320.5t-107.5 -270.5
q-25 -13 -97 -13q0 -17 7 -25t27 -8q14 0 59 2t67 2q21 0 74 -2t72 -2q38 0 38 33q-36 0 -63 3.5t-37 6.5l-9 3q29 103 99 306.5t116 284.5q22 14 115 14q0 33 -29 33q-22 0 -74.5 -2t-72.5 -2q-29 0 -85 2t-72 2q-33 0 -33 -33q38 0 66 -3.5t37 -7.5zM764 633
q-45 -153 -108.5 -325t-106.5 -266q-24 -13 -109 -13q0 -17 6.5 -25t26.5 -8q17 0 67 2t71 2q22 0 75.5 -2t71.5 -2q37 0 37 33q-35 0 -62 3.5t-36 6.5l-9 3q30 108 98.5 309t114.5 282q22 14 99 14q0 33 -29 33q-12 0 -59.5 -2t-70.5 -2q-28 0 -84.5 2t-71.5 2
q-34 0 -34 -33q38 0 66 -3.5t37 -7.5zM681 384q-38 -31 -99 -31q-33 0 -82.5 15t-75.5 15q-23 0 -44.5 -10t-36.5 -24.5t-27 -29.5t-18 -25l-5 -10q40 29 102 29q29 0 76.5 -15t78.5 -15q25 0 47.5 10.5t37 25.5t25.5 29.5t16 25.5z" />
    <glyph glyph-name="hcircumflex" unicode="&#x125;" horiz-adv-x="539" 
d="M384 907h-35q-27 -40 -68.5 -71t-85.5 -31q-5 -10 -5 -27q0 -38 43 -38q24 0 45 12.5t37 36.5t24.5 40t19.5 40q0 -30 4.5 -55.5t22 -49.5t47.5 -24q22 0 37.5 17.5t16.5 47.5q-43 0 -69.5 29.5t-33.5 72.5zM134 -9q40 147 100 262t101 115q20 0 20 -22q0 -19 -44 -127.5
t-44 -159.5q0 -78 85 -78q97 0 143 104q13 30 13 52q0 23 -26 23q-14 -52 -36.5 -87.5t-49.5 -35.5q-26 0 -26 30q0 35 52 148t52 149q0 30 -20.5 49t-56.5 19q-42 0 -82.5 -30t-68.5 -72.5t-49.5 -85t-32.5 -72.5l-10 -30l-8 5q28 109 85 245.5t100 223t43 87.5
q0 19 -22 19q-2 0 -64.5 -11.5t-122.5 -11.5q-40 0 -40 -36q36 0 63.5 -4.5t37.5 -9.5l9 -5q-23 -50 -57 -128.5t-90.5 -239t-56.5 -223.5q0 -34 22 -48t81 -14z" />
    <glyph glyph-name="Hbar" unicode="&#x126;" horiz-adv-x="879" 
d="M901 633q-18 -32 -49 -105h117l-12 -42h-121q-87 -225 -148 -444q28 -13 107 -13q0 -33 -37 -33q-18 0 -71.5 2t-75.5 2q-21 0 -71 -2t-67 -2q-20 0 -26.5 8t-6.5 25q38 0 65 3.5t35 6.5l9 3q78 172 168 444h-353q-42 -108 -87 -245t-62 -199q28 -13 109 -13
q0 -33 -38 -33q-19 0 -72 2t-74 2q-22 0 -67 -2t-59 -2q-20 0 -27 8t-7 25q32 0 56 3.5t32 6.5l9 3q76 168 169 444h-109l12 42h111q30 98 32 105q-28 14 -113 14q0 33 33 33q16 0 72 -2t85 -2q20 0 72.5 2t74.5 2q29 0 29 -33q-41 0 -70 -3.5t-37 -7.5l-8 -3
q-18 -32 -49 -105h350q18 54 33 105q-28 14 -113 14q0 33 34 33q15 0 71.5 -2t84.5 -2q23 0 70.5 2t59.5 2q29 0 29 -33q-34 0 -59 -3.5t-33 -7.5zM681 384l-5.5 -11t-15.5 -24.5t-26 -30.5t-36.5 -24t-47.5 -11q-31 0 -78.5 15t-76.5 15q-28 0 -53.5 -7.5t-37.5 -14.5
l-11 -7q2 4 6 10.5t17 24t27 30.5t36 23.5t45 10.5q26 0 75.5 -15t82.5 -15q27 0 52 7.5t36 15.5z" />
    <glyph glyph-name="hbar" unicode="&#x127;" horiz-adv-x="539" 
d="M482 160q26 0 26 -23q0 -22 -13 -52q-46 -104 -143 -104q-85 0 -85 78q0 51 44 159.5t44 127.5q0 22 -20 22q-41 0 -101 -115t-100 -262q-59 0 -81 14t-22 48q0 107 149 465h-71l12 38h75l39 88q-29 19 -110 19q0 36 40 36q60 0 122.5 11.5t64.5 11.5q22 0 22 -19
q0 -2 -8.5 -19t-27 -55t-35.5 -73h153l-12 -38h-158q-101 -218 -140 -371l8 -5l5.5 16.5t16 40.5t26.5 57.5t36 61t45 57.5t53 40.5t61 16.5q36 0 56.5 -19t20.5 -49q0 -36 -52 -149t-52 -148q0 -30 26 -30q27 0 49.5 35.5t36.5 87.5z" />
    <glyph glyph-name="Imacron" unicode="&#x12a;" horiz-adv-x="407" 
d="M533 758l22 77h-266l-22 -77h266zM289 633q-44 -151 -107 -323t-106 -268q-25 -13 -96 -13q0 -17 7 -25t27 -8q14 0 58 2t67 2q20 0 75 -2t78 -2q38 0 38 33q-39 0 -68 3.5t-38 6.5l-10 3q36 124 101.5 316.5t110.5 274.5q22 14 102 14q0 33 -29 33q-13 0 -62 -2t-71 -2
q-28 0 -85 2t-75 2q-33 0 -33 -33q39 0 68 -3.5t39 -7.5z" />
    <glyph glyph-name="imacron" unicode="&#x12b;" horiz-adv-x="329" 
d="M363 540l22 77h-265l-22 -77h265zM60 260q41 119 77 119q19 0 19 -18q0 -23 -49 -137t-49 -166q0 -77 85 -77q51 0 84.5 24.5t57.5 78.5q13 32 13 53q0 23 -26 23q-34 -123 -83 -123q-26 0 -26 29q0 35 53.5 152.5t53.5 151.5q0 28 -21 45t-62 17q-44 0 -74 -17.5
t-52 -57.5q-30 -55 -30 -77q0 -20 29 -20z" />
    <glyph glyph-name="Ibreve" unicode="&#x12c;" horiz-adv-x="407" 
d="M539 873l-24 11q-31 -84 -125 -84q-75 0 -75 57l3 27l-27 -11q-10 -24 -10 -55q0 -89 101 -89q123 0 157 144zM289 633q-44 -151 -107 -323t-106 -268q-25 -13 -96 -13q0 -17 7 -25t27 -8q14 0 58 2t67 2q20 0 75 -2t78 -2q38 0 38 33q-39 0 -68 3.5t-38 6.5l-10 3
q36 124 101.5 316.5t110.5 274.5q22 14 102 14q0 33 -29 33q-13 0 -62 -2t-71 -2q-28 0 -85 2t-75 2q-33 0 -33 -33q39 0 68 -3.5t39 -7.5z" />
    <glyph glyph-name="ibreve" unicode="&#x12d;" horiz-adv-x="329" 
d="M387 656l-27 12q-28 -101 -136 -101q-77 0 -77 73l3 28l-29 -9q-7 -25 -7 -52q0 -58 25.5 -86.5t82.5 -28.5q128 0 165 164zM60 260q41 119 77 119q19 0 19 -18q0 -23 -49 -137t-49 -166q0 -77 85 -77q51 0 84.5 24.5t57.5 78.5q13 32 13 53q0 23 -26 23
q-34 -123 -83 -123q-26 0 -26 29q0 35 53.5 152.5t53.5 151.5q0 28 -21 45t-62 17q-44 0 -74 -17.5t-52 -57.5q-30 -55 -30 -77q0 -20 29 -20z" />
    <glyph glyph-name="Iogonek" unicode="&#x12e;" horiz-adv-x="407" 
d="M528 647q-36 0 -61.5 -3.5t-32.5 -7.5l-8 -3q-45 -82 -110.5 -274.5t-101.5 -316.5q28 -13 116 -13q0 -33 -38 -33q-24 0 -82 2q-1 -1 -14 -12.5t-17 -15t-16.5 -15t-17.5 -17.5t-15 -17t-15 -19t-10.5 -18.5t-8 -20t-2.5 -18.5q0 -34 35 -34q16 0 29.5 6.5t19.5 12.5
l6 7q10 -4 10 -20q0 -24 -25 -44t-83 -20q-92 0 -92 74q0 35 30.5 70t53.5 49.5t76 44.5q3 2 5 3.5t5 3l5 2.5h-30q-23 0 -67 -2t-58 -2q-20 0 -27 8t-7 25q32 0 56 3.5t32 6.5l8 3q43 96 106 268t107 323q-28 14 -116 14q0 33 33 33q18 0 75 -2t85 -2q22 0 71 2t62 2
q29 0 29 -33z" />
    <glyph glyph-name="iogonek" unicode="&#x12f;" horiz-adv-x="329" 
d="M277 676q30 0 44 -17t14 -40q0 -38 -23.5 -60.5t-61.5 -22.5q-59 0 -59 54q0 38 23.5 62t62.5 24zM272 160q26 0 26 -23q0 -21 -13 -53q-22 -50 -54 -76q-2 -2 -18.5 -16t-22.5 -20t-21 -20.5t-22 -24.5t-16 -23.5t-13 -26t-4 -24.5q0 -34 35 -34q16 0 29.5 6.5
t19.5 12.5l6 6q9 -4 9 -19q0 -24 -25 -44t-83 -20q-92 0 -92 73t129 147q-84 0 -84 77q0 52 49 166t49 137q0 18 -19 18q-36 0 -77 -119q-29 0 -29 20q0 22 30 77q22 40 52 57.5t74 17.5q41 0 62 -17t21 -45q0 -34 -53.5 -151.5t-53.5 -152.5q0 -29 26 -29q49 0 83 123z" />
    <glyph glyph-name="Idotaccent" unicode="&#x130;" horiz-adv-x="407" 
d="M341 795q0 -55 59 -55q38 0 61.5 22.5t23.5 60.5q0 23 -13.5 40t-43.5 17q-39 0 -63 -23.5t-24 -61.5zM289 633q-44 -151 -107 -323t-106 -268q-25 -13 -96 -13q0 -17 7 -25t27 -8q14 0 58 2t67 2q20 0 75 -2t78 -2q38 0 38 33q-39 0 -68 3.5t-38 6.5l-10 3
q36 124 101.5 316.5t110.5 274.5q22 14 102 14q0 33 -29 33q-13 0 -62 -2t-71 -2q-28 0 -85 2t-75 2q-33 0 -33 -33q39 0 68 -3.5t39 -7.5z" />
    <glyph glyph-name="dotlessi" unicode="&#x131;" horiz-adv-x="329" 
d="M60 260q41 119 77 119q19 0 19 -18q0 -23 -49 -137t-49 -166q0 -77 85 -77q51 0 84.5 24.5t57.5 78.5q13 32 13 53q0 23 -26 23q-34 -123 -83 -123q-26 0 -26 29q0 35 53.5 152.5t53.5 151.5q0 28 -21 45t-62 17q-44 0 -74 -17.5t-52 -57.5q-30 -55 -30 -77q0 -20 29 -20
z" />
    <glyph glyph-name="IJ" unicode="&#x132;" horiz-adv-x="962" 
d="M933 564q-34 -76 -72 -197q44 -4 121 -4l-18 -42l-117 -1q-20 -69 -52.5 -187t-42.5 -153q-66 -215 -269 -215q-166 0 -166 114q0 44 25 70.5t67 26.5q23 0 38.5 -8.5t19.5 -17.5l4 -8q-5 -2 -12.5 -7t-20 -24.5t-12.5 -45.5q0 -32 17 -48t46 -16q42 0 76 35t64 131
q59 189 125 353q-52 4 -144 4l15 39q88 0 148 4q23 56 47 107q16 34 38 65t36 45l14 14l-2 6q-25 -22 -71 -22q-40 0 -93 30.5t-70 30.5q-19 0 -30.5 -11t-11.5 -32q0 -30 28 -55q-15 -11 -43 -11q-38 0 -61 24.5t-23 67.5q0 45 28 72.5t78 27.5q46 0 87.5 -23t79.5 -46
t75 -23q30 0 50.5 14t33 27.5t24.5 13.5q18 0 18 -17q0 -10 -10 -20.5t-28.5 -33t-33.5 -54.5zM330 29q0 -33 -38 -33q-23 0 -78 2t-75 2q-23 0 -67 -2t-58 -2q-20 0 -27 8t-7 25q32 0 56 3.5t32 6.5l8 3q43 96 106 268t107 323q-28 14 -116 14q0 33 33 33q18 0 75 -2t85 -2
q22 0 71 2t62 2q29 0 29 -33q-36 0 -61.5 -3.5t-32.5 -7.5l-8 -3q-45 -82 -110.5 -274.5t-101.5 -316.5q28 -13 116 -13z" />
    <glyph glyph-name="ij" unicode="&#x133;" horiz-adv-x="612" 
d="M191 590q0 -54 59 -54q38 0 61.5 22.5t23.5 60.5q0 23 -14 40t-44 17q-39 0 -62.5 -24t-23.5 -62zM509 590q0 -54 59 -54q38 0 61.5 22.5t23.5 60.5q0 23 -14 40t-44 17q-39 0 -62.5 -24t-23.5 -62zM60 260q41 119 77 119q19 0 19 -18q0 -23 -49 -137t-49 -166
q0 -77 85 -77q51 0 84.5 24.5t57.5 78.5q13 32 13 53q0 23 -26 23q-34 -123 -83 -123q-26 0 -26 29q0 35 53.5 152.5t53.5 151.5q0 28 -21 45t-62 17q-44 0 -74 -17.5t-52 -57.5q-30 -55 -30 -77q0 -20 29 -20zM378 257q39 122 86 122q18 0 18 -20q0 -14 -16 -66t-53 -162.5
t-53 -161.5q-32 -101 -54 -135t-54 -34q-33 0 -33 38q0 16 9 30.5t18 21.5l9 6q-1 1 -2 3.5t-5.5 8t-10.5 10t-16.5 8t-22.5 3.5q-36 0 -56 -21t-20 -57q0 -42 31.5 -64t84.5 -22q86 0 141 51.5t88 151.5q20 65 56 162t57 159t21 81q0 27 -21 44.5t-63 17.5q-61 0 -95 -26
t-55 -74q-15 -30 -15 -53q0 -22 26 -22z" />
    <glyph glyph-name="Jcircumflex" unicode="&#x134;" horiz-adv-x="605" 
d="M533 889h35q7 -43 33.5 -72.5t69.5 -29.5q0 -30 -15 -47.5t-38 -17.5q-30 0 -47.5 23.5t-22.5 49.5t-5 56q-11 -24 -19.5 -40t-24.5 -40t-37 -36.5t-45 -12.5q-20 0 -31.5 10.5t-11.5 27.5l5 27q44 0 85.5 31t68.5 71zM648 672q0 -10 -10 -20.5t-28.5 -33t-33.5 -54.5
q-34 -76 -72 -197q44 -4 121 -4l-18 -42l-117 -1q-20 -69 -52.5 -187t-42.5 -153q-66 -215 -269 -215q-166 0 -166 114q0 44 25 70.5t67 26.5q23 0 38.5 -8.5t19.5 -17.5l4 -8q-5 -2 -12.5 -7t-20 -24.5t-12.5 -45.5q0 -32 17 -48t46 -16q42 0 76 35t64 131q59 189 125 353
q-52 4 -144 4l15 39q88 0 148 4q23 56 47 107q16 34 38 65t36 45l14 14l-2 6q-25 -22 -71 -22q-40 0 -93 30.5t-70 30.5q-19 0 -30.5 -11t-11.5 -32q0 -30 28 -55q-15 -11 -43 -11q-38 0 -61 24.5t-23 67.5q0 45 28 72.5t78 27.5q46 0 87.5 -23t79.5 -46t75 -23
q30 0 50.5 14t33 27.5t24.5 13.5q18 0 18 -17z" />
    <glyph glyph-name="jcircumflex" unicode="&#x135;" horiz-adv-x="293" 
d="M294 704h-35q-31 -53 -76.5 -93.5t-96.5 -41.5q-7 -7 -7 -26q0 -43 43 -43q76 0 140 151l3 6q0 -34 2 -57.5t8.5 -48.5t21.5 -38t38 -13q28 0 43.5 20.5t15.5 48.5q-36 0 -60 23.5t-32 52t-8 59.5zM59 257q39 122 86 122q18 0 18 -20q0 -14 -16 -66t-53 -162.5
t-53 -161.5q-32 -101 -54 -135t-54 -34q-33 0 -33 38q0 16 9 30.5t18 21.5l9 6q-1 1 -2 3.5t-5.5 8t-10.5 10t-16.5 8t-22.5 3.5q-36 0 -56 -21t-20 -57q0 -42 31.5 -64t84.5 -22q86 0 141 51.5t88 151.5q20 65 56 162t57 159t21 81q0 27 -21 44.5t-63 17.5q-61 0 -95 -26
t-55 -74q-15 -30 -15 -53q0 -22 26 -22z" />
    <glyph glyph-name="Kcommaaccent" unicode="&#x136;" horiz-adv-x="719" 
d="M336 316q35 0 56.5 -18.5t30.5 -48t14 -65t12 -71.5t19.5 -65.5t41.5 -48t73 -18.5q57 0 86 26t29 60q0 10 -3 17t-7 9l-3 2q-2 -4 -5.5 -9.5t-17.5 -14.5t-31 -9q-28 0 -44 28t-25.5 68.5t-22.5 82t-47 73t-88 35.5v5q207 260 301 260q27 0 40.5 -23.5t13.5 -59.5
q37 0 63.5 24t26.5 62q0 32 -22 50t-60 18q-79 0 -178.5 -88t-252.5 -281zM291 633q-40 -143 -103 -323t-103 -268q-24 -13 -105 -13q0 -17 7 -25t27 -8q14 0 62.5 2t70.5 2q21 0 81 -2t83 -2q37 0 37 33q-40 0 -71 3.5t-42 6.5l-11 3q134 459 204 591q22 14 116 14
q0 33 -29 33q-22 0 -74 -2t-73 -2q-28 0 -86 2t-75 2q-34 0 -34 -33q40 0 69.5 -3.5t39.5 -7.5zM242 -233l7 -26q67 1 116.5 41t49.5 111q0 66 -62 66q-35 0 -58 -21.5t-23 -55.5q0 -22 13.5 -35t34.5 -13q14 0 25.5 4t15.5 8l4 5q-10 -44 -45.5 -63.5t-77.5 -20.5z" />
    <glyph glyph-name="kcommaaccent" unicode="&#x137;" horiz-adv-x="508" 
d="M134 -9q19 83 66 214l8 1q0 -115 28 -170t90 -55q45 0 77 29t44.5 61.5t12.5 58.5q0 29 -30 29q-9 -55 -29 -88t-46 -33q-25 0 -42.5 46t-19.5 132q200 26 200 141q0 35 -22.5 55t-65.5 20q-50 0 -94 -30t-71.5 -72.5t-48 -85t-29.5 -72.5l-8 -30l-8 5q31 121 88 257.5
t98.5 217t41.5 82.5q0 18 -22 18q-3 0 -65.5 -11.5t-120.5 -11.5q-42 0 -42 -36q36 0 63.5 -4.5t37.5 -9.5l10 -5q-23 -49 -57 -126.5t-90.5 -236.5t-56.5 -225q0 -36 22 -50.5t81 -14.5zM209 228q71 141 132 141q17 0 26 -9.5t9 -25.5q0 -96 -167 -106zM79 -233l8 -26
q67 1 116 41t49 111q0 66 -61 66q-35 0 -58.5 -22t-23.5 -55q0 -22 13.5 -35t35.5 -13q14 0 25 4t15 8l4 5q-10 -44 -45.5 -63.5t-77.5 -20.5z" />
    <glyph glyph-name="kgreenlandic" unicode="&#x138;" horiz-adv-x="632" 
d="M110 39q-28 -10 -100 -10q0 -33 32 -33q10 0 57.5 2t65.5 2q17 0 65.5 -2t63.5 -2q35 0 35 33q-32 0 -55.5 2.5t-31.5 4.5l-8 3q44 212 111 381q0 18 -19 18q-6 0 -34.5 -6t-75 -12t-95.5 -6q-31 0 -31 -32q39 0 67.5 -5t36.5 -9l9 -5q-64 -263 -93 -324zM573 306
q33 0 56 20.5t23 54.5q0 54 -61 54q-33 0 -71 -20.5t-82 -62.5t-74 -74.5t-76 -86.5q34 0 54.5 -21.5t29.5 -52.5t19 -62t32.5 -52.5t60.5 -21.5q96 0 96 103q-14 -19 -40 -19q-20 0 -34 15t-24 37t-23 44t-40 39t-66 20v5q60 71 100.5 107t72.5 36q47 0 47 -62z" />
    <glyph glyph-name="Lacute" unicode="&#x139;" horiz-adv-x="649" 
d="M475 906q-9 -40 -47.5 -86t-102.5 -76l7 -27q109 26 156.5 60.5t47.5 80.5q0 48 -61 48zM298 633q-42 -145 -105 -317t-108 -274q-25 -13 -105 -13q0 -17 7 -25t27 -8q8 0 87.5 2t135.5 2q88 0 170 -4.5t120 -9.5l38 -5q3 25 23.5 99t20.5 95q0 33 -40 33
q-16 -86 -36.5 -120.5t-72.5 -35.5l-236 -5q20 69 50.5 164t79.5 230t82 192q22 14 115 14q0 33 -30 33q-22 0 -74 -2t-72 -2q-28 0 -85 2t-75 2q-34 0 -34 -33q40 0 69 -3.5t38 -7.5z" />
    <glyph glyph-name="lacute" unicode="&#x13a;" horiz-adv-x="314" 
d="M388 931q-10 -41 -48.5 -86.5t-102.5 -75.5l8 -27q109 26 156.5 60t47.5 80q0 49 -61 49zM235 644q-1 -5 -52.5 -123.5t-101.5 -256.5t-50 -195q0 -49 22 -68.5t65 -19.5q41 0 72 18t42.5 35t24.5 42q19 38 19 61t-27 23q-14 -52 -38 -87.5t-50 -35.5q-24 0 -24 31
q0 56 59 210t118 287t59 138q0 19 -23 19q-2 0 -63.5 -11.5t-121.5 -11.5q-23 0 -31.5 -9.5t-8.5 -26.5q36 0 63.5 -4.5t37.5 -9.5z" />
    <glyph glyph-name="Lcommaaccent" unicode="&#x13b;" horiz-adv-x="649" 
d="M298 633q-42 -145 -105 -317t-108 -274q-25 -13 -105 -13q0 -17 7 -25t27 -8q8 0 87.5 2t135.5 2q88 0 170 -4.5t120 -9.5l38 -5q3 25 23.5 99t20.5 95q0 33 -40 33q-16 -86 -36.5 -120.5t-72.5 -35.5l-236 -5q20 69 50.5 164t79.5 230t82 192q22 14 115 14q0 33 -30 33
q-22 0 -74 -2t-72 -2q-28 0 -85 2t-75 2q-34 0 -34 -33q40 0 69 -3.5t38 -7.5zM180 -233l8 -26q67 1 116.5 41t49.5 111q0 66 -62 66q-35 0 -58 -21.5t-23 -55.5q0 -22 13 -35t35 -13q14 0 25 4t15 8l4 5q-10 -44 -45 -63.5t-78 -20.5z" />
    <glyph glyph-name="lcommaaccent" unicode="&#x13c;" horiz-adv-x="314" 
d="M235 644q-1 -5 -52.5 -123.5t-101.5 -256.5t-50 -195q0 -49 22 -68.5t65 -19.5q41 0 72 18t42.5 35t24.5 42q19 38 19 61t-27 23q-14 -52 -38 -87.5t-50 -35.5q-24 0 -24 31q0 56 59 210t118 287t59 138q0 19 -23 19q-2 0 -63.5 -11.5t-121.5 -11.5q-23 0 -31.5 -9.5
t-8.5 -26.5q36 0 63.5 -4.5t37.5 -9.5zM-25 -233l8 -26q67 1 116 41t49 111q0 66 -61 66q-35 0 -58.5 -22t-23.5 -55q0 -22 13.5 -35t35.5 -13q14 0 25 4t15 8l4 5q-10 -44 -45.5 -63.5t-77.5 -20.5z" />
    <glyph glyph-name="Lcaron" unicode="&#x13d;" horiz-adv-x="649" 
d="M515 471l38 -25q11 14 28.5 38t53 92t50.5 128q-47 -14 -110 -14q-9 -47 -24 -102t-25 -86zM298 633q-42 -145 -105 -317t-108 -274q-25 -13 -105 -13q0 -17 7 -25t27 -8q8 0 87.5 2t135.5 2q88 0 170 -4.5t120 -9.5l38 -5q3 25 23.5 99t20.5 95q0 33 -40 33
q-16 -86 -36.5 -120.5t-72.5 -35.5l-236 -5q20 69 50.5 164t79.5 230t82 192q22 14 115 14q0 33 -30 33q-22 0 -74 -2t-72 -2q-28 0 -85 2t-75 2q-34 0 -34 -33q40 0 69 -3.5t38 -7.5z" />
    <glyph glyph-name="lcaron" unicode="&#x13e;" horiz-adv-x="426" 
d="M235 644q-1 -5 -52.5 -123.5t-101.5 -256.5t-50 -195q0 -49 22 -68.5t65 -19.5q41 0 72 18t42.5 35t24.5 42q19 38 19 61t-27 23q-14 -52 -38 -87.5t-50 -35.5q-24 0 -24 31q0 56 59 210t118 287t59 138q0 19 -23 19q-2 0 -63.5 -11.5t-121.5 -11.5q-23 0 -31.5 -9.5
t-8.5 -26.5q36 0 63.5 -4.5t37.5 -9.5zM337 471l38 -25q11 14 28.5 38t53 92t49.5 128q-46 -14 -109 -14q-9 -47 -24 -102t-25 -86z" />
    <glyph glyph-name="Ldot" unicode="&#x13f;" horiz-adv-x="649" 
d="M298 633q-42 -145 -105 -317t-108 -274q-25 -13 -105 -13q0 -17 7 -25t27 -8q8 0 87.5 2t135.5 2q88 0 170 -4.5t120 -9.5l38 -5q3 25 23.5 99t20.5 95q0 33 -40 33q-16 -86 -36.5 -120.5t-72.5 -35.5l-236 -5q20 69 50.5 164t79.5 230t82 192q22 14 115 14q0 33 -30 33
q-22 0 -74 -2t-72 -2q-28 0 -85 2t-75 2q-34 0 -34 -33q40 0 69 -3.5t38 -7.5zM419 304q0 -58 58 -58q40 0 66 26.5t26 65.5q0 25 -15 41.5t-43 16.5q-38 0 -65 -27.5t-27 -64.5z" />
    <glyph glyph-name="ldot" unicode="&#x140;" horiz-adv-x="473" 
d="M235 644q-1 -5 -52.5 -123.5t-101.5 -256.5t-50 -195q0 -49 22 -68.5t65 -19.5q41 0 72 18t42.5 35t24.5 42q19 38 19 61t-27 23q-14 -52 -38 -87.5t-50 -35.5q-24 0 -24 31q0 56 59 210t118 287t59 138q0 19 -23 19q-2 0 -63.5 -11.5t-121.5 -11.5q-23 0 -31.5 -9.5
t-8.5 -26.5q36 0 63.5 -4.5t37.5 -9.5zM303 245q0 -58 58 -58q40 0 66 26.5t26 65.5q0 26 -15 42.5t-43 16.5q-38 0 -65 -28t-27 -65z" />
    <glyph glyph-name="Lslash" unicode="&#x141;" horiz-adv-x="657" 
d="M569 208q40 0 40 -33q0 -21 -20.5 -95t-23.5 -99q-131 19 -328 19q-56 0 -135.5 -2t-87.5 -2q-20 0 -27 8t-7 25q36 0 62 3.5t34 6.5l9 3q23 51 70 174l-111 -60l5 56l130 68q72 195 119 353q-28 14 -117 14q0 33 34 33q18 0 75 -2t85 -2q20 0 72 2t74 2q30 0 30 -33
q-41 0 -70 -3.5t-37 -7.5l-8 -3q-47 -83 -122 -305l210 110l-5 -56l-226 -116q-52 -157 -69 -219l236 5q52 1 72.5 35.5t36.5 120.5z" />
    <glyph glyph-name="lslash" unicode="&#x142;" horiz-adv-x="358" 
d="M241 644q-39 -89 -113 -274l-83 -29l-15 -65l72 26q-64 -169 -64 -233q0 -49 22 -68.5t65 -19.5q31 0 55.5 9t41 25.5t25 29.5t17.5 31q19 38 19 61t-27 23q-13 -51 -37.5 -87t-50.5 -36q-25 0 -25 31q0 62 81 268l155 54l16 65l-143 -51q25 61 59 137.5t51.5 117
t17.5 44.5q0 19 -23 19q-2 0 -64 -11.5t-121 -11.5q-41 0 -41 -36q36 0 63.5 -4.5t37.5 -9.5z" />
    <glyph glyph-name="Nacute" unicode="&#x143;" horiz-adv-x="770" 
d="M649 906q-9 -40 -47.5 -86t-102.5 -76l7 -27q109 26 156.5 60.5t47.5 80.5q0 48 -61 48zM441 680q-79 -4 -117 -4q-21 0 -69 2t-63 2q-30 0 -30 -33q40 0 70.5 -3.5t41.5 -7.5l10 -3q-111 -375 -199 -591q-22 -13 -105 -13q0 -33 31 -33q10 0 46 2t56 2q13 0 51 -2t68 -2
q32 0 32 33q-40 0 -69 3.5t-38 6.5l-9 3q19 83 77.5 261.5t110.5 304.5q25 -174 59.5 -325.5t56.5 -216.5l21 -64q28 0 51.5 -3t33.5 -6l10 -3q35 164 65 278.5t53.5 179.5t47.5 100.5t42.5 45t43.5 9.5q20 0 34 -11t18 -22l3 -11q4 2 10 5.5t15.5 19.5t9.5 38q0 30 -19 49
t-54 19q-31 0 -55.5 -11.5t-52.5 -46t-54 -96t-57 -163t-65 -245.5q-7 19 -19 58t-42 181.5t-51 312.5z" />
    <glyph glyph-name="nacute" unicode="&#x144;" 
d="M319 510l9 -32q95 27 158 77.5t63 102.5q0 61 -75 61q0 -17 -11 -47.5t-49 -79t-95 -82.5zM176 -9q46 163 106.5 270t95.5 107q19 0 19 -22q0 -17 -44 -126.5t-44 -161.5q0 -77 85 -77q97 0 143 103q14 30 14 53t-28 23q-15 -55 -37.5 -89t-47.5 -34q-26 0 -26 30
q0 35 52.5 147.5t52.5 148.5q0 31 -20.5 50t-58.5 19q-43 0 -83.5 -30t-68 -72.5t-49 -85t-31.5 -72.5l-10 -30l-9 5q13 52 30.5 103t27.5 79.5t10 42.5q0 60 -75 60q-40 0 -68.5 -15.5t-51.5 -56.5q-29 -47 -29 -77q0 -23 29 -23q39 119 77 119q16 0 16 -19q0 -16 -40 -142
t-40 -165q0 -35 22.5 -48.5t80.5 -13.5z" />
    <glyph glyph-name="Ncommaaccent" unicode="&#x145;" horiz-adv-x="770" 
d="M441 680q-79 -4 -117 -4q-21 0 -69 2t-63 2q-30 0 -30 -33q40 0 70.5 -3.5t41.5 -7.5l10 -3q-111 -375 -199 -591q-22 -13 -105 -13q0 -33 31 -33q10 0 46 2t56 2q13 0 51 -2t68 -2q32 0 32 33q-40 0 -69 3.5t-38 6.5l-9 3q19 83 77.5 261.5t110.5 304.5
q25 -174 59.5 -325.5t56.5 -216.5l21 -64q28 0 51.5 -3t33.5 -6l10 -3q35 164 65 278.5t53.5 179.5t47.5 100.5t42.5 45t43.5 9.5q20 0 34 -11t18 -22l3 -11q4 2 10 5.5t15.5 19.5t9.5 38q0 30 -19 49t-54 19q-31 0 -55.5 -11.5t-52.5 -46t-54 -96t-57 -163t-65 -245.5
q-7 19 -19 58t-42 181.5t-51 312.5zM208 -233l8 -26q67 1 116 41t49 111q0 66 -61 66q-35 0 -58 -21.5t-23 -55.5q0 -22 13 -35t35 -13q14 0 25 4t15 8l4 5q-10 -44 -45.5 -63.5t-77.5 -20.5z" />
    <glyph glyph-name="ncommaaccent" unicode="&#x146;" 
d="M176 -9q46 163 106.5 270t95.5 107q19 0 19 -22q0 -17 -44 -126.5t-44 -161.5q0 -77 85 -77q97 0 143 103q14 30 14 53t-28 23q-15 -55 -37.5 -89t-47.5 -34q-26 0 -26 30q0 35 52.5 147.5t52.5 148.5q0 31 -20.5 50t-58.5 19q-43 0 -83.5 -30t-68 -72.5t-49 -85
t-31.5 -72.5l-10 -30l-9 5q13 52 30.5 103t27.5 79.5t10 42.5q0 60 -75 60q-40 0 -68.5 -15.5t-51.5 -56.5q-29 -47 -29 -77q0 -23 29 -23q39 119 77 119q16 0 16 -19q0 -16 -40 -142t-40 -165q0 -35 22.5 -48.5t80.5 -13.5zM126 -233l8 -26q67 1 116 41t49 111q0 66 -61 66
q-35 0 -58.5 -22t-23.5 -55q0 -22 13.5 -35t35.5 -13q14 0 25 4t15 8l4 5q-10 -44 -45.5 -63.5t-77.5 -20.5z" />
    <glyph glyph-name="Ncaron" unicode="&#x147;" horiz-adv-x="770" 
d="M559 726h36q27 40 68 71t85 31q5 10 5 27q0 37 -43 37q-70 0 -125 -128q0 21 -3 40.5t-10.5 41t-23 34t-38.5 12.5t-38 -17t-15 -47q42 0 68.5 -29.5t33.5 -72.5zM441 680q-79 -4 -117 -4q-21 0 -69 2t-63 2q-30 0 -30 -33q40 0 70.5 -3.5t41.5 -7.5l10 -3
q-111 -375 -199 -591q-22 -13 -105 -13q0 -33 31 -33q10 0 46 2t56 2q13 0 51 -2t68 -2q32 0 32 33q-40 0 -69 3.5t-38 6.5l-9 3q19 83 77.5 261.5t110.5 304.5q25 -174 59.5 -325.5t56.5 -216.5l21 -64q28 0 51.5 -3t33.5 -6l10 -3q35 164 65 278.5t53.5 179.5t47.5 100.5
t42.5 45t43.5 9.5q20 0 34 -11t18 -22l3 -11q4 2 10 5.5t15.5 19.5t9.5 38q0 30 -19 49t-54 19q-31 0 -55.5 -11.5t-52.5 -46t-54 -96t-57 -163t-65 -245.5q-7 19 -19 58t-42 181.5t-51 312.5z" />
    <glyph glyph-name="ncaron" unicode="&#x148;" 
d="M359 500h35q31 54 76.5 94.5t97.5 40.5q6 8 6 27q0 42 -43 42q-76 0 -143 -157q0 34 -2 57.5t-8.5 48.5t-21.5 38t-38 13q-27 0 -42.5 -20.5t-16.5 -48.5q53 0 76.5 -41.5t23.5 -93.5zM176 -9q46 163 106.5 270t95.5 107q19 0 19 -22q0 -17 -44 -126.5t-44 -161.5
q0 -77 85 -77q97 0 143 103q14 30 14 53t-28 23q-15 -55 -37.5 -89t-47.5 -34q-26 0 -26 30q0 35 52.5 147.5t52.5 148.5q0 31 -20.5 50t-58.5 19q-43 0 -83.5 -30t-68 -72.5t-49 -85t-31.5 -72.5l-10 -30l-9 5q13 52 30.5 103t27.5 79.5t10 42.5q0 60 -75 60
q-40 0 -68.5 -15.5t-51.5 -56.5q-29 -47 -29 -77q0 -23 29 -23q39 119 77 119q16 0 16 -19q0 -16 -40 -142t-40 -165q0 -35 22.5 -48.5t80.5 -13.5z" />
    <glyph glyph-name="napostrophe" unicode="&#x149;" horiz-adv-x="635" 
d="M10 457l10 -27q29 3 59 15.5t60 36t49 65.5t19 95q0 73 -66 73q-37 0 -62 -26.5t-25 -65.5q0 -27 14.5 -40t38.5 -13q13 0 24.5 4t16.5 8l5 5q-14 -64 -57 -94.5t-86 -35.5zM229 -9q46 163 106.5 270t95.5 107q19 0 19 -22q0 -17 -44 -126.5t-44 -161.5q0 -77 85 -77
q97 0 143 103q14 30 14 53t-28 23q-15 -55 -37.5 -89t-47.5 -34q-26 0 -26 30q0 35 52.5 147.5t52.5 148.5q0 31 -20.5 50t-58.5 19q-43 0 -83.5 -30t-68 -72.5t-49 -85t-31.5 -72.5l-10 -30l-9 5q13 52 30.5 103t27.5 79.5t10 42.5q0 60 -75 60q-40 0 -68.5 -15.5
t-51.5 -56.5q-29 -47 -29 -77q0 -23 29 -23q39 119 77 119q16 0 16 -19q0 -16 -40 -142t-40 -165q0 -35 22.5 -48.5t80.5 -13.5z" />
    <glyph glyph-name="Eng" unicode="&#x14a;" horiz-adv-x="770" 
d="M441 680q-79 -4 -117 -4q-21 0 -69 2t-63 2q-30 0 -30 -33q40 0 70.5 -3.5t41.5 -7.5l10 -3q-111 -375 -199 -591q-22 -13 -105 -13q0 -33 31 -33q10 0 46 2t56 2q13 0 51 -2t68 -2q32 0 32 33q-40 0 -69 3.5t-38 6.5l-9 3q19 83 77.5 261.5t110.5 304.5
q18 -129 41.5 -244.5t44 -188.5t38.5 -128t28 -79l11 -23q-27 -135 -116 -135q-47 0 -47 40q0 21 13.5 32t29.5 11q-1 4 -3 11t-16 18t-36 11q-31 0 -49.5 -19t-18.5 -52q0 -40 28 -63t81 -23q80 0 129 51t74 163q43 202 78 329.5t65.5 187t54 78t54.5 18.5q20 0 34 -11
t18 -22l3 -11q4 2 10 5.5t15.5 19.5t9.5 38q0 30 -19 49t-54 19q-40 0 -70.5 -21t-65 -80t-71 -173.5t-79.5 -293.5q-7 21 -19 62.5t-41 186.5t-50 309z" />
    <glyph glyph-name="eng" unicode="&#x14b;" horiz-adv-x="526" 
d="M57 260q18 58 40 88.5t39 30.5t17 -19q0 -16 -40 -142t-40 -165q0 -35 22.5 -48.5t80.5 -13.5q47 166 105 271.5t96 105.5q19 0 19 -21q0 -15 -18 -76.5t-46.5 -153.5t-38.5 -126q-44 -150 -98 -150q-26 0 -26 28q0 14 6.5 25t12.5 16l6 4q-7 19 -36 19
q-28 0 -45.5 -18.5t-17.5 -46.5q0 -60 81 -60q161 0 245 254q10 29 30.5 87.5t32 92.5t21.5 70.5t10 51.5q0 31 -19.5 49.5t-57.5 18.5q-42 0 -82.5 -30t-68 -72.5t-49 -85t-32.5 -72.5l-10 -30l-9 5q12 50 30 101t28 80t10 44q0 60 -76 60q-40 0 -68.5 -15.5t-51.5 -56.5
q-28 -50 -28 -77q0 -23 26 -23z" />
    <glyph glyph-name="Omacron" unicode="&#x14c;" horiz-adv-x="777" 
d="M633 758l22 77h-265l-22 -77h265zM481 688q-192 0 -311.5 -130.5t-119.5 -335.5q0 -127 63 -184t191 -57q99 0 180.5 40t133.5 106.5t80.5 151t28.5 176.5q0 113 -58.5 173t-187.5 60zM183 207q0 117 33 217.5t96.5 163.5t144.5 63q74 0 105.5 -46t31.5 -155
q0 -72 -17.5 -145.5t-50 -137t-87.5 -103.5t-122 -40q-66 0 -100 42.5t-34 140.5z" />
    <glyph glyph-name="omacron" unicode="&#x14d;" horiz-adv-x="471" 
d="M460 540l22 77h-265l-22 -77h265zM162 -19q82 0 147.5 50t98 122.5t32.5 149.5q0 129 -136 129q-82 0 -146 -49t-95.5 -122t-31.5 -153q0 -68 32.5 -97.5t98.5 -29.5zM178 19q-37 0 -37 62q0 71 24 145.5t59.5 122.5t68.5 48q36 0 36 -63q0 -61 -22 -135t-58 -127
t-71 -53z" />
    <glyph glyph-name="Obreve" unicode="&#x14e;" horiz-adv-x="777" 
d="M640 873l-24 11q-33 -84 -125 -84q-75 0 -75 57l3 27l-28 -11q-9 -24 -9 -55q0 -89 100 -89q124 0 158 144zM481 688q-192 0 -311.5 -130.5t-119.5 -335.5q0 -127 63 -184t191 -57q99 0 180.5 40t133.5 106.5t80.5 151t28.5 176.5q0 113 -58.5 173t-187.5 60zM183 207
q0 117 33 217.5t96.5 163.5t144.5 63q74 0 105.5 -46t31.5 -155q0 -72 -17.5 -145.5t-50 -137t-87.5 -103.5t-122 -40q-66 0 -100 42.5t-34 140.5z" />
    <glyph glyph-name="obreve" unicode="&#x14f;" horiz-adv-x="471" 
d="M484 656l-27 12q-28 -101 -136 -101q-77 0 -77 73l3 28l-29 -9q-7 -25 -7 -52q0 -58 25.5 -86.5t82.5 -28.5q128 0 165 164zM162 -19q82 0 147.5 50t98 122.5t32.5 149.5q0 129 -136 129q-82 0 -146 -49t-95.5 -122t-31.5 -153q0 -68 32.5 -97.5t98.5 -29.5zM178 19
q-37 0 -37 62q0 71 24 145.5t59.5 122.5t68.5 48q36 0 36 -63q0 -61 -22 -135t-58 -127t-71 -53z" />
    <glyph glyph-name="Ohungarumlaut" unicode="&#x150;" horiz-adv-x="777" 
d="M541 899q-29 -96 -134 -164l8 -26q82 29 132.5 68t50.5 83q0 39 -57 39zM686 899q-31 -96 -135 -164l8 -26q82 29 132.5 68t50.5 83q0 39 -56 39zM481 688q-192 0 -311.5 -130.5t-119.5 -335.5q0 -127 63 -184t191 -57q99 0 180.5 40t133.5 106.5t80.5 151t28.5 176.5
q0 113 -58.5 173t-187.5 60zM183 207q0 117 33 217.5t96.5 163.5t144.5 63q74 0 105.5 -46t31.5 -155q0 -72 -17.5 -145.5t-50 -137t-87.5 -103.5t-122 -40q-66 0 -100 42.5t-34 140.5z" />
    <glyph glyph-name="ohungarumlaut" unicode="&#x151;" horiz-adv-x="471" 
d="M204 507l7 -29q211 81 211 189q0 52 -67 52q-35 -153 -151 -212zM353 507l7 -29q211 81 211 189q0 52 -67 52q-35 -153 -151 -212zM162 -19q82 0 147.5 50t98 122.5t32.5 149.5q0 129 -136 129q-82 0 -146 -49t-95.5 -122t-31.5 -153q0 -68 32.5 -97.5t98.5 -29.5z
M178 19q-37 0 -37 62q0 71 24 145.5t59.5 122.5t68.5 48q36 0 36 -63q0 -61 -22 -135t-58 -127t-71 -53z" />
    <glyph glyph-name="OE" unicode="&#x152;" horiz-adv-x="1057" 
d="M483 688q-194 0 -313.5 -131.5t-119.5 -339.5q0 -126 63 -181t192 -55q40 0 149 9.5t165 9.5q87 0 169.5 -4.5t121.5 -9.5l40 -5q3 28 23.5 100.5t20.5 95.5q0 31 -41 31q-15 -91 -37.5 -123t-71.5 -33l-315 -5q138 92 184 270q34 2 77 2q34 0 48 -7.5t14 -26.5
q0 -12 -4 -31t-8 -32l-4 -14q8 -3 15 -3q25 0 31 27q8 41 33.5 121.5t25.5 95.5q0 21 -32 21q-15 -70 -37 -92.5t-73 -22.5l-78 1q9 35 9 95q0 119 -58 177l303 2q32 0 43.5 -11t11.5 -40q0 -18 -4 -41.5t-8 -37.5l-3 -15q10 -6 22 -6q32 0 39 46q5 34 12.5 75t13.5 65l5 24
q-189 -13 -319 -13q-79 0 -176 6t-129 6zM183 208q0 115 34 216t98 164t144 63q74 0 106.5 -46.5t32.5 -154.5q0 -72 -17.5 -145.5t-50.5 -137t-88.5 -103.5t-123.5 -40q-67 0 -101 42.5t-34 141.5z" />
    <glyph glyph-name="oe" unicode="&#x153;" horiz-adv-x="719" 
d="M484 228h-29q0 -27 54 -27q86 0 138 40t52 106q0 85 -111 85q-44 0 -83.5 -14t-56.5 -28l-18 -14l-3 6t-10.5 13.5t-19.5 17t-31.5 13.5t-45.5 6q-81 0 -147 -51t-99.5 -123t-33.5 -145q0 -71 33 -101.5t96 -30.5q42 0 80 14t55 28l18 14l3 -6t10.5 -13.5t20.5 -17
t34 -13.5t49 -6q104 0 155 96q18 33 18 54q0 23 -28 23q-16 -52 -47 -89.5t-68 -37.5q-48 0 -48 78q0 113 51.5 202t100.5 89q35 0 35 -46q0 -54 -34 -88t-90 -34zM193 19q-41 0 -41 67q0 100 48 205.5t95 105.5q19 0 30 -19t11 -52q0 -53 -19.5 -124.5t-54 -127
t-69.5 -55.5z" />
    <glyph glyph-name="Racute" unicode="&#x154;" horiz-adv-x="717" 
d="M593 906q-10 -40 -48.5 -86t-102.5 -76l8 -27q109 26 156.5 60.5t47.5 80.5q0 48 -61 48zM299 633q-27 -97 -99.5 -299t-114.5 -292q-26 -13 -105 -13q0 -33 32 -33q7 0 62 2t76 2q17 0 75.5 -2t85.5 -2q36 0 36 33q-41 0 -71.5 3.5t-41.5 6.5l-10 3q42 148 103.5 326
t101.5 269q22 13 63 13q49 0 70.5 -24.5t21.5 -76.5q0 -90 -62 -145t-140 -55q-42 0 -42 -33h40q36 0 50.5 -34.5t17 -83.5t9.5 -98.5t38.5 -84t91.5 -34.5q50 0 78 24.5t28 61.5q0 9 -3.5 16t-6.5 9l-3 3q-16 -31 -50 -31q-32 0 -49 27.5t-23 66.5t-12.5 78t-24.5 66.5
t-51 27.5l2 4q101 12 168 67.5t67 148.5q0 138 -176 138q-33 0 -90 -6t-78 -6t-74 2t-74 2q-34 0 -34 -33q40 0 69.5 -3.5t39.5 -7.5z" />
    <glyph glyph-name="racute" unicode="&#x155;" horiz-adv-x="462" 
d="M258 510l9 -32q95 27 158 77.5t63 102.5q0 61 -75 61q0 -17 -11 -47.5t-49 -79t-95 -82.5zM174 -9q43 161 91 248t82 87q25 0 25 -30q0 -11 -4 -21.5t-8 -16.5l-3 -5q5 -10 24 -10q32 0 59 35t27 89q0 65 -65 65q-58 0 -100.5 -65.5t-108.5 -224.5l-7 5q11 46 27.5 97.5
t27 83.5t10.5 49q0 55 -71 55q-95 0 -135 -100q-14 -32 -14 -50q0 -22 27 -22q38 119 75 119q18 0 18 -19q0 -24 -40.5 -154t-40.5 -157q0 -33 22.5 -45.5t81.5 -12.5z" />
    <glyph glyph-name="Rcommaaccent" unicode="&#x156;" horiz-adv-x="717" 
d="M299 633q-27 -97 -99.5 -299t-114.5 -292q-26 -13 -105 -13q0 -33 32 -33q7 0 62 2t76 2q17 0 75.5 -2t85.5 -2q36 0 36 33q-41 0 -71.5 3.5t-41.5 6.5l-10 3q42 148 103.5 326t101.5 269q22 13 63 13q49 0 70.5 -24.5t21.5 -76.5q0 -90 -62 -145t-140 -55q-42 0 -42 -33
h40q36 0 50.5 -34.5t17 -83.5t9.5 -98.5t38.5 -84t91.5 -34.5q50 0 78 24.5t28 61.5q0 9 -3.5 16t-6.5 9l-3 3q-16 -31 -50 -31q-32 0 -49 27.5t-23 66.5t-12.5 78t-24.5 66.5t-51 27.5l2 4q101 12 168 67.5t67 148.5q0 138 -176 138q-33 0 -90 -6t-78 -6t-74 2t-74 2
q-34 0 -34 -33q40 0 69.5 -3.5t39.5 -7.5zM242 -233l8 -26q67 1 116 41t49 111q0 66 -61 66q-35 0 -58.5 -22t-23.5 -55q0 -22 13.5 -35t35.5 -13q14 0 25 4t15 8l4 5q-10 -44 -45.5 -63.5t-77.5 -20.5z" />
    <glyph glyph-name="rcommaaccent" unicode="&#x157;" horiz-adv-x="462" 
d="M174 -9q43 161 91 248t82 87q25 0 25 -30q0 -11 -4 -21.5t-8 -16.5l-3 -5q5 -10 24 -10q32 0 59 35t27 89q0 65 -65 65q-58 0 -100.5 -65.5t-108.5 -224.5l-7 5q11 46 27.5 97.5t27 83.5t10.5 49q0 55 -71 55q-95 0 -135 -100q-14 -32 -14 -50q0 -22 27 -22
q38 119 75 119q18 0 18 -19q0 -24 -40.5 -154t-40.5 -157q0 -33 22.5 -45.5t81.5 -12.5zM2 -233l8 -26q67 1 116 41t49 111q0 66 -61 66q-35 0 -58.5 -22t-23.5 -55q0 -22 13.5 -35t35.5 -13q14 0 25 4t15 8l4 5q-10 -44 -45.5 -63.5t-77.5 -20.5z" />
    <glyph glyph-name="Rcaron" unicode="&#x158;" horiz-adv-x="717" 
d="M503 726h35q27 40 68.5 71t85.5 31q5 10 5 27q0 37 -43 37q-24 0 -44.5 -12.5t-37 -36.5t-25 -39t-19.5 -40q0 128 -74 128q-23 0 -38 -17t-16 -47q43 0 69.5 -29.5t33.5 -72.5zM299 633q-27 -97 -99.5 -299t-114.5 -292q-26 -13 -105 -13q0 -33 32 -33q7 0 62 2t76 2
q17 0 75.5 -2t85.5 -2q36 0 36 33q-41 0 -71.5 3.5t-41.5 6.5l-10 3q42 148 103.5 326t101.5 269q22 13 63 13q49 0 70.5 -24.5t21.5 -76.5q0 -90 -62 -145t-140 -55q-42 0 -42 -33h40q36 0 50.5 -34.5t17 -83.5t9.5 -98.5t38.5 -84t91.5 -34.5q50 0 78 24.5t28 61.5
q0 9 -3.5 16t-6.5 9l-3 3q-16 -31 -50 -31q-32 0 -49 27.5t-23 66.5t-12.5 78t-24.5 66.5t-51 27.5l2 4q101 12 168 67.5t67 148.5q0 138 -176 138q-33 0 -90 -6t-78 -6t-74 2t-74 2q-34 0 -34 -33q40 0 69.5 -3.5t39.5 -7.5z" />
    <glyph glyph-name="rcaron" unicode="&#x159;" horiz-adv-x="462" 
d="M297 500h35q31 54 76.5 94.5t97.5 40.5q6 8 6 27q0 42 -43 42q-76 0 -143 -157q0 34 -2 57.5t-8.5 48.5t-21.5 38t-38 13q-27 0 -42.5 -20.5t-16.5 -48.5q53 0 76.5 -41.5t23.5 -93.5zM174 -9q43 161 91 248t82 87q25 0 25 -30q0 -11 -4 -21.5t-8 -16.5l-3 -5
q5 -10 24 -10q32 0 59 35t27 89q0 65 -65 65q-58 0 -100.5 -65.5t-108.5 -224.5l-7 5q11 46 27.5 97.5t27 83.5t10.5 49q0 55 -71 55q-95 0 -135 -100q-14 -32 -14 -50q0 -22 27 -22q38 119 75 119q18 0 18 -19q0 -24 -40.5 -154t-40.5 -157q0 -33 22.5 -45.5t81.5 -12.5z
" />
    <glyph glyph-name="Sacute" unicode="&#x15a;" horiz-adv-x="543" 
d="M468 906q-10 -40 -48.5 -86t-102.5 -76l8 -27q109 26 156.5 60.5t47.5 80.5q0 48 -61 48zM534 489l39 151q-7 5 -21.5 13t-67.5 21.5t-116 13.5q-106 0 -162 -48t-56 -129q0 -44 20.5 -86t50 -76t59.5 -66.5t50.5 -70.5t20.5 -76q0 -51 -28.5 -81.5t-78.5 -30.5
q-59 0 -88 42.5t-29 153.5q-23 0 -34 -12t-16 -39l-27 -128q7 -7 21.5 -17t65 -26.5t108.5 -16.5q115 0 173.5 48.5t58.5 138.5q0 41 -21 81t-51 73t-60 65t-51 70.5t-21 77.5q0 56 28.5 86t75.5 30q62 0 89.5 -47t27.5 -145q32 0 40 30z" />
    <glyph glyph-name="sacute" unicode="&#x15b;" horiz-adv-x="434" 
d="M215 510l9 -32q95 27 158 77.5t63 102.5q0 61 -75 61q0 -17 -11 -47.5t-49 -79t-95 -82.5zM278 290q1 -3 4 -7.5t17 -12.5t34 -8q36 0 55.5 20t19.5 54q0 43 -37.5 69.5t-111.5 26.5q-83 0 -127 -32.5t-44 -89.5q0 -30 17 -57t41 -48t48 -40.5t41 -42.5t17 -46
q0 -30 -19.5 -45.5t-51.5 -15.5q-66 0 -66 55q0 18 9 32t18 19l9 5q-1 4 -4 9.5t-17.5 14.5t-35.5 9q-30 0 -51.5 -21.5t-21.5 -56.5q0 -48 38 -74t113 -26q183 0 183 118q0 27 -17 53t-41 47t-48 41.5t-41 44.5t-17 49q0 31 18 49t49 18q60 0 60 -55q0 -20 -10 -34t-20 -18
z" />
    <glyph glyph-name="Scircumflex" unicode="&#x15c;" horiz-adv-x="543" 
d="M446 890h-36q-27 -41 -68 -71.5t-86 -30.5q-4 -10 -4 -27q0 -38 42 -38q72 0 126 129q0 -30 5 -56t22.5 -49.5t47.5 -23.5q23 0 38 17.5t15 47.5q-43 0 -69 29.5t-33 72.5zM534 489l39 151q-7 5 -21.5 13t-67.5 21.5t-116 13.5q-106 0 -162 -48t-56 -129q0 -44 20.5 -86
t50 -76t59.5 -66.5t50.5 -70.5t20.5 -76q0 -51 -28.5 -81.5t-78.5 -30.5q-59 0 -88 42.5t-29 153.5q-23 0 -34 -12t-16 -39l-27 -128q7 -7 21.5 -17t65 -26.5t108.5 -16.5q115 0 173.5 48.5t58.5 138.5q0 41 -21 81t-51 73t-60 65t-51 70.5t-21 77.5q0 56 28.5 86t75.5 30
q62 0 89.5 -47t27.5 -145q32 0 40 30z" />
    <glyph glyph-name="scircumflex" unicode="&#x15d;" horiz-adv-x="434" 
d="M344 704h-35q-31 -53 -76.5 -93.5t-96.5 -41.5q-7 -7 -7 -26q0 -43 43 -43q76 0 140 151l3 6q0 -34 2 -57.5t8.5 -48.5t21.5 -38t38 -13q28 0 43.5 20.5t15.5 48.5q-36 0 -60 23.5t-32 52t-8 59.5zM278 290q1 -3 4 -7.5t17 -12.5t34 -8q36 0 55.5 20t19.5 54
q0 43 -37.5 69.5t-111.5 26.5q-83 0 -127 -32.5t-44 -89.5q0 -30 17 -57t41 -48t48 -40.5t41 -42.5t17 -46q0 -30 -19.5 -45.5t-51.5 -15.5q-66 0 -66 55q0 18 9 32t18 19l9 5q-1 4 -4 9.5t-17.5 14.5t-35.5 9q-30 0 -51.5 -21.5t-21.5 -56.5q0 -48 38 -74t113 -26
q183 0 183 118q0 27 -17 53t-41 47t-48 41.5t-41 44.5t-17 49q0 31 18 49t49 18q60 0 60 -55q0 -20 -10 -34t-20 -18z" />
    <glyph glyph-name="Scedilla" unicode="&#x15e;" horiz-adv-x="543" 
d="M368 688q63 0 114.5 -12t71.5 -24l19 -12l-39 -151q-8 -30 -40 -30q0 98 -27.5 145t-89.5 47q-47 0 -75.5 -30t-28.5 -86q0 -39 21 -77.5t51 -70.5t60 -65t51 -73t21 -81q0 -88 -55.5 -136.5t-165.5 -50.5q-15 -15 -15 -29q0 -11 14 -22t31.5 -20t31.5 -25.5t14 -36.5
q0 -35 -29 -58t-87 -23q-43 0 -67.5 16t-24.5 43q0 9 3 17t6 11l3 4q3 -4 8 -11t24.5 -18t42.5 -11q40 0 40 27q0 13 -14 25t-28 26.5t-14 33.5q0 27 25 52q-51 3 -93.5 18t-59.5 28l-17 13l27 128q5 27 16 39t34 12q0 -111 29 -153.5t88 -42.5q50 0 78.5 30.5t28.5 81.5
q0 38 -20.5 76t-50.5 70.5t-59.5 66.5t-50 76t-20.5 86q0 81 56 129t162 48z" />
    <glyph glyph-name="scedilla" unicode="&#x15f;" horiz-adv-x="434" 
d="M278 290q4 1 11 4t18 17.5t11 34.5q0 55 -60 55q-31 0 -49 -18t-18 -49q0 -25 17 -49t41 -44.5t48 -41.5t41 -47t17 -53q0 -112 -168 -118q-15 -15 -15 -29q0 -11 14 -22t31 -20t31 -25.5t14 -36.5q0 -36 -28.5 -58.5t-86.5 -22.5q-43 0 -67.5 16t-24.5 43q0 9 3 17t6 11
l3 4q3 -4 8 -11t24.5 -18t42.5 -11q40 0 40 27q0 13 -14 25t-28 26.5t-14 33.5q0 27 25 52q-64 3 -97 29t-33 70q0 35 21.5 56.5t51.5 21.5q21 0 35.5 -8.5t18.5 -16.5l3 -8q-4 -2 -10 -5.5t-16 -18t-10 -32.5q0 -55 66 -55q32 0 51.5 15.5t19.5 45.5q0 23 -17 46t-41 42.5
t-48 40.5t-41 48t-17 57q0 57 44 89.5t127 32.5q74 0 111.5 -26.5t37.5 -69.5q0 -34 -19.5 -54t-55.5 -20q-20 0 -34 7t-17 14z" />
    <glyph glyph-name="Scaron" unicode="&#x160;" horiz-adv-x="543" 
d="M378 726h35q27 40 68.5 71t85.5 31q5 10 5 27t-11.5 27t-31.5 10q-24 0 -44.5 -12.5t-37 -36.5t-25 -39t-19.5 -40q0 21 -3 40.5t-10.5 41t-23 34t-38.5 12.5q-22 0 -37 -17t-16 -47q43 0 69.5 -29.5t33.5 -72.5zM534 489l39 151q-7 5 -21.5 13t-67.5 21.5t-116 13.5
q-106 0 -162 -48t-56 -129q0 -44 20.5 -86t50 -76t59.5 -66.5t50.5 -70.5t20.5 -76q0 -51 -28.5 -81.5t-78.5 -30.5q-59 0 -88 42.5t-29 153.5q-23 0 -34 -12t-16 -39l-27 -128q7 -7 21.5 -17t65 -26.5t108.5 -16.5q115 0 173.5 48.5t58.5 138.5q0 41 -21 81t-51 73t-60 65
t-51 70.5t-21 77.5q0 56 28.5 86t75.5 30q62 0 89.5 -47t27.5 -145q32 0 40 30z" />
    <glyph glyph-name="scaron" unicode="&#x161;" horiz-adv-x="434" 
d="M254 500h35q31 54 76.5 94.5t97.5 40.5q6 8 6 27q0 42 -43 42q-76 0 -143 -157q0 34 -2 57.5t-8.5 48.5t-21.5 38t-38 13q-27 0 -42.5 -20.5t-16.5 -48.5q53 0 76.5 -41.5t23.5 -93.5zM278 290q1 -3 4 -7.5t17 -12.5t34 -8q36 0 55.5 20t19.5 54q0 43 -37.5 69.5
t-111.5 26.5q-83 0 -127 -32.5t-44 -89.5q0 -30 17 -57t41 -48t48 -40.5t41 -42.5t17 -46q0 -30 -19.5 -45.5t-51.5 -15.5q-66 0 -66 55q0 18 9 32t18 19l9 5q-1 4 -4 9.5t-17.5 14.5t-35.5 9q-30 0 -51.5 -21.5t-21.5 -56.5q0 -48 38 -74t113 -26q183 0 183 118
q0 27 -17 53t-41 47t-48 41.5t-41 44.5t-17 49q0 31 18 49t49 18q60 0 60 -55q0 -20 -10 -34t-20 -18z" />
    <glyph glyph-name="Tcedilla" unicode="&#x162;" horiz-adv-x="611" 
d="M441 676q68 0 150.5 3t130.5 7l49 3q-22 -88 -33 -164q-7 -46 -37 -46l-24 6q15 54 15 94q0 29 -11.5 40t-44.5 11l-121 -2q-83 -187 -209 -586q37 -13 138 -13q0 -33 -40 -33q-21 0 -76 2t-74 2q-37 -26 -37 -48q0 -11 14 -22t31 -20t31 -25.5t14 -36.5
q0 -36 -28.5 -58.5t-86.5 -22.5q-43 0 -67.5 16t-24.5 43q0 9 3 17t6 11l3 4q3 -4 8 -11t24.5 -18t42.5 -11q40 0 40 27q0 13 -14 25t-28 26.5t-14 33.5q0 36 47 70q-18 0 -70.5 -2t-73.5 -2q-34 0 -34 33q41 0 73 3.5t43 6.5l12 3q43 95 106 267t106 319l-156 1
q-33 0 -53 -34t-39 -111q-12 -4 -23 -4q-9 0 -15.5 6.5t-6.5 14.5q0 24 21 89.5t26 98.5q95 -13 307 -13z" />
    <glyph glyph-name="tcedilla" unicode="&#x163;" horiz-adv-x="330" 
d="M238 430q44 -9 141 -9q0 -39 -56 -39l-105 -5q-94 -233 -94 -308q0 -36 30 -36q64 0 101 120q29 0 29 -27q0 -37 -33 -83q-44 -61 -131 -62q-15 -15 -15 -29q0 -11 14 -22t31 -20t31 -25.5t14 -36.5q0 -36 -28.5 -58.5t-86.5 -22.5q-43 0 -67.5 16t-24.5 43q0 9 3 17
t6 11l3 4q3 -4 8 -11t24.5 -18t42.5 -11q40 0 40 27q0 13 -14 25t-28 26.5t-14 33.5q0 27 26 53q-69 11 -69 85q0 15 2.5 33.5t9 43t11.5 42.5t15.5 49t15.5 45.5t18 50t16 44.5q-27 6 -92 6q0 20 9 29t30 9q46 0 61.5 6.5t23.5 26.5l28 70q22 49 80 49q17 0 29.5 -4
t16.5 -8l5 -4q-30 -58 -57 -126z" />
    <glyph glyph-name="Tcaron" unicode="&#x164;" horiz-adv-x="611" 
d="M454 726h35q27 40 68.5 71t85.5 31q5 10 5 27q0 37 -43 37q-24 0 -44.5 -12.5t-37 -36.5t-25 -39t-19.5 -40q0 128 -74 128q-23 0 -38 -17t-16 -47q43 0 69.5 -29.5t33.5 -72.5zM224 629l156 -1q-43 -147 -106 -319t-106 -267q-35 -13 -128 -13q0 -33 34 -33q19 0 74.5 2
t81.5 2t89.5 -2t84.5 -2q40 0 40 33q-45 0 -79.5 3.5t-46.5 6.5l-12 3q126 399 209 586q63 2 121 2q33 0 44.5 -11t11.5 -40q0 -18 -4 -41.5t-8 -37.5l-3 -15q11 -6 24 -6q30 0 37 46q5 34 13 75t14 65l6 24q-178 -13 -330 -13q-94 0 -171 3t-106 7l-30 3q-5 -33 -26 -98.5
t-21 -89.5q0 -8 6.5 -14.5t15.5 -6.5l23 4q19 77 39 111t53 34z" />
    <glyph glyph-name="tcaron" unicode="&#x165;" horiz-adv-x="405" 
d="M316 471l38 -25q11 14 28.5 38t53 92t49.5 128q-46 -14 -109 -14q-9 -47 -24 -102t-26 -86zM255 153q-37 -120 -101 -120q-30 0 -30 36q0 33 23.5 110t46.5 137l24 61q69 5 105 5q56 0 56 39q-43 0 -78.5 2.5t-48.5 4.5l-14 2q12 30 26.5 61.5t22.5 48.5l8 16
q-13 16 -51 16q-58 0 -80 -49l-28 -70q-8 -20 -23.5 -26.5t-61.5 -6.5q-21 0 -30 -9t-9 -29q29 0 52 -1.5t32 -2.5l8 -2q-3 -9 -16 -44.5t-18 -50t-15.5 -45.5t-15.5 -49t-11.5 -42.5t-9 -43t-2.5 -33.5q0 -48 25.5 -67.5t75.5 -19.5q91 0 134 62q33 46 33 83q0 27 -29 27z
" />
    <glyph glyph-name="Tbar" unicode="&#x166;" horiz-adv-x="611" 
d="M441 676q68 0 150.5 3t130.5 7l49 3q-22 -88 -33 -164q-7 -46 -37 -46l-24 6q15 54 15 94q0 29 -11.5 40t-44.5 11l-121 -2q-57 -129 -106 -271h153l-12 -42h-156q-43 -128 -88 -273q37 -13 138 -13q0 -33 -40 -33q-21 0 -84.5 2t-89.5 2t-81.5 -2t-74.5 -2q-34 0 -34 33
q41 0 73 3.5t43 6.5l12 3q46 103 108 273h-147l12 42h150q56 158 89 271l-156 1q-33 0 -53 -34t-39 -111q-12 -4 -23 -4q-9 0 -15.5 6.5t-6.5 14.5q0 24 21 89.5t26 98.5q95 -13 307 -13z" />
    <glyph glyph-name="tbar" unicode="&#x167;" horiz-adv-x="330" 
d="M238 430q44 -9 141 -9q0 -39 -56 -39l-105 -5q-22 -54 -45 -119h137l-12 -38h-138q-36 -112 -36 -151q0 -36 30 -36q64 0 101 120q29 0 29 -27q0 -37 -33 -83q-43 -62 -134 -62q-50 0 -75.5 19.5t-25.5 67.5q0 51 33 152h-58l12 38h59q7 21 21.5 61t20.5 57q-27 6 -92 6
q0 20 9 29t30 9q46 0 61.5 6.5t23.5 26.5l28 70q22 49 80 49q17 0 29.5 -4t16.5 -8l5 -4q-30 -58 -57 -126z" />
    <glyph glyph-name="Umacron" unicode="&#x16a;" horiz-adv-x="734" 
d="M681 758l22 77h-265l-22 -77h265zM695 633q-106 -297 -147 -401q-45 -116 -95.5 -157.5t-134.5 -41.5q-63 0 -94.5 28t-31.5 91q0 64 49 203t114 278q23 14 115 14q0 33 -27 33q-21 0 -76.5 -2t-87.5 -2q-15 0 -70.5 2t-80.5 2q-33 0 -33 -33q41 0 71.5 -3.5t40.5 -7.5
l10 -3q-12 -32 -40 -103t-44 -113.5t-35.5 -99t-28.5 -100.5t-9 -78q0 -78 53 -118t177 -40q131 0 195.5 53.5t116.5 195.5l153 403q23 14 109 14q0 33 -28 33q-14 0 -54 -2t-51 -2q-19 0 -59 2t-65 2q-33 0 -33 -33q40 0 70.5 -3.5t40.5 -7.5z" />
    <glyph glyph-name="umacron" unicode="&#x16b;" 
d="M494 540l22 77h-265l-22 -77h265zM534 423q-22 10 -58 10q-68 0 -89 -63q-27 -77 -47.5 -129.5t-46 -103t-51.5 -75.5t-53 -25q-30 0 -30 32q0 36 52 152t52 150q0 61 -77 61q-99 0 -143 -102q-12 -29 -12 -48q0 -22 26 -22q39 119 81 119q17 0 17 -18t-50.5 -135.5
t-50.5 -160.5q0 -84 88 -84q38 0 68 14.5t53.5 46.5t38 58.5t36.5 74.5q2 5 3.5 8t3.5 7.5t4 8.5l8 -6q-31 -79 -31 -143q0 -69 78 -69q99 0 139 105q12 33 12 51q0 23 -27 23q-16 -57 -38.5 -90t-46.5 -33q-27 0 -27 32q0 49 29.5 137.5t58.5 152.5z" />
    <glyph glyph-name="Ubreve" unicode="&#x16c;" horiz-adv-x="734" 
d="M687 873l-23 11q-33 -84 -125 -84q-75 0 -75 57l3 27l-28 -11q-9 -24 -9 -55q0 -89 100 -89q123 0 157 144zM695 633q-106 -297 -147 -401q-45 -116 -95.5 -157.5t-134.5 -41.5q-63 0 -94.5 28t-31.5 91q0 64 49 203t114 278q23 14 115 14q0 33 -27 33q-21 0 -76.5 -2
t-87.5 -2q-15 0 -70.5 2t-80.5 2q-33 0 -33 -33q41 0 71.5 -3.5t40.5 -7.5l10 -3q-12 -32 -40 -103t-44 -113.5t-35.5 -99t-28.5 -100.5t-9 -78q0 -78 53 -118t177 -40q131 0 195.5 53.5t116.5 195.5l153 403q23 14 109 14q0 33 -28 33q-14 0 -54 -2t-51 -2q-19 0 -59 2
t-65 2q-33 0 -33 -33q40 0 70.5 -3.5t40.5 -7.5z" />
    <glyph glyph-name="ubreve" unicode="&#x16d;" 
d="M518 656l-27 12q-28 -101 -136 -101q-77 0 -77 73l3 28l-29 -9q-7 -25 -7 -52q0 -58 25.5 -86.5t82.5 -28.5q128 0 165 164zM534 423q-22 10 -58 10q-68 0 -89 -63q-27 -77 -47.5 -129.5t-46 -103t-51.5 -75.5t-53 -25q-30 0 -30 32q0 36 52 152t52 150q0 61 -77 61
q-99 0 -143 -102q-12 -29 -12 -48q0 -22 26 -22q39 119 81 119q17 0 17 -18t-50.5 -135.5t-50.5 -160.5q0 -84 88 -84q38 0 68 14.5t53.5 46.5t38 58.5t36.5 74.5q2 5 3.5 8t3.5 7.5t4 8.5l8 -6q-31 -79 -31 -143q0 -69 78 -69q99 0 139 105q12 33 12 51q0 23 -27 23
q-16 -57 -38.5 -90t-46.5 -33q-27 0 -27 32q0 49 29.5 137.5t58.5 152.5z" />
    <glyph glyph-name="Uring" unicode="&#x16e;" horiz-adv-x="734" 
d="M451 781q0 -37 23.5 -56t59.5 -19q51 0 89.5 32t38.5 89q0 37 -23.5 56t-59.5 19q-52 0 -90 -32t-38 -89zM513 794q0 23 15.5 38t37.5 15q15 0 24 -9t9 -24q0 -22 -15.5 -37.5t-37.5 -15.5q-15 0 -24 9t-9 24zM695 633q-106 -297 -147 -401q-45 -116 -95.5 -157.5
t-134.5 -41.5q-63 0 -94.5 28t-31.5 91q0 64 49 203t114 278q23 14 115 14q0 33 -27 33q-21 0 -76.5 -2t-87.5 -2q-15 0 -70.5 2t-80.5 2q-33 0 -33 -33q41 0 71.5 -3.5t40.5 -7.5l10 -3q-12 -32 -40 -103t-44 -113.5t-35.5 -99t-28.5 -100.5t-9 -78q0 -78 53 -118t177 -40
q131 0 195.5 53.5t116.5 195.5l153 403q23 14 109 14q0 33 -28 33q-14 0 -54 -2t-51 -2q-19 0 -59 2t-65 2q-33 0 -33 -33q40 0 70.5 -3.5t40.5 -7.5z" />
    <glyph glyph-name="uring" unicode="&#x16f;" 
d="M285 578q0 -37 23.5 -56t59.5 -19q51 0 89.5 32t38.5 89q0 37 -23.5 56t-59.5 19q-51 0 -89.5 -31.5t-38.5 -89.5zM348 591q0 23 15.5 38t37.5 15q14 0 23 -9t9 -24q0 -22 -15.5 -37.5t-37.5 -15.5q-14 0 -23 9t-9 24zM534 423q-22 10 -58 10q-68 0 -89 -63
q-27 -77 -47.5 -129.5t-46 -103t-51.5 -75.5t-53 -25q-30 0 -30 32q0 36 52 152t52 150q0 61 -77 61q-99 0 -143 -102q-12 -29 -12 -48q0 -22 26 -22q39 119 81 119q17 0 17 -18t-50.5 -135.5t-50.5 -160.5q0 -84 88 -84q38 0 68 14.5t53.5 46.5t38 58.5t36.5 74.5
q2 5 3.5 8t3.5 7.5t4 8.5l8 -6q-31 -79 -31 -143q0 -69 78 -69q99 0 139 105q12 33 12 51q0 23 -27 23q-16 -57 -38.5 -90t-46.5 -33q-27 0 -27 32q0 49 29.5 137.5t58.5 152.5z" />
    <glyph glyph-name="Uhungarumlaut" unicode="&#x170;" horiz-adv-x="734" 
d="M589 899q-29 -96 -134 -164l8 -26q82 29 132.5 68t50.5 83q0 39 -57 39zM734 899q-31 -96 -135 -164l8 -26q82 29 132.5 68t50.5 83q0 39 -56 39zM695 633q-106 -297 -147 -401q-45 -116 -95.5 -157.5t-134.5 -41.5q-63 0 -94.5 28t-31.5 91q0 64 49 203t114 278
q23 14 115 14q0 33 -27 33q-21 0 -76.5 -2t-87.5 -2q-15 0 -70.5 2t-80.5 2q-33 0 -33 -33q41 0 71.5 -3.5t40.5 -7.5l10 -3q-12 -32 -40 -103t-44 -113.5t-35.5 -99t-28.5 -100.5t-9 -78q0 -78 53 -118t177 -40q131 0 195.5 53.5t116.5 195.5l153 403q23 14 109 14
q0 33 -28 33q-14 0 -54 -2t-51 -2q-19 0 -59 2t-65 2q-33 0 -33 -33q40 0 70.5 -3.5t40.5 -7.5z" />
    <glyph glyph-name="uhungarumlaut" unicode="&#x171;" 
d="M238 507l7 -29q211 81 211 189q0 52 -67 52q-35 -153 -151 -212zM387 507l7 -29q211 81 211 189q0 52 -67 52q-35 -153 -151 -212zM534 423q-22 10 -58 10q-68 0 -89 -63q-27 -77 -47.5 -129.5t-46 -103t-51.5 -75.5t-53 -25q-30 0 -30 32q0 36 52 152t52 150
q0 61 -77 61q-99 0 -143 -102q-12 -29 -12 -48q0 -22 26 -22q39 119 81 119q17 0 17 -18t-50.5 -135.5t-50.5 -160.5q0 -84 88 -84q38 0 68 14.5t53.5 46.5t38 58.5t36.5 74.5q2 5 3.5 8t3.5 7.5t4 8.5l8 -6q-31 -79 -31 -143q0 -69 78 -69q99 0 139 105q12 33 12 51
q0 23 -27 23q-16 -57 -38.5 -90t-46.5 -33q-27 0 -27 32q0 49 29.5 137.5t58.5 152.5z" />
    <glyph glyph-name="Uogonek" unicode="&#x172;" horiz-adv-x="734" 
d="M836 680q28 0 28 -33q-38 0 -65.5 -3.5t-35.5 -7.5l-8 -3q-109 -283 -153 -403q-34 -94 -70.5 -146t-90.5 -77q-1 -1 -32 -28t-46.5 -43t-33 -43.5t-17.5 -49.5q0 -19 8 -27t27 -8q16 0 29.5 6.5t19.5 13.5l6 6q9 -4 9 -19q0 -24 -25 -44t-82 -20q-92 0 -92 73
q0 26 13.5 50.5t39.5 45.5t48 34.5t54 31.5q-38 -5 -77 -5q-124 0 -177 40t-53 118q0 34 9 78t28.5 100.5t35.5 99t44 113.5t40 103q-29 14 -122 14q0 33 33 33q25 0 80.5 -2t70.5 -2q32 0 87.5 2t76.5 2q27 0 27 -33q-41 0 -69.5 -3.5t-36.5 -7.5l-9 -3q-65 -139 -114 -278
t-49 -203q0 -63 31.5 -91t94.5 -28q84 0 134.5 41.5t95.5 157.5l147 401q-31 14 -121 14q0 33 33 33q25 0 65 -2t59 -2q11 0 51 2t54 2z" />
    <glyph glyph-name="uogonek" unicode="&#x173;" 
d="M528 160q27 0 27 -23q0 -18 -12 -51q-20 -54 -58 -81q-68 -59 -89 -89q-25 -35 -25 -63q0 -34 35 -34q16 0 29.5 6.5t19.5 12.5l6 6q9 -4 9 -19q0 -24 -25 -44t-83 -20q-92 0 -92 73t129 147q-73 3 -73 69q0 28 8 64t16 58l7 21l-8 6q-50 -108 -70 -137q-55 -81 -137 -81
q-88 0 -88 84q0 43 50.5 160.5t50.5 135.5t-17 18q-42 0 -81 -119q-26 0 -26 22q0 19 12 48q44 102 143 102q77 0 77 -61q0 -34 -52 -150t-52 -152q0 -32 30 -32q27 0 53 25t51.5 75.5t46 103t47.5 129.5q21 63 89 63q16 0 30.5 -2.5t21.5 -4.5l6 -3q-13 -27 -32.5 -70.5
t-52.5 -139t-33 -144.5q0 -32 27 -32q24 0 46.5 33t38.5 90z" />
    <glyph glyph-name="Wcircumflex" unicode="&#x174;" horiz-adv-x="892" 
d="M570 890h-36q-27 -40 -68 -71t-85 -31q-5 -10 -5 -27q0 -38 43 -38q71 0 125 129q0 -30 5 -56t22.5 -49.5t47.5 -23.5q23 0 38 17.5t15 47.5q-42 0 -68.5 29.5t-33.5 72.5zM494 -4q27 0 53 -7t39 -13l12 -7q47 82 92.5 179t111.5 248.5t105 236.5q23 14 101 14
q0 33 -29 33q-2 0 -38.5 -2t-61.5 -2q-17 0 -57 2t-66 2q-30 0 -30 -33q37 0 66.5 -3.5t40.5 -7.5l11 -3q-51 -138 -122 -301.5t-121 -263.5q-9 56 -18 210.5t-9 354.5q28 14 120 14q0 33 -29 33q-15 0 -70.5 -2t-80.5 -2q-24 0 -73 2t-69 2q-31 0 -31 -33q37 0 63 -3.5
t34 -7.5l7 -3l2 -107q-81 -242 -176 -458q-46 258 -55 565q22 14 98 14q0 33 -27 33q-20 0 -65.5 -2t-69.5 -2q-26 0 -80.5 2t-68.5 2q-33 0 -33 -33q32 0 58.5 -3.5t37.5 -7.5l10 -3q12 -177 34 -336.5t38 -230.5l17 -70q26 0 52 -7t39 -13l13 -7q52 102 108 239.5
t80 219.5q3 -113 12 -221t17 -159z" />
    <glyph glyph-name="wcircumflex" unicode="&#x175;" horiz-adv-x="775" 
d="M557 704h-35q-31 -53 -76.5 -93.5t-96.5 -41.5q-7 -7 -7 -26q0 -43 43 -43q76 0 140 151l3 6q0 -34 2 -57.5t8.5 -48.5t21.5 -38t38 -13q28 0 43.5 20.5t15.5 48.5q-36 0 -60 23.5t-32 52t-8 59.5zM607 425q21 -28 21 -125q0 -122 -48.5 -201t-114.5 -79q-21 0 -37.5 9
t-22.5 18l-6 9q6 4 16.5 12.5t37 35t47 55t37 71.5t16.5 86q0 98 -89 98q-60 0 -111 -64.5t-51 -169.5q0 -40 8 -71.5t16 -43.5l9 -12q-36 -31 -80 -31q-28 0 -41.5 20t-13.5 68q0 89 43 173.5t88 131.5q0 20 -14 20q-10 0 -18 -12.5t-21.5 -25t-35.5 -12.5q-24 0 -71 29.5
t-88 29.5q-38 0 -57.5 -20.5t-19.5 -51.5q0 -38 19 -55.5t50 -17.5q11 0 18.5 2.5t9.5 4.5l2 2q-24 14 -24 39q0 29 27 29q12 0 38 -12.5t57 -12.5q12 0 22 3.5t14 6.5l4 3v-6q0 -1 -18 -15t-41.5 -37.5t-47.5 -53.5t-40.5 -71t-16.5 -82q0 -62 36 -90t93 -28q44 0 80 12
t50 25l14 12q4 -5 11.5 -13.5t36.5 -22t64 -13.5q47 0 95.5 21.5t90 60.5t68 102t26.5 139q0 65 -29 98t-73 33q-10 0 -18.5 -2.5t-12.5 -4.5zM386 90q-11 24 -11 85q0 64 13.5 114t31 73t32.5 23q25 0 25 -68q0 -42 -9.5 -80.5t-22.5 -64t-26.5 -45t-22.5 -28.5z" />
    <glyph glyph-name="Ycircumflex" unicode="&#x176;" horiz-adv-x="605" 
d="M471 890h-36q-27 -40 -68 -71t-85 -31q-5 -10 -5 -27q0 -38 43 -38q71 0 125 129q0 -30 5 -56t22.5 -49.5t47.5 -23.5q23 0 38 17.5t15 47.5q-42 0 -68.5 29.5t-33.5 72.5zM134 633l117 -350q-10 -77 -26.5 -137.5t-27.5 -81.5l-11 -22q-31 -13 -115 -13q0 -33 37 -33
q10 0 68 2t81 2q14 0 75 -2t71 -2q23 0 31.5 8t8.5 25q-39 0 -69 3.5t-40 7.5l-10 3q0 18 24 107.5t39 135.5l246 347q27 14 105 14q0 33 -27 33q-13 0 -47 -2t-54 -2t-62 2t-61 2q-33 0 -33 -33q36 0 66 -3t43 -6.5t13 -4.5q0 -5 -54 -83.5t-108 -153.5l-53 -76
q-89 291 -89 312q0 4 13.5 7t40 5.5t59.5 2.5q0 33 -26 33q-18 0 -74 -2t-81 -2q-21 0 -75.5 2t-68.5 2q-31 0 -31 -33q32 0 58.5 -3.5t36.5 -7.5z" />
    <glyph glyph-name="ycircumflex" unicode="&#x177;" horiz-adv-x="506" 
d="M414 704h-35q-31 -53 -76.5 -93.5t-96.5 -41.5q-7 -7 -7 -26q0 -43 43 -43q76 0 140 151l3 6q0 -34 2 -57.5t8.5 -48.5t21.5 -38t38 -13q28 0 43.5 20.5t15.5 48.5q-36 0 -60 23.5t-32 52t-8 59.5zM526 423q-20 10 -52 10q-74 0 -95 -65q-4 -10 -15.5 -43t-17.5 -49
l-18 -48t-20.5 -49.5t-21 -43.5t-23.5 -40.5t-24 -29.5t-27 -21.5t-28 -6.5q-31 0 -31 29q0 40 55.5 155t55.5 150q0 61 -81 61q-99 0 -141 -100q-13 -31 -13 -50q0 -22 24 -22q42 119 82 119q18 0 18 -18q0 -21 -53 -138.5t-53 -164.5q0 -77 85 -77q41 0 72 14.5t56 48.5
t41 65t40 88l8 -7q-29 -73 -45 -127q-37 -139 -83.5 -199t-109.5 -60q-60 0 -60 53q0 27 15.5 41.5t40.5 14.5q0 7 -4.5 16t-20 18t-39.5 9q-40 0 -64.5 -25t-24.5 -68q0 -98 138 -98q135 0 209 79t121 246q32 111 58 194t36 111z" />
    <glyph glyph-name="Ydieresis" unicode="&#x178;" horiz-adv-x="605" 
d="M292 796q0 -56 57 -56q32 0 55 22.5t23 62.5q0 24 -13.5 39.5t-39.5 15.5q-38 0 -60 -23.5t-22 -60.5zM481 796q0 -56 56 -56q33 0 56 22t23 63q0 24 -13.5 39.5t-40.5 15.5q-37 0 -59 -23.5t-22 -60.5zM134 633l117 -350q-10 -77 -26.5 -137.5t-27.5 -81.5l-11 -22
q-31 -13 -115 -13q0 -33 37 -33q10 0 68 2t81 2q14 0 75 -2t71 -2q23 0 31.5 8t8.5 25q-39 0 -69 3.5t-40 7.5l-10 3q0 18 24 107.5t39 135.5l246 347q27 14 105 14q0 33 -27 33q-13 0 -47 -2t-54 -2t-62 2t-61 2q-33 0 -33 -33q36 0 66 -3t43 -6.5t13 -4.5q0 -5 -54 -83.5
t-108 -153.5l-53 -76q-89 291 -89 312q0 4 13.5 7t40 5.5t59.5 2.5q0 33 -26 33q-18 0 -74 -2t-81 -2q-21 0 -75.5 2t-68.5 2q-31 0 -31 -33q32 0 58.5 -3.5t36.5 -7.5z" />
    <glyph glyph-name="Zacute" unicode="&#x179;" horiz-adv-x="682" 
d="M531 906q-10 -40 -48.5 -86t-102.5 -76l7 -27q110 26 157.5 60.5t47.5 80.5q0 48 -61 48zM281 623l262 2q-24 -46 -465 -552q-32 -38 -48 -56l15 -28q137 11 277 11q70 0 138 -4.5t100 -9.5l33 -5q7 40 26 106t19 85q0 35 -41 35q-16 -90 -38.5 -120.5t-79.5 -31.5
l-266 -2l519 605l-12 24q-80 -6 -275 -6q-68 0 -132.5 4t-94.5 8l-31 4q-7 -39 -26.5 -104.5t-19.5 -86.5t25 -21l20 4q18 75 38 107t57 32z" />
    <glyph glyph-name="zacute" unicode="&#x17a;" horiz-adv-x="501" 
d="M283 510l9 -32q95 27 158 77.5t63 102.5q0 61 -75 61q0 -17 -11 -47.5t-49 -79t-95 -82.5zM135 21q0 33 17.5 56.5t44.5 23.5q51 0 51 -81q0 -99 -47 -160t-112 -61q-60 0 -60 55q0 31 19 47.5t44 16.5q0 14 -18 30t-52 16q-40 0 -66 -26t-26 -66q0 -107 150 -107
q122 0 203 73.5t81 181.5q0 114 -119 115v4q98 46 165.5 121.5t90.5 169.5q-9 6 -28 6q-34 0 -41 -25l-5 -14q-19 -23 -63 -23q-21 0 -43 11.5t-39.5 25.5t-46.5 25.5t-62 11.5q-47 0 -74.5 -25.5t-27.5 -71.5q0 -45 25 -68t66 -23q29 0 45.5 11t16.5 22q-19 0 -33.5 12
t-14.5 32q0 14 9.5 22.5t22.5 8.5t50 -20.5t73 -20.5q22 0 44.5 9.5t33.5 19.5l11 9q-68 -132 -245 -219q-32 -15 -47 -23.5t-30 -24.5t-15 -34q0 -43 52 -43z" />
    <glyph glyph-name="Zdotaccent" unicode="&#x17b;" horiz-adv-x="682" 
d="M415 795q0 -55 59 -55q38 0 61.5 22.5t23.5 60.5q0 23 -14 40t-44 17q-39 0 -62.5 -23.5t-23.5 -61.5zM281 623l262 2q-24 -46 -465 -552q-32 -38 -48 -56l15 -28q137 11 277 11q70 0 138 -4.5t100 -9.5l33 -5q7 40 26 106t19 85q0 35 -41 35q-16 -90 -38.5 -120.5
t-79.5 -31.5l-266 -2l519 605l-12 24q-80 -6 -275 -6q-68 0 -132.5 4t-94.5 8l-31 4q-7 -39 -26.5 -104.5t-19.5 -86.5t25 -21l20 4q18 75 38 107t57 32z" />
    <glyph glyph-name="zdotaccent" unicode="&#x17c;" horiz-adv-x="501" 
d="M310 590q0 -54 59 -54q38 0 61.5 22.5t23.5 60.5q0 23 -14 40t-44 17q-39 0 -62.5 -24t-23.5 -62zM135 21q0 33 17.5 56.5t44.5 23.5q51 0 51 -81q0 -99 -47 -160t-112 -61q-60 0 -60 55q0 31 19 47.5t44 16.5q0 14 -18 30t-52 16q-40 0 -66 -26t-26 -66q0 -107 150 -107
q122 0 203 73.5t81 181.5q0 114 -119 115v4q98 46 165.5 121.5t90.5 169.5q-9 6 -28 6q-34 0 -41 -25l-5 -14q-19 -23 -63 -23q-21 0 -43 11.5t-39.5 25.5t-46.5 25.5t-62 11.5q-47 0 -74.5 -25.5t-27.5 -71.5q0 -45 25 -68t66 -23q29 0 45.5 11t16.5 22q-19 0 -33.5 12
t-14.5 32q0 14 9.5 22.5t22.5 8.5t50 -20.5t73 -20.5q22 0 44.5 9.5t33.5 19.5l11 9q-68 -132 -245 -219q-32 -15 -47 -23.5t-30 -24.5t-15 -34q0 -43 52 -43z" />
    <glyph glyph-name="Zcaron" unicode="&#x17d;" horiz-adv-x="682" 
d="M441 726h35q27 40 68.5 71t85.5 31q5 10 5 27t-11.5 27t-31.5 10q-24 0 -44.5 -12.5t-37 -36.5t-25 -39t-19.5 -40q0 21 -3 40.5t-10.5 41t-23 34t-38.5 12.5q-22 0 -37 -17t-16 -47q43 0 69.5 -29.5t33.5 -72.5zM281 623l262 2q-24 -46 -465 -552q-32 -38 -48 -56
l15 -28q137 11 277 11q70 0 138 -4.5t100 -9.5l33 -5q7 40 26 106t19 85q0 35 -41 35q-16 -90 -38.5 -120.5t-79.5 -31.5l-266 -2l519 605l-12 24q-80 -6 -275 -6q-68 0 -132.5 4t-94.5 8l-31 4q-7 -39 -26.5 -104.5t-19.5 -86.5t25 -21l20 4q18 75 38 107t57 32z" />
    <glyph glyph-name="zcaron" unicode="&#x17e;" horiz-adv-x="501" 
d="M323 500h35q31 54 76.5 94.5t97.5 40.5q6 8 6 27q0 42 -43 42q-76 0 -143 -157q0 34 -2 57.5t-8.5 48.5t-21.5 38t-38 13q-27 0 -42.5 -20.5t-16.5 -48.5q53 0 76.5 -41.5t23.5 -93.5zM135 21q0 33 17.5 56.5t44.5 23.5q51 0 51 -81q0 -99 -47 -160t-112 -61
q-60 0 -60 55q0 31 19 47.5t44 16.5q0 14 -18 30t-52 16q-40 0 -66 -26t-26 -66q0 -107 150 -107q122 0 203 73.5t81 181.5q0 114 -119 115v4q98 46 165.5 121.5t90.5 169.5q-9 6 -28 6q-34 0 -41 -25l-5 -14q-19 -23 -63 -23q-21 0 -43 11.5t-39.5 25.5t-46.5 25.5
t-62 11.5q-47 0 -74.5 -25.5t-27.5 -71.5q0 -45 25 -68t66 -23q29 0 45.5 11t16.5 22q-19 0 -33.5 12t-14.5 32q0 14 9.5 22.5t22.5 8.5t50 -20.5t73 -20.5q22 0 44.5 9.5t33.5 19.5l11 9q-68 -132 -245 -219q-32 -15 -47 -23.5t-30 -24.5t-15 -34q0 -43 52 -43z" />
    <glyph glyph-name="Schwa" unicode="&#x18f;" horiz-adv-x="652" 
d="M350 300h54q0 22 -19.5 30.5t-68.5 8.5q-132 0 -218.5 -66.5t-86.5 -165.5q0 -125 152 -125q117 0 218 67t161 182.5t60 249.5q0 207 -193 207q-53 0 -97.5 -17t-73 -45.5t-45 -52t-28.5 -48.5q-19 -38 -19 -66q0 -14 9.5 -23t25.5 -9q28 84 76 139.5t111 55.5
q106 0 106 -139q0 -99 -27 -186.5t-69 -144.5t-91 -90t-95 -33q-61 0 -61 74q0 92 60.5 144.5t158.5 52.5z" />
    <glyph glyph-name="florin" unicode="&#x192;" horiz-adv-x="697" 
d="M569 688q55 0 86.5 -25t31.5 -66q0 -38 -24 -61t-64 -23q-21 0 -35 6.5t-18 13.5l-3 7q6 2 15 6t24 23t15 46q0 38 -37 38q-58 0 -104 -153l-37 -123h145l-23 -48h-137l-110 -366q-55 -186 -211 -186q-49 0 -76 20t-27 57t23.5 60.5t61.5 23.5q17 0 29 -7t16 -14l4 -7
q-5 -2 -12.5 -6.5t-19.5 -21t-12 -35.5q0 -36 27 -36q22 0 40.5 22t36.5 84l122 412h-108l22 48h100l31 106q29 97 89 151t139 54z" />
    </font>
</defs>
</svg>
